G04 #@! TF.GenerationSoftware,KiCad,Pcbnew,(5.1.12)-1*
G04 #@! TF.CreationDate,2022-10-28T14:48:17+01:00*
G04 #@! TF.ProjectId,Apple-1 EPROM,4170706c-652d-4312-9045-50524f4d2e6b,rev?*
G04 #@! TF.SameCoordinates,Original*
G04 #@! TF.FileFunction,Soldermask,Bot*
G04 #@! TF.FilePolarity,Negative*
%FSLAX46Y46*%
G04 Gerber Fmt 4.6, Leading zero omitted, Abs format (unit mm)*
G04 Created by KiCad (PCBNEW (5.1.12)-1) date 2022-10-28 14:48:17*
%MOMM*%
%LPD*%
G01*
G04 APERTURE LIST*
%ADD10C,3.200000*%
%ADD11R,1.700000X1.700000*%
%ADD12O,1.700000X1.700000*%
%ADD13R,1.600000X1.600000*%
%ADD14O,1.600000X1.600000*%
%ADD15C,2.400000*%
%ADD16O,2.400000X2.400000*%
%ADD17R,2.540000X10.000000*%
G04 APERTURE END LIST*
D10*
X213526200Y-98357460D03*
X116776200Y-98357460D03*
D11*
X117526200Y-132607460D03*
D12*
X117526200Y-135147460D03*
D13*
X194866200Y-128807460D03*
D14*
X179626200Y-100867460D03*
X194866200Y-126267460D03*
X179626200Y-103407460D03*
X194866200Y-123727460D03*
X179626200Y-105947460D03*
X194866200Y-121187460D03*
X179626200Y-108487460D03*
X194866200Y-118647460D03*
X179626200Y-111027460D03*
X194866200Y-116107460D03*
X179626200Y-113567460D03*
X194866200Y-113567460D03*
X179626200Y-116107460D03*
X194866200Y-111027460D03*
X179626200Y-118647460D03*
X194866200Y-108487460D03*
X179626200Y-121187460D03*
X194866200Y-105947460D03*
X179626200Y-123727460D03*
X194866200Y-103407460D03*
X179626200Y-126267460D03*
X194866200Y-100867460D03*
X179626200Y-128807460D03*
D11*
X169126200Y-132767460D03*
D12*
X169126200Y-135307460D03*
D15*
X204766200Y-114947460D03*
D16*
X204766200Y-99707460D03*
D13*
X143386200Y-128807460D03*
D14*
X128146200Y-100867460D03*
X143386200Y-126267460D03*
X128146200Y-103407460D03*
X143386200Y-123727460D03*
X128146200Y-105947460D03*
X143386200Y-121187460D03*
X128146200Y-108487460D03*
X143386200Y-118647460D03*
X128146200Y-111027460D03*
X143386200Y-116107460D03*
X128146200Y-113567460D03*
X143386200Y-113567460D03*
X128146200Y-116107460D03*
X143386200Y-111027460D03*
X128146200Y-118647460D03*
X143386200Y-108487460D03*
X128146200Y-121187460D03*
X143386200Y-105947460D03*
X128146200Y-123727460D03*
X143386200Y-103407460D03*
X128146200Y-126267460D03*
X143386200Y-100867460D03*
X128146200Y-128807460D03*
D17*
X129560000Y-143580000D03*
X133520000Y-143580000D03*
X137480000Y-143580000D03*
X141440000Y-143580000D03*
X145400000Y-143580000D03*
X149360000Y-143580000D03*
X153320000Y-143580000D03*
X157280000Y-143580000D03*
X161240000Y-143580000D03*
X165200000Y-143580000D03*
X169160000Y-143580000D03*
X173120000Y-143580000D03*
X177080000Y-143580000D03*
X181040000Y-143580000D03*
X185000000Y-143580000D03*
X188960000Y-143580000D03*
X192920000Y-143580000D03*
X196880000Y-143580000D03*
X200840000Y-143580000D03*
X204800000Y-143580000D03*
X208760000Y-143580000D03*
X212720000Y-143580000D03*
M02*
