G04 #@! TF.GenerationSoftware,KiCad,Pcbnew,(5.1.12)-1*
G04 #@! TF.CreationDate,2022-10-28T14:48:17+01:00*
G04 #@! TF.ProjectId,Apple-1 EPROM,4170706c-652d-4312-9045-50524f4d2e6b,rev?*
G04 #@! TF.SameCoordinates,Original*
G04 #@! TF.FileFunction,Copper,L2,Bot*
G04 #@! TF.FilePolarity,Positive*
%FSLAX46Y46*%
G04 Gerber Fmt 4.6, Leading zero omitted, Abs format (unit mm)*
G04 Created by KiCad (PCBNEW (5.1.12)-1) date 2022-10-28 14:48:17*
%MOMM*%
%LPD*%
G01*
G04 APERTURE LIST*
G04 #@! TA.AperFunction,ComponentPad*
%ADD10R,1.700000X1.700000*%
G04 #@! TD*
G04 #@! TA.AperFunction,ComponentPad*
%ADD11O,1.700000X1.700000*%
G04 #@! TD*
G04 #@! TA.AperFunction,ComponentPad*
%ADD12R,1.600000X1.600000*%
G04 #@! TD*
G04 #@! TA.AperFunction,ComponentPad*
%ADD13O,1.600000X1.600000*%
G04 #@! TD*
G04 #@! TA.AperFunction,ComponentPad*
%ADD14C,2.400000*%
G04 #@! TD*
G04 #@! TA.AperFunction,ComponentPad*
%ADD15O,2.400000X2.400000*%
G04 #@! TD*
G04 #@! TA.AperFunction,ConnectorPad*
%ADD16R,2.540000X10.000000*%
G04 #@! TD*
G04 #@! TA.AperFunction,ViaPad*
%ADD17C,0.800000*%
G04 #@! TD*
G04 #@! TA.AperFunction,Conductor*
%ADD18C,0.250000*%
G04 #@! TD*
G04 APERTURE END LIST*
D10*
X117526200Y-132607460D03*
D11*
X117526200Y-135147460D03*
D12*
X194866200Y-128807460D03*
D13*
X179626200Y-100867460D03*
X194866200Y-126267460D03*
X179626200Y-103407460D03*
X194866200Y-123727460D03*
X179626200Y-105947460D03*
X194866200Y-121187460D03*
X179626200Y-108487460D03*
X194866200Y-118647460D03*
X179626200Y-111027460D03*
X194866200Y-116107460D03*
X179626200Y-113567460D03*
X194866200Y-113567460D03*
X179626200Y-116107460D03*
X194866200Y-111027460D03*
X179626200Y-118647460D03*
X194866200Y-108487460D03*
X179626200Y-121187460D03*
X194866200Y-105947460D03*
X179626200Y-123727460D03*
X194866200Y-103407460D03*
X179626200Y-126267460D03*
X194866200Y-100867460D03*
X179626200Y-128807460D03*
D10*
X169126200Y-132767460D03*
D11*
X169126200Y-135307460D03*
D14*
X204766200Y-114947460D03*
D15*
X204766200Y-99707460D03*
D12*
X143386200Y-128807460D03*
D13*
X128146200Y-100867460D03*
X143386200Y-126267460D03*
X128146200Y-103407460D03*
X143386200Y-123727460D03*
X128146200Y-105947460D03*
X143386200Y-121187460D03*
X128146200Y-108487460D03*
X143386200Y-118647460D03*
X128146200Y-111027460D03*
X143386200Y-116107460D03*
X128146200Y-113567460D03*
X143386200Y-113567460D03*
X128146200Y-116107460D03*
X143386200Y-111027460D03*
X128146200Y-118647460D03*
X143386200Y-108487460D03*
X128146200Y-121187460D03*
X143386200Y-105947460D03*
X128146200Y-123727460D03*
X143386200Y-103407460D03*
X128146200Y-126267460D03*
X143386200Y-100867460D03*
X128146200Y-128807460D03*
D16*
X129560000Y-143580000D03*
X133520000Y-143580000D03*
X137480000Y-143580000D03*
X141440000Y-143580000D03*
X145400000Y-143580000D03*
X149360000Y-143580000D03*
X153320000Y-143580000D03*
X157280000Y-143580000D03*
X161240000Y-143580000D03*
X165200000Y-143580000D03*
X169160000Y-143580000D03*
X173120000Y-143580000D03*
X177080000Y-143580000D03*
X181040000Y-143580000D03*
X185000000Y-143580000D03*
X188960000Y-143580000D03*
X192920000Y-143580000D03*
X196880000Y-143580000D03*
X200840000Y-143580000D03*
X204800000Y-143580000D03*
X208760000Y-143580000D03*
X212720000Y-143580000D03*
D17*
X125566200Y-109007460D03*
X184966200Y-130787460D03*
X182986200Y-132767460D03*
X161206200Y-134747460D03*
X157246200Y-132767460D03*
X121606200Y-116927460D03*
X177046200Y-132767460D03*
X124276200Y-118607460D03*
D18*
X125566200Y-126227460D02*
X128146200Y-128807460D01*
X125566200Y-109007460D02*
X125566200Y-126227460D01*
X184966200Y-129067460D02*
X179626200Y-123727460D01*
X184966200Y-130787460D02*
X184966200Y-129067460D01*
X185691201Y-127252461D02*
X179626200Y-121187460D01*
X184059202Y-132767460D02*
X185691201Y-131135461D01*
X185691201Y-131135461D02*
X185691201Y-127252461D01*
X182986200Y-132767460D02*
X184059202Y-132767460D01*
X188661199Y-114692461D02*
X194866200Y-108487460D01*
X179376197Y-114692461D02*
X188661199Y-114692461D01*
X161206200Y-132862458D02*
X179376197Y-114692461D01*
X161206200Y-134747460D02*
X161206200Y-132862458D01*
X157246200Y-117267460D02*
X143386200Y-103407460D01*
X157246200Y-132767460D02*
X157246200Y-117267460D01*
X121606200Y-109947460D02*
X128146200Y-103407460D01*
X121606200Y-116927460D02*
X121606200Y-109947460D01*
X200840000Y-117001260D02*
X194866200Y-111027460D01*
X200840000Y-141040000D02*
X200840000Y-117001260D01*
X196880000Y-141040000D02*
X196880000Y-136761260D01*
X196880000Y-136761260D02*
X198826200Y-134815060D01*
X198826200Y-120067460D02*
X194866200Y-116107460D01*
X198826200Y-134815060D02*
X198826200Y-120067460D01*
X192920000Y-141040000D02*
X192920000Y-134713660D01*
X192920000Y-134713660D02*
X196846200Y-130787460D01*
X196846200Y-123167460D02*
X194866200Y-121187460D01*
X196846200Y-130787460D02*
X196846200Y-123167460D01*
X188960000Y-141040000D02*
X188960000Y-130821260D01*
X193513800Y-126267460D02*
X194866200Y-126267460D01*
X188960000Y-130821260D02*
X193513800Y-126267460D01*
X185000000Y-141040000D02*
X185000000Y-136761260D01*
X178501199Y-127392461D02*
X179626200Y-126267460D01*
X178501199Y-130262459D02*
X178501199Y-127392461D01*
X185000000Y-136761260D02*
X178501199Y-130262459D01*
X175066200Y-120667460D02*
X179626200Y-116107460D01*
X175066200Y-132767460D02*
X175066200Y-120667460D01*
X181040000Y-138741260D02*
X175066200Y-132767460D01*
X181040000Y-141040000D02*
X181040000Y-138741260D01*
X157280000Y-141040000D02*
X157280000Y-136761260D01*
X157280000Y-136761260D02*
X153286200Y-132767460D01*
X153286200Y-115847460D02*
X143386200Y-105947460D01*
X153286200Y-132767460D02*
X153286200Y-115847460D01*
X135466200Y-128807460D02*
X135466200Y-108187460D01*
X137446200Y-130787460D02*
X135466200Y-128807460D01*
X147346200Y-130787460D02*
X137446200Y-130787460D01*
X153320000Y-136761260D02*
X147346200Y-130787460D01*
X135466200Y-108187460D02*
X128146200Y-100867460D01*
X153320000Y-141040000D02*
X153320000Y-136761260D01*
X149360000Y-141040000D02*
X149360000Y-138741260D01*
X149360000Y-138741260D02*
X143386200Y-132767460D01*
X143386200Y-132767460D02*
X135466200Y-132767460D01*
X135466200Y-132767460D02*
X133486200Y-130787460D01*
X133486200Y-111287460D02*
X128146200Y-105947460D01*
X133486200Y-130787460D02*
X133486200Y-111287460D01*
X131506200Y-114387460D02*
X128146200Y-111027460D01*
X131506200Y-132767460D02*
X131506200Y-114387460D01*
X133486200Y-134747460D02*
X131506200Y-132767460D01*
X143386200Y-134747460D02*
X133486200Y-134747460D01*
X145400000Y-136761260D02*
X143386200Y-134747460D01*
X145400000Y-141040000D02*
X145400000Y-136761260D01*
X193486200Y-99707460D02*
X179626200Y-113567460D01*
X204766200Y-99707460D02*
X193486200Y-99707460D01*
X165200000Y-141040000D02*
X165200000Y-137433660D01*
X165200000Y-137433660D02*
X164526200Y-136759860D01*
X164526200Y-136759860D02*
X160428600Y-136759860D01*
X160428600Y-136759860D02*
X159276200Y-135607460D01*
X159276200Y-135607460D02*
X159276200Y-111857460D01*
X159276200Y-111857460D02*
X144276200Y-96857460D01*
X144276200Y-96857460D02*
X126776200Y-96857460D01*
X115131200Y-108502460D02*
X115131200Y-132752460D01*
X126776200Y-96857460D02*
X115131200Y-108502460D01*
X115131200Y-132752460D02*
X117526200Y-135147460D01*
X115026200Y-132647460D02*
X115131200Y-132752460D01*
X179626200Y-118647460D02*
X177046200Y-121227460D01*
X177046200Y-124847460D02*
X177046200Y-132767460D01*
X177046200Y-121227460D02*
X177046200Y-124847460D01*
X117526200Y-125357460D02*
X124276200Y-118607460D01*
X117526200Y-132607460D02*
X117526200Y-125357460D01*
M02*
