G04 #@! TF.GenerationSoftware,KiCad,Pcbnew,(5.1.12)-1*
G04 #@! TF.CreationDate,2022-10-28T14:48:17+01:00*
G04 #@! TF.ProjectId,Apple-1 EPROM,4170706c-652d-4312-9045-50524f4d2e6b,rev?*
G04 #@! TF.SameCoordinates,Original*
G04 #@! TF.FileFunction,Legend,Top*
G04 #@! TF.FilePolarity,Positive*
%FSLAX46Y46*%
G04 Gerber Fmt 4.6, Leading zero omitted, Abs format (unit mm)*
G04 Created by KiCad (PCBNEW (5.1.12)-1) date 2022-10-28 14:48:17*
%MOMM*%
%LPD*%
G01*
G04 APERTURE LIST*
%ADD10C,0.300000*%
%ADD11C,0.150000*%
%ADD12C,0.120000*%
%ADD13C,3.200000*%
%ADD14R,1.700000X1.700000*%
%ADD15O,1.700000X1.700000*%
%ADD16R,1.600000X1.600000*%
%ADD17O,1.600000X1.600000*%
%ADD18C,2.400000*%
%ADD19O,2.400000X2.400000*%
%ADD20R,2.540000X10.000000*%
G04 APERTURE END LIST*
D10*
X145311914Y-131036031D02*
X145311914Y-129536031D01*
X145883342Y-129536031D01*
X146026200Y-129607460D01*
X146097628Y-129678888D01*
X146169057Y-129821745D01*
X146169057Y-130036031D01*
X146097628Y-130178888D01*
X146026200Y-130250317D01*
X145883342Y-130321745D01*
X145311914Y-130321745D01*
X146811914Y-131036031D02*
X146811914Y-130036031D01*
X146811914Y-129536031D02*
X146740485Y-129607460D01*
X146811914Y-129678888D01*
X146883342Y-129607460D01*
X146811914Y-129536031D01*
X146811914Y-129678888D01*
X147526200Y-130036031D02*
X147526200Y-131036031D01*
X147526200Y-130178888D02*
X147597628Y-130107460D01*
X147740485Y-130036031D01*
X147954771Y-130036031D01*
X148097628Y-130107460D01*
X148169057Y-130250317D01*
X148169057Y-131036031D01*
X150811914Y-131036031D02*
X149954771Y-131036031D01*
X150383342Y-131036031D02*
X150383342Y-129536031D01*
X150240485Y-129750317D01*
X150097628Y-129893174D01*
X149954771Y-129964602D01*
X196811914Y-131286031D02*
X196811914Y-129786031D01*
X197383342Y-129786031D01*
X197526200Y-129857460D01*
X197597628Y-129928888D01*
X197669057Y-130071745D01*
X197669057Y-130286031D01*
X197597628Y-130428888D01*
X197526200Y-130500317D01*
X197383342Y-130571745D01*
X196811914Y-130571745D01*
X198311914Y-131286031D02*
X198311914Y-130286031D01*
X198311914Y-129786031D02*
X198240485Y-129857460D01*
X198311914Y-129928888D01*
X198383342Y-129857460D01*
X198311914Y-129786031D01*
X198311914Y-129928888D01*
X199026200Y-130286031D02*
X199026200Y-131286031D01*
X199026200Y-130428888D02*
X199097628Y-130357460D01*
X199240485Y-130286031D01*
X199454771Y-130286031D01*
X199597628Y-130357460D01*
X199669057Y-130500317D01*
X199669057Y-131286031D01*
X202311914Y-131286031D02*
X201454771Y-131286031D01*
X201883342Y-131286031D02*
X201883342Y-129786031D01*
X201740485Y-130000317D01*
X201597628Y-130143174D01*
X201454771Y-130214602D01*
X146954771Y-113236031D02*
X146954771Y-111736031D01*
X147811914Y-113236031D01*
X147811914Y-111736031D01*
X148811914Y-111736031D02*
X149097628Y-111736031D01*
X149240485Y-111807460D01*
X149383342Y-111950317D01*
X149454771Y-112236031D01*
X149454771Y-112736031D01*
X149383342Y-113021745D01*
X149240485Y-113164602D01*
X149097628Y-113236031D01*
X148811914Y-113236031D01*
X148669057Y-113164602D01*
X148526200Y-113021745D01*
X148454771Y-112736031D01*
X148454771Y-112236031D01*
X148526200Y-111950317D01*
X148669057Y-111807460D01*
X148811914Y-111736031D01*
X149883342Y-111736031D02*
X150740485Y-111736031D01*
X150311914Y-113236031D02*
X150311914Y-111736031D01*
X151240485Y-112450317D02*
X151740485Y-112450317D01*
X151954771Y-113236031D02*
X151240485Y-113236031D01*
X151240485Y-111736031D01*
X151954771Y-111736031D01*
X153740485Y-112664602D02*
X154883342Y-112664602D01*
X156740485Y-112450317D02*
X157240485Y-112450317D01*
X157454771Y-113236031D02*
X156740485Y-113236031D01*
X156740485Y-111736031D01*
X157454771Y-111736031D01*
X158097628Y-113236031D02*
X158097628Y-111736031D01*
X158669057Y-111736031D01*
X158811914Y-111807460D01*
X158883342Y-111878888D01*
X158954771Y-112021745D01*
X158954771Y-112236031D01*
X158883342Y-112378888D01*
X158811914Y-112450317D01*
X158669057Y-112521745D01*
X158097628Y-112521745D01*
X160454771Y-113236031D02*
X159954771Y-112521745D01*
X159597628Y-113236031D02*
X159597628Y-111736031D01*
X160169057Y-111736031D01*
X160311914Y-111807460D01*
X160383342Y-111878888D01*
X160454771Y-112021745D01*
X160454771Y-112236031D01*
X160383342Y-112378888D01*
X160311914Y-112450317D01*
X160169057Y-112521745D01*
X159597628Y-112521745D01*
X161383342Y-111736031D02*
X161669057Y-111736031D01*
X161811914Y-111807460D01*
X161954771Y-111950317D01*
X162026200Y-112236031D01*
X162026200Y-112736031D01*
X161954771Y-113021745D01*
X161811914Y-113164602D01*
X161669057Y-113236031D01*
X161383342Y-113236031D01*
X161240485Y-113164602D01*
X161097628Y-113021745D01*
X161026200Y-112736031D01*
X161026200Y-112236031D01*
X161097628Y-111950317D01*
X161240485Y-111807460D01*
X161383342Y-111736031D01*
X162669057Y-113236031D02*
X162669057Y-111736031D01*
X163169057Y-112807460D01*
X163669057Y-111736031D01*
X163669057Y-113236031D01*
X164311914Y-113164602D02*
X164526200Y-113236031D01*
X164883342Y-113236031D01*
X165026200Y-113164602D01*
X165097628Y-113093174D01*
X165169057Y-112950317D01*
X165169057Y-112807460D01*
X165097628Y-112664602D01*
X165026200Y-112593174D01*
X164883342Y-112521745D01*
X164597628Y-112450317D01*
X164454771Y-112378888D01*
X164383342Y-112307460D01*
X164311914Y-112164602D01*
X164311914Y-112021745D01*
X164383342Y-111878888D01*
X164454771Y-111807460D01*
X164597628Y-111736031D01*
X164954771Y-111736031D01*
X165169057Y-111807460D01*
X166954771Y-113236031D02*
X166954771Y-111736031D01*
X167454771Y-112807460D01*
X167954771Y-111736031D01*
X167954771Y-113236031D01*
X168669057Y-111736031D02*
X168669057Y-112950317D01*
X168740485Y-113093174D01*
X168811914Y-113164602D01*
X168954771Y-113236031D01*
X169240485Y-113236031D01*
X169383342Y-113164602D01*
X169454771Y-113093174D01*
X169526200Y-112950317D01*
X169526200Y-111736031D01*
X170169057Y-113164602D02*
X170383342Y-113236031D01*
X170740485Y-113236031D01*
X170883342Y-113164602D01*
X170954771Y-113093174D01*
X171026200Y-112950317D01*
X171026200Y-112807460D01*
X170954771Y-112664602D01*
X170883342Y-112593174D01*
X170740485Y-112521745D01*
X170454771Y-112450317D01*
X170311914Y-112378888D01*
X170240485Y-112307460D01*
X170169057Y-112164602D01*
X170169057Y-112021745D01*
X170240485Y-111878888D01*
X170311914Y-111807460D01*
X170454771Y-111736031D01*
X170811914Y-111736031D01*
X171026200Y-111807460D01*
X171454771Y-111736031D02*
X172311914Y-111736031D01*
X171883342Y-113236031D02*
X171883342Y-111736031D01*
X174454771Y-112450317D02*
X174669057Y-112521745D01*
X174740485Y-112593174D01*
X174811914Y-112736031D01*
X174811914Y-112950317D01*
X174740485Y-113093174D01*
X174669057Y-113164602D01*
X174526200Y-113236031D01*
X173954771Y-113236031D01*
X173954771Y-111736031D01*
X174454771Y-111736031D01*
X174597628Y-111807460D01*
X174669057Y-111878888D01*
X174740485Y-112021745D01*
X174740485Y-112164602D01*
X174669057Y-112307460D01*
X174597628Y-112378888D01*
X174454771Y-112450317D01*
X173954771Y-112450317D01*
X175454771Y-112450317D02*
X175954771Y-112450317D01*
X176169057Y-113236031D02*
X175454771Y-113236031D01*
X175454771Y-111736031D01*
X176169057Y-111736031D01*
X147490485Y-115786031D02*
X147490485Y-114286031D01*
X148204771Y-115786031D02*
X148204771Y-114286031D01*
X149061914Y-115786031D01*
X149061914Y-114286031D01*
X149704771Y-115714602D02*
X149919057Y-115786031D01*
X150276200Y-115786031D01*
X150419057Y-115714602D01*
X150490485Y-115643174D01*
X150561914Y-115500317D01*
X150561914Y-115357460D01*
X150490485Y-115214602D01*
X150419057Y-115143174D01*
X150276200Y-115071745D01*
X149990485Y-115000317D01*
X149847628Y-114928888D01*
X149776200Y-114857460D01*
X149704771Y-114714602D01*
X149704771Y-114571745D01*
X149776200Y-114428888D01*
X149847628Y-114357460D01*
X149990485Y-114286031D01*
X150347628Y-114286031D01*
X150561914Y-114357460D01*
X150990485Y-114286031D02*
X151847628Y-114286031D01*
X151419057Y-115786031D02*
X151419057Y-114286031D01*
X152276200Y-115357460D02*
X152990485Y-115357460D01*
X152133342Y-115786031D02*
X152633342Y-114286031D01*
X153133342Y-115786031D01*
X154347628Y-115786031D02*
X153633342Y-115786031D01*
X153633342Y-114286031D01*
X155561914Y-115786031D02*
X154847628Y-115786031D01*
X154847628Y-114286031D01*
X156061914Y-115000317D02*
X156561914Y-115000317D01*
X156776200Y-115786031D02*
X156061914Y-115786031D01*
X156061914Y-114286031D01*
X156776200Y-114286031D01*
X157419057Y-115786031D02*
X157419057Y-114286031D01*
X157776200Y-114286031D01*
X157990485Y-114357460D01*
X158133342Y-114500317D01*
X158204771Y-114643174D01*
X158276200Y-114928888D01*
X158276200Y-115143174D01*
X158204771Y-115428888D01*
X158133342Y-115571745D01*
X157990485Y-115714602D01*
X157776200Y-115786031D01*
X157419057Y-115786031D01*
X159919057Y-114286031D02*
X160276200Y-115786031D01*
X160561914Y-114714602D01*
X160847628Y-115786031D01*
X161204771Y-114286031D01*
X161776200Y-115786031D02*
X161776200Y-114286031D01*
X162276200Y-114286031D02*
X163133342Y-114286031D01*
X162704771Y-115786031D02*
X162704771Y-114286031D01*
X163633342Y-115786031D02*
X163633342Y-114286031D01*
X163633342Y-115000317D02*
X164490485Y-115000317D01*
X164490485Y-115786031D02*
X164490485Y-114286031D01*
X166347628Y-115786031D02*
X166347628Y-114286031D01*
X166919057Y-114286031D01*
X167061914Y-114357460D01*
X167133342Y-114428888D01*
X167204771Y-114571745D01*
X167204771Y-114786031D01*
X167133342Y-114928888D01*
X167061914Y-115000317D01*
X166919057Y-115071745D01*
X166347628Y-115071745D01*
X167847628Y-115786031D02*
X167847628Y-114286031D01*
X168561914Y-115786031D02*
X168561914Y-114286031D01*
X169419057Y-115786031D01*
X169419057Y-114286031D01*
X172061914Y-115786031D02*
X171204771Y-115786031D01*
X171633342Y-115786031D02*
X171633342Y-114286031D01*
X171490485Y-114500317D01*
X171347628Y-114643174D01*
X171204771Y-114714602D01*
X173776200Y-115357460D02*
X174490485Y-115357460D01*
X173633342Y-115786031D02*
X174133342Y-114286031D01*
X174633342Y-115786031D01*
X174919057Y-114286031D02*
X175776200Y-114286031D01*
X175347628Y-115786031D02*
X175347628Y-114286031D01*
X155311914Y-116836031D02*
X156169057Y-116836031D01*
X155740485Y-118336031D02*
X155740485Y-116836031D01*
X156669057Y-118336031D02*
X156669057Y-116836031D01*
X156669057Y-117550317D02*
X157526200Y-117550317D01*
X157526200Y-118336031D02*
X157526200Y-116836031D01*
X158240485Y-117550317D02*
X158740485Y-117550317D01*
X158954771Y-118336031D02*
X158240485Y-118336031D01*
X158240485Y-116836031D01*
X158954771Y-116836031D01*
X161240485Y-117550317D02*
X161454771Y-117621745D01*
X161526200Y-117693174D01*
X161597628Y-117836031D01*
X161597628Y-118050317D01*
X161526200Y-118193174D01*
X161454771Y-118264602D01*
X161311914Y-118336031D01*
X160740485Y-118336031D01*
X160740485Y-116836031D01*
X161240485Y-116836031D01*
X161383342Y-116907460D01*
X161454771Y-116978888D01*
X161526200Y-117121745D01*
X161526200Y-117264602D01*
X161454771Y-117407460D01*
X161383342Y-117478888D01*
X161240485Y-117550317D01*
X160740485Y-117550317D01*
X162526200Y-116836031D02*
X162811914Y-116836031D01*
X162954771Y-116907460D01*
X163097628Y-117050317D01*
X163169057Y-117336031D01*
X163169057Y-117836031D01*
X163097628Y-118121745D01*
X162954771Y-118264602D01*
X162811914Y-118336031D01*
X162526200Y-118336031D01*
X162383342Y-118264602D01*
X162240485Y-118121745D01*
X162169057Y-117836031D01*
X162169057Y-117336031D01*
X162240485Y-117050317D01*
X162383342Y-116907460D01*
X162526200Y-116836031D01*
X163597628Y-116836031D02*
X164454771Y-116836031D01*
X164026200Y-118336031D02*
X164026200Y-116836031D01*
X164740485Y-116836031D02*
X165597628Y-116836031D01*
X165169057Y-118336031D02*
X165169057Y-116836031D01*
X166383342Y-116836031D02*
X166669057Y-116836031D01*
X166811914Y-116907460D01*
X166954771Y-117050317D01*
X167026200Y-117336031D01*
X167026200Y-117836031D01*
X166954771Y-118121745D01*
X166811914Y-118264602D01*
X166669057Y-118336031D01*
X166383342Y-118336031D01*
X166240485Y-118264602D01*
X166097628Y-118121745D01*
X166026200Y-117836031D01*
X166026200Y-117336031D01*
X166097628Y-117050317D01*
X166240485Y-116907460D01*
X166383342Y-116836031D01*
X167669057Y-118336031D02*
X167669057Y-116836031D01*
X168169057Y-117907460D01*
X168669057Y-116836031D01*
X168669057Y-118336031D01*
X204454771Y-105536031D02*
X203597628Y-105536031D01*
X204026200Y-105536031D02*
X204026200Y-104036031D01*
X203883342Y-104250317D01*
X203740485Y-104393174D01*
X203597628Y-104464602D01*
X205097628Y-105536031D02*
X205097628Y-104036031D01*
X205954771Y-105536031D02*
X205311914Y-104678888D01*
X205954771Y-104036031D02*
X205097628Y-104893174D01*
D11*
X170978580Y-135437221D02*
X171121438Y-135484840D01*
X171359533Y-135484840D01*
X171454771Y-135437221D01*
X171502390Y-135389602D01*
X171550009Y-135294364D01*
X171550009Y-135199126D01*
X171502390Y-135103888D01*
X171454771Y-135056269D01*
X171359533Y-135008650D01*
X171169057Y-134961031D01*
X171073819Y-134913412D01*
X171026200Y-134865793D01*
X170978580Y-134770555D01*
X170978580Y-134675317D01*
X171026200Y-134580079D01*
X171073819Y-134532460D01*
X171169057Y-134484840D01*
X171407152Y-134484840D01*
X171550009Y-134532460D01*
X172692866Y-135199126D02*
X173169057Y-135199126D01*
X172597628Y-135484840D02*
X172930961Y-134484840D01*
X173264295Y-135484840D01*
X174026200Y-135484840D02*
X174026200Y-134484840D01*
X174026200Y-135437221D02*
X173930961Y-135484840D01*
X173740485Y-135484840D01*
X173645247Y-135437221D01*
X173597628Y-135389602D01*
X173550009Y-135294364D01*
X173550009Y-135008650D01*
X173597628Y-134913412D01*
X173645247Y-134865793D01*
X173740485Y-134818174D01*
X173930961Y-134818174D01*
X174026200Y-134865793D01*
X174930961Y-135484840D02*
X174930961Y-134484840D01*
X174930961Y-135437221D02*
X174835723Y-135484840D01*
X174645247Y-135484840D01*
X174550009Y-135437221D01*
X174502390Y-135389602D01*
X174454771Y-135294364D01*
X174454771Y-135008650D01*
X174502390Y-134913412D01*
X174550009Y-134865793D01*
X174645247Y-134818174D01*
X174835723Y-134818174D01*
X174930961Y-134865793D01*
X175407152Y-135484840D02*
X175407152Y-134818174D01*
X175407152Y-135008650D02*
X175454771Y-134913412D01*
X175502390Y-134865793D01*
X175597628Y-134818174D01*
X175692866Y-134818174D01*
X176407152Y-135437221D02*
X176311914Y-135484840D01*
X176121438Y-135484840D01*
X176026200Y-135437221D01*
X175978580Y-135341983D01*
X175978580Y-134961031D01*
X176026200Y-134865793D01*
X176121438Y-134818174D01*
X176311914Y-134818174D01*
X176407152Y-134865793D01*
X176454771Y-134961031D01*
X176454771Y-135056269D01*
X175978580Y-135151507D01*
X176835723Y-135437221D02*
X176930961Y-135484840D01*
X177121438Y-135484840D01*
X177216676Y-135437221D01*
X177264295Y-135341983D01*
X177264295Y-135294364D01*
X177216676Y-135199126D01*
X177121438Y-135151507D01*
X176978580Y-135151507D01*
X176883342Y-135103888D01*
X176835723Y-135008650D01*
X176835723Y-134961031D01*
X176883342Y-134865793D01*
X176978580Y-134818174D01*
X177121438Y-134818174D01*
X177216676Y-134865793D01*
X177645247Y-135437221D02*
X177740485Y-135484840D01*
X177930961Y-135484840D01*
X178026200Y-135437221D01*
X178073819Y-135341983D01*
X178073819Y-135294364D01*
X178026200Y-135199126D01*
X177930961Y-135151507D01*
X177788104Y-135151507D01*
X177692866Y-135103888D01*
X177645247Y-135008650D01*
X177645247Y-134961031D01*
X177692866Y-134865793D01*
X177788104Y-134818174D01*
X177930961Y-134818174D01*
X178026200Y-134865793D01*
X172502390Y-136468174D02*
X172883342Y-136468174D01*
X172645247Y-136134840D02*
X172645247Y-136991983D01*
X172692866Y-137087221D01*
X172788104Y-137134840D01*
X172883342Y-137134840D01*
X173359533Y-137134840D02*
X173264295Y-137087221D01*
X173216676Y-137039602D01*
X173169057Y-136944364D01*
X173169057Y-136658650D01*
X173216676Y-136563412D01*
X173264295Y-136515793D01*
X173359533Y-136468174D01*
X173502390Y-136468174D01*
X173597628Y-136515793D01*
X173645247Y-136563412D01*
X173692866Y-136658650D01*
X173692866Y-136944364D01*
X173645247Y-137039602D01*
X173597628Y-137087221D01*
X173502390Y-137134840D01*
X173359533Y-137134840D01*
X174883342Y-136134840D02*
X174883342Y-136944364D01*
X174930961Y-137039602D01*
X174978580Y-137087221D01*
X175073819Y-137134840D01*
X175264295Y-137134840D01*
X175359533Y-137087221D01*
X175407152Y-137039602D01*
X175454771Y-136944364D01*
X175454771Y-136134840D01*
X176454771Y-137134840D02*
X175883342Y-137134840D01*
X176169057Y-137134840D02*
X176169057Y-136134840D01*
X176073819Y-136277698D01*
X175978580Y-136372936D01*
X175883342Y-136420555D01*
X119478580Y-134484840D02*
X120050009Y-134484840D01*
X119764295Y-135484840D02*
X119764295Y-134484840D01*
X121097628Y-135199126D02*
X121573819Y-135199126D01*
X121002390Y-135484840D02*
X121335723Y-134484840D01*
X121669057Y-135484840D01*
X122430961Y-135484840D02*
X122430961Y-134484840D01*
X122430961Y-135437221D02*
X122335723Y-135484840D01*
X122145247Y-135484840D01*
X122050009Y-135437221D01*
X122002390Y-135389602D01*
X121954771Y-135294364D01*
X121954771Y-135008650D01*
X122002390Y-134913412D01*
X122050009Y-134865793D01*
X122145247Y-134818174D01*
X122335723Y-134818174D01*
X122430961Y-134865793D01*
X123335723Y-135484840D02*
X123335723Y-134484840D01*
X123335723Y-135437221D02*
X123240485Y-135484840D01*
X123050009Y-135484840D01*
X122954771Y-135437221D01*
X122907152Y-135389602D01*
X122859533Y-135294364D01*
X122859533Y-135008650D01*
X122907152Y-134913412D01*
X122954771Y-134865793D01*
X123050009Y-134818174D01*
X123240485Y-134818174D01*
X123335723Y-134865793D01*
X123811914Y-135484840D02*
X123811914Y-134818174D01*
X123811914Y-135008650D02*
X123859533Y-134913412D01*
X123907152Y-134865793D01*
X124002390Y-134818174D01*
X124097628Y-134818174D01*
X124811914Y-135437221D02*
X124716676Y-135484840D01*
X124526200Y-135484840D01*
X124430961Y-135437221D01*
X124383342Y-135341983D01*
X124383342Y-134961031D01*
X124430961Y-134865793D01*
X124526200Y-134818174D01*
X124716676Y-134818174D01*
X124811914Y-134865793D01*
X124859533Y-134961031D01*
X124859533Y-135056269D01*
X124383342Y-135151507D01*
X125240485Y-135437221D02*
X125335723Y-135484840D01*
X125526200Y-135484840D01*
X125621438Y-135437221D01*
X125669057Y-135341983D01*
X125669057Y-135294364D01*
X125621438Y-135199126D01*
X125526200Y-135151507D01*
X125383342Y-135151507D01*
X125288104Y-135103888D01*
X125240485Y-135008650D01*
X125240485Y-134961031D01*
X125288104Y-134865793D01*
X125383342Y-134818174D01*
X125526200Y-134818174D01*
X125621438Y-134865793D01*
X126050009Y-135437221D02*
X126145247Y-135484840D01*
X126335723Y-135484840D01*
X126430961Y-135437221D01*
X126478580Y-135341983D01*
X126478580Y-135294364D01*
X126430961Y-135199126D01*
X126335723Y-135151507D01*
X126192866Y-135151507D01*
X126097628Y-135103888D01*
X126050009Y-135008650D01*
X126050009Y-134961031D01*
X126097628Y-134865793D01*
X126192866Y-134818174D01*
X126335723Y-134818174D01*
X126430961Y-134865793D01*
X121002390Y-136468174D02*
X121383342Y-136468174D01*
X121145247Y-136134840D02*
X121145247Y-136991983D01*
X121192866Y-137087221D01*
X121288104Y-137134840D01*
X121383342Y-137134840D01*
X121859533Y-137134840D02*
X121764295Y-137087221D01*
X121716676Y-137039602D01*
X121669057Y-136944364D01*
X121669057Y-136658650D01*
X121716676Y-136563412D01*
X121764295Y-136515793D01*
X121859533Y-136468174D01*
X122002390Y-136468174D01*
X122097628Y-136515793D01*
X122145247Y-136563412D01*
X122192866Y-136658650D01*
X122192866Y-136944364D01*
X122145247Y-137039602D01*
X122097628Y-137087221D01*
X122002390Y-137134840D01*
X121859533Y-137134840D01*
X123383342Y-136134840D02*
X123383342Y-136944364D01*
X123430961Y-137039602D01*
X123478580Y-137087221D01*
X123573819Y-137134840D01*
X123764295Y-137134840D01*
X123859533Y-137087221D01*
X123907152Y-137039602D01*
X123954771Y-136944364D01*
X123954771Y-136134840D01*
X124383342Y-136230079D02*
X124430961Y-136182460D01*
X124526200Y-136134840D01*
X124764295Y-136134840D01*
X124859533Y-136182460D01*
X124907152Y-136230079D01*
X124954771Y-136325317D01*
X124954771Y-136420555D01*
X124907152Y-136563412D01*
X124335723Y-137134840D01*
X124954771Y-137134840D01*
X182303342Y-98655079D02*
X182350961Y-98607460D01*
X182446200Y-98559840D01*
X182684295Y-98559840D01*
X182779533Y-98607460D01*
X182827152Y-98655079D01*
X182874771Y-98750317D01*
X182874771Y-98845555D01*
X182827152Y-98988412D01*
X182255723Y-99559840D01*
X182874771Y-99559840D01*
X183208104Y-98559840D02*
X183874771Y-98559840D01*
X183446200Y-99559840D01*
X184160485Y-98559840D02*
X184779533Y-98559840D01*
X184446200Y-98940793D01*
X184589057Y-98940793D01*
X184684295Y-98988412D01*
X184731914Y-99036031D01*
X184779533Y-99131269D01*
X184779533Y-99369364D01*
X184731914Y-99464602D01*
X184684295Y-99512221D01*
X184589057Y-99559840D01*
X184303342Y-99559840D01*
X184208104Y-99512221D01*
X184160485Y-99464602D01*
X185160485Y-98655079D02*
X185208104Y-98607460D01*
X185303342Y-98559840D01*
X185541438Y-98559840D01*
X185636676Y-98607460D01*
X185684295Y-98655079D01*
X185731914Y-98750317D01*
X185731914Y-98845555D01*
X185684295Y-98988412D01*
X185112866Y-99559840D01*
X185731914Y-99559840D01*
X186922390Y-99036031D02*
X187255723Y-99036031D01*
X187398580Y-99559840D02*
X186922390Y-99559840D01*
X186922390Y-98559840D01*
X187398580Y-98559840D01*
X187827152Y-99559840D02*
X187827152Y-98559840D01*
X188208104Y-98559840D01*
X188303342Y-98607460D01*
X188350961Y-98655079D01*
X188398580Y-98750317D01*
X188398580Y-98893174D01*
X188350961Y-98988412D01*
X188303342Y-99036031D01*
X188208104Y-99083650D01*
X187827152Y-99083650D01*
X189398580Y-99559840D02*
X189065247Y-99083650D01*
X188827152Y-99559840D02*
X188827152Y-98559840D01*
X189208104Y-98559840D01*
X189303342Y-98607460D01*
X189350961Y-98655079D01*
X189398580Y-98750317D01*
X189398580Y-98893174D01*
X189350961Y-98988412D01*
X189303342Y-99036031D01*
X189208104Y-99083650D01*
X188827152Y-99083650D01*
X190017628Y-98559840D02*
X190208104Y-98559840D01*
X190303342Y-98607460D01*
X190398580Y-98702698D01*
X190446200Y-98893174D01*
X190446200Y-99226507D01*
X190398580Y-99416983D01*
X190303342Y-99512221D01*
X190208104Y-99559840D01*
X190017628Y-99559840D01*
X189922390Y-99512221D01*
X189827152Y-99416983D01*
X189779533Y-99226507D01*
X189779533Y-98893174D01*
X189827152Y-98702698D01*
X189922390Y-98607460D01*
X190017628Y-98559840D01*
X190874771Y-99559840D02*
X190874771Y-98559840D01*
X191208104Y-99274126D01*
X191541438Y-98559840D01*
X191541438Y-99559840D01*
X130823342Y-98655079D02*
X130870961Y-98607460D01*
X130966200Y-98559840D01*
X131204295Y-98559840D01*
X131299533Y-98607460D01*
X131347152Y-98655079D01*
X131394771Y-98750317D01*
X131394771Y-98845555D01*
X131347152Y-98988412D01*
X130775723Y-99559840D01*
X131394771Y-99559840D01*
X131728104Y-98559840D02*
X132394771Y-98559840D01*
X131966200Y-99559840D01*
X132680485Y-98559840D02*
X133299533Y-98559840D01*
X132966200Y-98940793D01*
X133109057Y-98940793D01*
X133204295Y-98988412D01*
X133251914Y-99036031D01*
X133299533Y-99131269D01*
X133299533Y-99369364D01*
X133251914Y-99464602D01*
X133204295Y-99512221D01*
X133109057Y-99559840D01*
X132823342Y-99559840D01*
X132728104Y-99512221D01*
X132680485Y-99464602D01*
X133680485Y-98655079D02*
X133728104Y-98607460D01*
X133823342Y-98559840D01*
X134061438Y-98559840D01*
X134156676Y-98607460D01*
X134204295Y-98655079D01*
X134251914Y-98750317D01*
X134251914Y-98845555D01*
X134204295Y-98988412D01*
X133632866Y-99559840D01*
X134251914Y-99559840D01*
X135442390Y-99036031D02*
X135775723Y-99036031D01*
X135918580Y-99559840D02*
X135442390Y-99559840D01*
X135442390Y-98559840D01*
X135918580Y-98559840D01*
X136347152Y-99559840D02*
X136347152Y-98559840D01*
X136728104Y-98559840D01*
X136823342Y-98607460D01*
X136870961Y-98655079D01*
X136918580Y-98750317D01*
X136918580Y-98893174D01*
X136870961Y-98988412D01*
X136823342Y-99036031D01*
X136728104Y-99083650D01*
X136347152Y-99083650D01*
X137918580Y-99559840D02*
X137585247Y-99083650D01*
X137347152Y-99559840D02*
X137347152Y-98559840D01*
X137728104Y-98559840D01*
X137823342Y-98607460D01*
X137870961Y-98655079D01*
X137918580Y-98750317D01*
X137918580Y-98893174D01*
X137870961Y-98988412D01*
X137823342Y-99036031D01*
X137728104Y-99083650D01*
X137347152Y-99083650D01*
X138537628Y-98559840D02*
X138728104Y-98559840D01*
X138823342Y-98607460D01*
X138918580Y-98702698D01*
X138966200Y-98893174D01*
X138966200Y-99226507D01*
X138918580Y-99416983D01*
X138823342Y-99512221D01*
X138728104Y-99559840D01*
X138537628Y-99559840D01*
X138442390Y-99512221D01*
X138347152Y-99416983D01*
X138299533Y-99226507D01*
X138299533Y-98893174D01*
X138347152Y-98702698D01*
X138442390Y-98607460D01*
X138537628Y-98559840D01*
X139394771Y-99559840D02*
X139394771Y-98559840D01*
X139728104Y-99274126D01*
X140061438Y-98559840D01*
X140061438Y-99559840D01*
D10*
X158633342Y-102832460D02*
X159347628Y-102832460D01*
X158490485Y-103261031D02*
X158990485Y-101761031D01*
X159490485Y-103261031D01*
X159990485Y-102261031D02*
X159990485Y-103761031D01*
X159990485Y-102332460D02*
X160133342Y-102261031D01*
X160419057Y-102261031D01*
X160561914Y-102332460D01*
X160633342Y-102403888D01*
X160704771Y-102546745D01*
X160704771Y-102975317D01*
X160633342Y-103118174D01*
X160561914Y-103189602D01*
X160419057Y-103261031D01*
X160133342Y-103261031D01*
X159990485Y-103189602D01*
X161347628Y-102261031D02*
X161347628Y-103761031D01*
X161347628Y-102332460D02*
X161490485Y-102261031D01*
X161776200Y-102261031D01*
X161919057Y-102332460D01*
X161990485Y-102403888D01*
X162061914Y-102546745D01*
X162061914Y-102975317D01*
X161990485Y-103118174D01*
X161919057Y-103189602D01*
X161776200Y-103261031D01*
X161490485Y-103261031D01*
X161347628Y-103189602D01*
X162919057Y-103261031D02*
X162776200Y-103189602D01*
X162704771Y-103046745D01*
X162704771Y-101761031D01*
X164061914Y-103189602D02*
X163919057Y-103261031D01*
X163633342Y-103261031D01*
X163490485Y-103189602D01*
X163419057Y-103046745D01*
X163419057Y-102475317D01*
X163490485Y-102332460D01*
X163633342Y-102261031D01*
X163919057Y-102261031D01*
X164061914Y-102332460D01*
X164133342Y-102475317D01*
X164133342Y-102618174D01*
X163419057Y-102761031D01*
X164776200Y-102689602D02*
X165919057Y-102689602D01*
X167419057Y-103261031D02*
X166561914Y-103261031D01*
X166990485Y-103261031D02*
X166990485Y-101761031D01*
X166847628Y-101975317D01*
X166704771Y-102118174D01*
X166561914Y-102189602D01*
X156419057Y-105025317D02*
X156919057Y-105025317D01*
X157133342Y-105811031D02*
X156419057Y-105811031D01*
X156419057Y-104311031D01*
X157133342Y-104311031D01*
X157776200Y-105811031D02*
X157776200Y-104311031D01*
X158347628Y-104311031D01*
X158490485Y-104382460D01*
X158561914Y-104453888D01*
X158633342Y-104596745D01*
X158633342Y-104811031D01*
X158561914Y-104953888D01*
X158490485Y-105025317D01*
X158347628Y-105096745D01*
X157776200Y-105096745D01*
X160133342Y-105811031D02*
X159633342Y-105096745D01*
X159276200Y-105811031D02*
X159276200Y-104311031D01*
X159847628Y-104311031D01*
X159990485Y-104382460D01*
X160061914Y-104453888D01*
X160133342Y-104596745D01*
X160133342Y-104811031D01*
X160061914Y-104953888D01*
X159990485Y-105025317D01*
X159847628Y-105096745D01*
X159276200Y-105096745D01*
X161061914Y-104311031D02*
X161347628Y-104311031D01*
X161490485Y-104382460D01*
X161633342Y-104525317D01*
X161704771Y-104811031D01*
X161704771Y-105311031D01*
X161633342Y-105596745D01*
X161490485Y-105739602D01*
X161347628Y-105811031D01*
X161061914Y-105811031D01*
X160919057Y-105739602D01*
X160776200Y-105596745D01*
X160704771Y-105311031D01*
X160704771Y-104811031D01*
X160776200Y-104525317D01*
X160919057Y-104382460D01*
X161061914Y-104311031D01*
X162347628Y-105811031D02*
X162347628Y-104311031D01*
X162847628Y-105382460D01*
X163347628Y-104311031D01*
X163347628Y-105811031D01*
X166061914Y-105668174D02*
X165990485Y-105739602D01*
X165776200Y-105811031D01*
X165633342Y-105811031D01*
X165419057Y-105739602D01*
X165276200Y-105596745D01*
X165204771Y-105453888D01*
X165133342Y-105168174D01*
X165133342Y-104953888D01*
X165204771Y-104668174D01*
X165276200Y-104525317D01*
X165419057Y-104382460D01*
X165633342Y-104311031D01*
X165776200Y-104311031D01*
X165990485Y-104382460D01*
X166061914Y-104453888D01*
X167347628Y-105811031D02*
X167347628Y-105025317D01*
X167276200Y-104882460D01*
X167133342Y-104811031D01*
X166847628Y-104811031D01*
X166704771Y-104882460D01*
X167347628Y-105739602D02*
X167204771Y-105811031D01*
X166847628Y-105811031D01*
X166704771Y-105739602D01*
X166633342Y-105596745D01*
X166633342Y-105453888D01*
X166704771Y-105311031D01*
X166847628Y-105239602D01*
X167204771Y-105239602D01*
X167347628Y-105168174D01*
X168061914Y-105811031D02*
X168061914Y-104811031D01*
X168061914Y-105096745D02*
X168133342Y-104953888D01*
X168204771Y-104882460D01*
X168347628Y-104811031D01*
X168490485Y-104811031D01*
X169633342Y-105811031D02*
X169633342Y-104311031D01*
X169633342Y-105739602D02*
X169490485Y-105811031D01*
X169204771Y-105811031D01*
X169061914Y-105739602D01*
X168990485Y-105668174D01*
X168919057Y-105525317D01*
X168919057Y-105096745D01*
X168990485Y-104953888D01*
X169061914Y-104882460D01*
X169204771Y-104811031D01*
X169490485Y-104811031D01*
X169633342Y-104882460D01*
D12*
X116196200Y-136477460D02*
X118856200Y-136477460D01*
X116196200Y-133877460D02*
X116196200Y-136477460D01*
X118856200Y-133877460D02*
X118856200Y-136477460D01*
X116196200Y-133877460D02*
X118856200Y-133877460D01*
X116196200Y-132607460D02*
X116196200Y-131277460D01*
X116196200Y-131277460D02*
X117526200Y-131277460D01*
X180786200Y-130137460D02*
X186246200Y-130137460D01*
X180786200Y-99537460D02*
X180786200Y-130137460D01*
X193706200Y-99537460D02*
X180786200Y-99537460D01*
X193706200Y-130137460D02*
X193706200Y-99537460D01*
X188246200Y-130137460D02*
X193706200Y-130137460D01*
X186246200Y-130137460D02*
G75*
G02*
X188246200Y-130137460I1000000J0D01*
G01*
X167796200Y-131437460D02*
X169126200Y-131437460D01*
X167796200Y-132767460D02*
X167796200Y-131437460D01*
X167796200Y-134037460D02*
X170456200Y-134037460D01*
X170456200Y-134037460D02*
X170456200Y-136637460D01*
X167796200Y-134037460D02*
X167796200Y-136637460D01*
X167796200Y-136637460D02*
X170456200Y-136637460D01*
X204766200Y-101147460D02*
X204766200Y-102257460D01*
X204766200Y-113507460D02*
X204766200Y-112397460D01*
X202846200Y-102257460D02*
X202846200Y-112397460D01*
X206686200Y-102257460D02*
X202846200Y-102257460D01*
X206686200Y-112397460D02*
X206686200Y-102257460D01*
X202846200Y-112397460D02*
X206686200Y-112397460D01*
X136766200Y-130137460D02*
X142226200Y-130137460D01*
X142226200Y-130137460D02*
X142226200Y-99537460D01*
X142226200Y-99537460D02*
X129306200Y-99537460D01*
X129306200Y-99537460D02*
X129306200Y-130137460D01*
X129306200Y-130137460D02*
X134766200Y-130137460D01*
X134766200Y-130137460D02*
G75*
G02*
X136766200Y-130137460I1000000J0D01*
G01*
D11*
X212192866Y-94609840D02*
X211859533Y-94133650D01*
X211621438Y-94609840D02*
X211621438Y-93609840D01*
X212002390Y-93609840D01*
X212097628Y-93657460D01*
X212145247Y-93705079D01*
X212192866Y-93800317D01*
X212192866Y-93943174D01*
X212145247Y-94038412D01*
X212097628Y-94086031D01*
X212002390Y-94133650D01*
X211621438Y-94133650D01*
X212621438Y-94086031D02*
X212954771Y-94086031D01*
X213097628Y-94609840D02*
X212621438Y-94609840D01*
X212621438Y-93609840D01*
X213097628Y-93609840D01*
X213859533Y-94086031D02*
X213526200Y-94086031D01*
X213526200Y-94609840D02*
X213526200Y-93609840D01*
X214002390Y-93609840D01*
X214526200Y-93609840D02*
X214526200Y-93847936D01*
X214288104Y-93752698D02*
X214526200Y-93847936D01*
X214764295Y-93752698D01*
X214383342Y-94038412D02*
X214526200Y-93847936D01*
X214669057Y-94038412D01*
X215288104Y-93609840D02*
X215288104Y-93847936D01*
X215050009Y-93752698D02*
X215288104Y-93847936D01*
X215526200Y-93752698D01*
X215145247Y-94038412D02*
X215288104Y-93847936D01*
X215430961Y-94038412D01*
X115442866Y-94609840D02*
X115109533Y-94133650D01*
X114871438Y-94609840D02*
X114871438Y-93609840D01*
X115252390Y-93609840D01*
X115347628Y-93657460D01*
X115395247Y-93705079D01*
X115442866Y-93800317D01*
X115442866Y-93943174D01*
X115395247Y-94038412D01*
X115347628Y-94086031D01*
X115252390Y-94133650D01*
X114871438Y-94133650D01*
X115871438Y-94086031D02*
X116204771Y-94086031D01*
X116347628Y-94609840D02*
X115871438Y-94609840D01*
X115871438Y-93609840D01*
X116347628Y-93609840D01*
X117109533Y-94086031D02*
X116776200Y-94086031D01*
X116776200Y-94609840D02*
X116776200Y-93609840D01*
X117252390Y-93609840D01*
X117776200Y-93609840D02*
X117776200Y-93847936D01*
X117538104Y-93752698D02*
X117776200Y-93847936D01*
X118014295Y-93752698D01*
X117633342Y-94038412D02*
X117776200Y-93847936D01*
X117919057Y-94038412D01*
X118538104Y-93609840D02*
X118538104Y-93847936D01*
X118300009Y-93752698D02*
X118538104Y-93847936D01*
X118776200Y-93752698D01*
X118395247Y-94038412D02*
X118538104Y-93847936D01*
X118680961Y-94038412D01*
X116764295Y-129729840D02*
X117335723Y-129729840D01*
X117050009Y-130729840D02*
X117050009Y-129729840D01*
X118192866Y-130729840D02*
X117621438Y-130729840D01*
X117907152Y-130729840D02*
X117907152Y-129729840D01*
X117811914Y-129872698D01*
X117716676Y-129967936D01*
X117621438Y-130015555D01*
X186484295Y-130589840D02*
X186484295Y-131399364D01*
X186531914Y-131494602D01*
X186579533Y-131542221D01*
X186674771Y-131589840D01*
X186865247Y-131589840D01*
X186960485Y-131542221D01*
X187008104Y-131494602D01*
X187055723Y-131399364D01*
X187055723Y-130589840D01*
X188055723Y-131589840D02*
X187484295Y-131589840D01*
X187770009Y-131589840D02*
X187770009Y-130589840D01*
X187674771Y-130732698D01*
X187579533Y-130827936D01*
X187484295Y-130875555D01*
X168364295Y-130842221D02*
X168507152Y-130889840D01*
X168745247Y-130889840D01*
X168840485Y-130842221D01*
X168888104Y-130794602D01*
X168935723Y-130699364D01*
X168935723Y-130604126D01*
X168888104Y-130508888D01*
X168840485Y-130461269D01*
X168745247Y-130413650D01*
X168554771Y-130366031D01*
X168459533Y-130318412D01*
X168411914Y-130270793D01*
X168364295Y-130175555D01*
X168364295Y-130080317D01*
X168411914Y-129985079D01*
X168459533Y-129937460D01*
X168554771Y-129889840D01*
X168792866Y-129889840D01*
X168935723Y-129937460D01*
X169888104Y-130889840D02*
X169316676Y-130889840D01*
X169602390Y-130889840D02*
X169602390Y-129889840D01*
X169507152Y-130032698D01*
X169411914Y-130127936D01*
X169316676Y-130175555D01*
X202298580Y-107494126D02*
X201822390Y-107827460D01*
X202298580Y-108065555D02*
X201298580Y-108065555D01*
X201298580Y-107684602D01*
X201346200Y-107589364D01*
X201393819Y-107541745D01*
X201489057Y-107494126D01*
X201631914Y-107494126D01*
X201727152Y-107541745D01*
X201774771Y-107589364D01*
X201822390Y-107684602D01*
X201822390Y-108065555D01*
X202298580Y-106541745D02*
X202298580Y-107113174D01*
X202298580Y-106827460D02*
X201298580Y-106827460D01*
X201441438Y-106922698D01*
X201536676Y-107017936D01*
X201584295Y-107113174D01*
X135004295Y-130589840D02*
X135004295Y-131399364D01*
X135051914Y-131494602D01*
X135099533Y-131542221D01*
X135194771Y-131589840D01*
X135385247Y-131589840D01*
X135480485Y-131542221D01*
X135528104Y-131494602D01*
X135575723Y-131399364D01*
X135575723Y-130589840D01*
X136004295Y-130685079D02*
X136051914Y-130637460D01*
X136147152Y-130589840D01*
X136385247Y-130589840D01*
X136480485Y-130637460D01*
X136528104Y-130685079D01*
X136575723Y-130780317D01*
X136575723Y-130875555D01*
X136528104Y-131018412D01*
X135956676Y-131589840D01*
X136575723Y-131589840D01*
X180706666Y-133772380D02*
X180706666Y-134486666D01*
X180659047Y-134629523D01*
X180563809Y-134724761D01*
X180420952Y-134772380D01*
X180325714Y-134772380D01*
X181706666Y-134772380D02*
X181135238Y-134772380D01*
X181420952Y-134772380D02*
X181420952Y-133772380D01*
X181325714Y-133915238D01*
X181230476Y-134010476D01*
X181135238Y-134058095D01*
%LPC*%
D13*
X213526200Y-98357460D03*
X116776200Y-98357460D03*
D14*
X117526200Y-132607460D03*
D15*
X117526200Y-135147460D03*
D16*
X194866200Y-128807460D03*
D17*
X179626200Y-100867460D03*
X194866200Y-126267460D03*
X179626200Y-103407460D03*
X194866200Y-123727460D03*
X179626200Y-105947460D03*
X194866200Y-121187460D03*
X179626200Y-108487460D03*
X194866200Y-118647460D03*
X179626200Y-111027460D03*
X194866200Y-116107460D03*
X179626200Y-113567460D03*
X194866200Y-113567460D03*
X179626200Y-116107460D03*
X194866200Y-111027460D03*
X179626200Y-118647460D03*
X194866200Y-108487460D03*
X179626200Y-121187460D03*
X194866200Y-105947460D03*
X179626200Y-123727460D03*
X194866200Y-103407460D03*
X179626200Y-126267460D03*
X194866200Y-100867460D03*
X179626200Y-128807460D03*
D14*
X169126200Y-132767460D03*
D15*
X169126200Y-135307460D03*
D18*
X204766200Y-114947460D03*
D19*
X204766200Y-99707460D03*
D16*
X143386200Y-128807460D03*
D17*
X128146200Y-100867460D03*
X143386200Y-126267460D03*
X128146200Y-103407460D03*
X143386200Y-123727460D03*
X128146200Y-105947460D03*
X143386200Y-121187460D03*
X128146200Y-108487460D03*
X143386200Y-118647460D03*
X128146200Y-111027460D03*
X143386200Y-116107460D03*
X128146200Y-113567460D03*
X143386200Y-113567460D03*
X128146200Y-116107460D03*
X143386200Y-111027460D03*
X128146200Y-118647460D03*
X143386200Y-108487460D03*
X128146200Y-121187460D03*
X143386200Y-105947460D03*
X128146200Y-123727460D03*
X143386200Y-103407460D03*
X128146200Y-126267460D03*
X143386200Y-100867460D03*
X128146200Y-128807460D03*
D20*
X129560000Y-143580000D03*
X133520000Y-143580000D03*
X137480000Y-143580000D03*
X141440000Y-143580000D03*
X145400000Y-143580000D03*
X149360000Y-143580000D03*
X153320000Y-143580000D03*
X157280000Y-143580000D03*
X161240000Y-143580000D03*
X165200000Y-143580000D03*
X169160000Y-143580000D03*
X173120000Y-143580000D03*
X177080000Y-143580000D03*
X181040000Y-143580000D03*
X185000000Y-143580000D03*
X188960000Y-143580000D03*
X192920000Y-143580000D03*
X196880000Y-143580000D03*
X200840000Y-143580000D03*
X204800000Y-143580000D03*
X208760000Y-143580000D03*
X212720000Y-143580000D03*
M02*
