%FSLAX45Y45*%
G04 Gerber Fmt 4.5, Leading zero omitted, Abs format (unit mm)*
G04 Created by KiCad (PCBNEW (5.1.12)-1) date 2022-10-28 14:48:24*
%MOMM*%
%LPD*%
G01*
G04 APERTURE LIST*
%TA.AperFunction,Profile*%
%ADD10C,0.050000*%
%TD*%
%ADD11C,0.200000*%
%ADD12C,0.300000*%
G04 APERTURE END LIST*
D10*
X12577620Y-13870746D02*
X12577620Y-14860746D01*
X12577620Y-13870746D02*
X11368620Y-13870746D01*
X21664620Y-9514746D02*
X21664620Y-14860746D01*
X11368620Y-9514746D02*
X21664620Y-9514746D01*
X11368620Y-13870746D02*
X11368620Y-9514746D01*
X21664620Y-14860746D02*
X12577620Y-14860746D01*
D11*
X11517620Y-9675746D02*
X11837620Y-9995746D01*
X11837620Y-9675746D02*
X11517620Y-9995746D01*
X21192620Y-9675746D02*
X21512620Y-9995746D01*
X21512620Y-9675746D02*
X21192620Y-9995746D01*
D12*
X11652548Y-15328960D02*
X11652548Y-15028960D01*
X11723977Y-15028960D01*
X11766834Y-15043246D01*
X11795406Y-15071817D01*
X11809691Y-15100389D01*
X11823977Y-15157532D01*
X11823977Y-15200389D01*
X11809691Y-15257532D01*
X11795406Y-15286103D01*
X11766834Y-15314675D01*
X11723977Y-15328960D01*
X11652548Y-15328960D01*
X11952548Y-15328960D02*
X11952548Y-15128960D01*
X11952548Y-15186103D02*
X11966834Y-15157532D01*
X11981120Y-15143246D01*
X12009691Y-15128960D01*
X12038263Y-15128960D01*
X12138263Y-15328960D02*
X12138263Y-15128960D01*
X12138263Y-15028960D02*
X12123977Y-15043246D01*
X12138263Y-15057532D01*
X12152548Y-15043246D01*
X12138263Y-15028960D01*
X12138263Y-15057532D01*
X12323977Y-15328960D02*
X12295406Y-15314675D01*
X12281120Y-15286103D01*
X12281120Y-15028960D01*
X12481120Y-15328960D02*
X12452548Y-15314675D01*
X12438263Y-15286103D01*
X12438263Y-15028960D01*
X12823977Y-15328960D02*
X12823977Y-15028960D01*
X12923977Y-15243246D01*
X13023977Y-15028960D01*
X13023977Y-15328960D01*
X13295406Y-15328960D02*
X13295406Y-15171817D01*
X13281120Y-15143246D01*
X13252548Y-15128960D01*
X13195406Y-15128960D01*
X13166834Y-15143246D01*
X13295406Y-15314675D02*
X13266834Y-15328960D01*
X13195406Y-15328960D01*
X13166834Y-15314675D01*
X13152548Y-15286103D01*
X13152548Y-15257532D01*
X13166834Y-15228960D01*
X13195406Y-15214675D01*
X13266834Y-15214675D01*
X13295406Y-15200389D01*
X13438263Y-15128960D02*
X13438263Y-15428960D01*
X13438263Y-15143246D02*
X13466834Y-15128960D01*
X13523977Y-15128960D01*
X13552548Y-15143246D01*
X13566834Y-15157532D01*
X13581120Y-15186103D01*
X13581120Y-15271817D01*
X13566834Y-15300389D01*
X13552548Y-15314675D01*
X13523977Y-15328960D01*
X13466834Y-15328960D01*
X13438263Y-15314675D01*
X13709691Y-15300389D02*
X13723977Y-15314675D01*
X13709691Y-15328960D01*
X13695406Y-15314675D01*
X13709691Y-15300389D01*
X13709691Y-15328960D01*
X13709691Y-15143246D02*
X13723977Y-15157532D01*
X13709691Y-15171817D01*
X13695406Y-15157532D01*
X13709691Y-15143246D01*
X13709691Y-15171817D01*
X11046120Y-15663246D02*
X11366120Y-15983246D01*
X11366120Y-15663246D02*
X11046120Y-15983246D01*
X11623977Y-15658960D02*
X11809691Y-15658960D01*
X11709691Y-15773246D01*
X11752548Y-15773246D01*
X11781120Y-15787532D01*
X11795406Y-15801817D01*
X11809691Y-15830389D01*
X11809691Y-15901817D01*
X11795406Y-15930389D01*
X11781120Y-15944675D01*
X11752548Y-15958960D01*
X11666834Y-15958960D01*
X11638263Y-15944675D01*
X11623977Y-15930389D01*
X11938263Y-15930389D02*
X11952548Y-15944675D01*
X11938263Y-15958960D01*
X11923977Y-15944675D01*
X11938263Y-15930389D01*
X11938263Y-15958960D01*
X12066834Y-15687532D02*
X12081120Y-15673246D01*
X12109691Y-15658960D01*
X12181120Y-15658960D01*
X12209691Y-15673246D01*
X12223977Y-15687532D01*
X12238263Y-15716103D01*
X12238263Y-15744675D01*
X12223977Y-15787532D01*
X12052548Y-15958960D01*
X12238263Y-15958960D01*
X12423977Y-15658960D02*
X12452548Y-15658960D01*
X12481120Y-15673246D01*
X12495406Y-15687532D01*
X12509691Y-15716103D01*
X12523977Y-15773246D01*
X12523977Y-15844675D01*
X12509691Y-15901817D01*
X12495406Y-15930389D01*
X12481120Y-15944675D01*
X12452548Y-15958960D01*
X12423977Y-15958960D01*
X12395406Y-15944675D01*
X12381120Y-15930389D01*
X12366834Y-15901817D01*
X12352548Y-15844675D01*
X12352548Y-15773246D01*
X12366834Y-15716103D01*
X12381120Y-15687532D01*
X12395406Y-15673246D01*
X12423977Y-15658960D01*
X12709691Y-15658960D02*
X12738263Y-15658960D01*
X12766834Y-15673246D01*
X12781120Y-15687532D01*
X12795406Y-15716103D01*
X12809691Y-15773246D01*
X12809691Y-15844675D01*
X12795406Y-15901817D01*
X12781120Y-15930389D01*
X12766834Y-15944675D01*
X12738263Y-15958960D01*
X12709691Y-15958960D01*
X12681120Y-15944675D01*
X12666834Y-15930389D01*
X12652548Y-15901817D01*
X12638263Y-15844675D01*
X12638263Y-15773246D01*
X12652548Y-15716103D01*
X12666834Y-15687532D01*
X12681120Y-15673246D01*
X12709691Y-15658960D01*
X12938263Y-15958960D02*
X12938263Y-15758960D01*
X12938263Y-15787532D02*
X12952548Y-15773246D01*
X12981120Y-15758960D01*
X13023977Y-15758960D01*
X13052548Y-15773246D01*
X13066834Y-15801817D01*
X13066834Y-15958960D01*
X13066834Y-15801817D02*
X13081120Y-15773246D01*
X13109691Y-15758960D01*
X13152548Y-15758960D01*
X13181120Y-15773246D01*
X13195406Y-15801817D01*
X13195406Y-15958960D01*
X13338263Y-15958960D02*
X13338263Y-15758960D01*
X13338263Y-15787532D02*
X13352548Y-15773246D01*
X13381120Y-15758960D01*
X13423977Y-15758960D01*
X13452548Y-15773246D01*
X13466834Y-15801817D01*
X13466834Y-15958960D01*
X13466834Y-15801817D02*
X13481120Y-15773246D01*
X13509691Y-15758960D01*
X13552548Y-15758960D01*
X13581120Y-15773246D01*
X13595406Y-15801817D01*
X13595406Y-15958960D01*
X14181120Y-15644675D02*
X13923977Y-16030389D01*
X14566834Y-15658960D02*
X14595406Y-15658960D01*
X14623977Y-15673246D01*
X14638263Y-15687532D01*
X14652548Y-15716103D01*
X14666834Y-15773246D01*
X14666834Y-15844675D01*
X14652548Y-15901817D01*
X14638263Y-15930389D01*
X14623977Y-15944675D01*
X14595406Y-15958960D01*
X14566834Y-15958960D01*
X14538263Y-15944675D01*
X14523977Y-15930389D01*
X14509691Y-15901817D01*
X14495406Y-15844675D01*
X14495406Y-15773246D01*
X14509691Y-15716103D01*
X14523977Y-15687532D01*
X14538263Y-15673246D01*
X14566834Y-15658960D01*
X14795406Y-15930389D02*
X14809691Y-15944675D01*
X14795406Y-15958960D01*
X14781120Y-15944675D01*
X14795406Y-15930389D01*
X14795406Y-15958960D01*
X15095406Y-15958960D02*
X14923977Y-15958960D01*
X15009691Y-15958960D02*
X15009691Y-15658960D01*
X14981120Y-15701817D01*
X14952548Y-15730389D01*
X14923977Y-15744675D01*
X15209691Y-15687532D02*
X15223977Y-15673246D01*
X15252548Y-15658960D01*
X15323977Y-15658960D01*
X15352548Y-15673246D01*
X15366834Y-15687532D01*
X15381120Y-15716103D01*
X15381120Y-15744675D01*
X15366834Y-15787532D01*
X15195406Y-15958960D01*
X15381120Y-15958960D01*
X15638263Y-15658960D02*
X15581120Y-15658960D01*
X15552548Y-15673246D01*
X15538263Y-15687532D01*
X15509691Y-15730389D01*
X15495406Y-15787532D01*
X15495406Y-15901817D01*
X15509691Y-15930389D01*
X15523977Y-15944675D01*
X15552548Y-15958960D01*
X15609691Y-15958960D01*
X15638263Y-15944675D01*
X15652548Y-15930389D01*
X15666834Y-15901817D01*
X15666834Y-15830389D01*
X15652548Y-15801817D01*
X15638263Y-15787532D01*
X15609691Y-15773246D01*
X15552548Y-15773246D01*
X15523977Y-15787532D01*
X15509691Y-15801817D01*
X15495406Y-15830389D01*
X15852548Y-15658960D02*
X15881120Y-15658960D01*
X15909691Y-15673246D01*
X15923977Y-15687532D01*
X15938263Y-15716103D01*
X15952548Y-15773246D01*
X15952548Y-15844675D01*
X15938263Y-15901817D01*
X15923977Y-15930389D01*
X15909691Y-15944675D01*
X15881120Y-15958960D01*
X15852548Y-15958960D01*
X15823977Y-15944675D01*
X15809691Y-15930389D01*
X15795406Y-15901817D01*
X15781120Y-15844675D01*
X15781120Y-15773246D01*
X15795406Y-15716103D01*
X15809691Y-15687532D01*
X15823977Y-15673246D01*
X15852548Y-15658960D01*
X16066834Y-15658960D02*
X16066834Y-15716103D01*
X16181120Y-15658960D02*
X16181120Y-15716103D01*
X16623977Y-16073246D02*
X16609691Y-16058960D01*
X16581120Y-16016103D01*
X16566834Y-15987532D01*
X16552548Y-15944675D01*
X16538263Y-15873246D01*
X16538263Y-15816103D01*
X16552548Y-15744675D01*
X16566834Y-15701817D01*
X16581120Y-15673246D01*
X16609691Y-15630389D01*
X16623977Y-15616103D01*
X16723977Y-15687532D02*
X16738263Y-15673246D01*
X16766834Y-15658960D01*
X16838263Y-15658960D01*
X16866834Y-15673246D01*
X16881120Y-15687532D01*
X16895406Y-15716103D01*
X16895406Y-15744675D01*
X16881120Y-15787532D01*
X16709691Y-15958960D01*
X16895406Y-15958960D01*
X17252548Y-15958960D02*
X17252548Y-15658960D01*
X17381120Y-15958960D02*
X17381120Y-15801817D01*
X17366834Y-15773246D01*
X17338263Y-15758960D01*
X17295406Y-15758960D01*
X17266834Y-15773246D01*
X17252548Y-15787532D01*
X17566834Y-15958960D02*
X17538263Y-15944675D01*
X17523977Y-15930389D01*
X17509691Y-15901817D01*
X17509691Y-15816103D01*
X17523977Y-15787532D01*
X17538263Y-15773246D01*
X17566834Y-15758960D01*
X17609691Y-15758960D01*
X17638263Y-15773246D01*
X17652548Y-15787532D01*
X17666834Y-15816103D01*
X17666834Y-15901817D01*
X17652548Y-15930389D01*
X17638263Y-15944675D01*
X17609691Y-15958960D01*
X17566834Y-15958960D01*
X17838263Y-15958960D02*
X17809691Y-15944675D01*
X17795406Y-15916103D01*
X17795406Y-15658960D01*
X18066834Y-15944675D02*
X18038263Y-15958960D01*
X17981120Y-15958960D01*
X17952548Y-15944675D01*
X17938263Y-15916103D01*
X17938263Y-15801817D01*
X17952548Y-15773246D01*
X17981120Y-15758960D01*
X18038263Y-15758960D01*
X18066834Y-15773246D01*
X18081120Y-15801817D01*
X18081120Y-15830389D01*
X17938263Y-15858960D01*
X18195406Y-15944675D02*
X18223977Y-15958960D01*
X18281120Y-15958960D01*
X18309691Y-15944675D01*
X18323977Y-15916103D01*
X18323977Y-15901817D01*
X18309691Y-15873246D01*
X18281120Y-15858960D01*
X18238263Y-15858960D01*
X18209691Y-15844675D01*
X18195406Y-15816103D01*
X18195406Y-15801817D01*
X18209691Y-15773246D01*
X18238263Y-15758960D01*
X18281120Y-15758960D01*
X18309691Y-15773246D01*
X18423977Y-16073246D02*
X18438263Y-16058960D01*
X18466834Y-16016103D01*
X18481120Y-15987532D01*
X18495406Y-15944675D01*
X18509691Y-15873246D01*
X18509691Y-15816103D01*
X18495406Y-15744675D01*
X18481120Y-15701817D01*
X18466834Y-15673246D01*
X18438263Y-15630389D01*
X18423977Y-15616103D01*
X18966834Y-16073246D02*
X18952548Y-16058960D01*
X18923977Y-16016103D01*
X18909691Y-15987532D01*
X18895406Y-15944675D01*
X18881120Y-15873246D01*
X18881120Y-15816103D01*
X18895406Y-15744675D01*
X18909691Y-15701817D01*
X18923977Y-15673246D01*
X18952548Y-15630389D01*
X18966834Y-15616103D01*
X19081120Y-15758960D02*
X19081120Y-15958960D01*
X19081120Y-15787532D02*
X19095406Y-15773246D01*
X19123977Y-15758960D01*
X19166834Y-15758960D01*
X19195406Y-15773246D01*
X19209691Y-15801817D01*
X19209691Y-15958960D01*
X19395406Y-15958960D02*
X19366834Y-15944675D01*
X19352548Y-15930389D01*
X19338263Y-15901817D01*
X19338263Y-15816103D01*
X19352548Y-15787532D01*
X19366834Y-15773246D01*
X19395406Y-15758960D01*
X19438263Y-15758960D01*
X19466834Y-15773246D01*
X19481120Y-15787532D01*
X19495406Y-15816103D01*
X19495406Y-15901817D01*
X19481120Y-15930389D01*
X19466834Y-15944675D01*
X19438263Y-15958960D01*
X19395406Y-15958960D01*
X19581120Y-15758960D02*
X19695406Y-15758960D01*
X19623977Y-15658960D02*
X19623977Y-15916103D01*
X19638263Y-15944675D01*
X19666834Y-15958960D01*
X19695406Y-15958960D01*
X20023977Y-15758960D02*
X20023977Y-16058960D01*
X20023977Y-15773246D02*
X20052548Y-15758960D01*
X20109691Y-15758960D01*
X20138263Y-15773246D01*
X20152548Y-15787532D01*
X20166834Y-15816103D01*
X20166834Y-15901817D01*
X20152548Y-15930389D01*
X20138263Y-15944675D01*
X20109691Y-15958960D01*
X20052548Y-15958960D01*
X20023977Y-15944675D01*
X20338263Y-15958960D02*
X20309691Y-15944675D01*
X20295406Y-15916103D01*
X20295406Y-15658960D01*
X20581120Y-15958960D02*
X20581120Y-15801817D01*
X20566834Y-15773246D01*
X20538263Y-15758960D01*
X20481120Y-15758960D01*
X20452548Y-15773246D01*
X20581120Y-15944675D02*
X20552548Y-15958960D01*
X20481120Y-15958960D01*
X20452548Y-15944675D01*
X20438263Y-15916103D01*
X20438263Y-15887532D01*
X20452548Y-15858960D01*
X20481120Y-15844675D01*
X20552548Y-15844675D01*
X20581120Y-15830389D01*
X20681120Y-15758960D02*
X20795406Y-15758960D01*
X20723977Y-15658960D02*
X20723977Y-15916103D01*
X20738263Y-15944675D01*
X20766834Y-15958960D01*
X20795406Y-15958960D01*
X21009691Y-15944675D02*
X20981120Y-15958960D01*
X20923977Y-15958960D01*
X20895406Y-15944675D01*
X20881120Y-15916103D01*
X20881120Y-15801817D01*
X20895406Y-15773246D01*
X20923977Y-15758960D01*
X20981120Y-15758960D01*
X21009691Y-15773246D01*
X21023977Y-15801817D01*
X21023977Y-15830389D01*
X20881120Y-15858960D01*
X21281120Y-15958960D02*
X21281120Y-15658960D01*
X21281120Y-15944675D02*
X21252548Y-15958960D01*
X21195406Y-15958960D01*
X21166834Y-15944675D01*
X21152548Y-15930389D01*
X21138263Y-15901817D01*
X21138263Y-15816103D01*
X21152548Y-15787532D01*
X21166834Y-15773246D01*
X21195406Y-15758960D01*
X21252548Y-15758960D01*
X21281120Y-15773246D01*
X21395406Y-16073246D02*
X21409691Y-16058960D01*
X21438263Y-16016103D01*
X21452548Y-15987532D01*
X21466834Y-15944675D01*
X21481120Y-15873246D01*
X21481120Y-15816103D01*
X21466834Y-15744675D01*
X21452548Y-15701817D01*
X21438263Y-15673246D01*
X21409691Y-15630389D01*
X21395406Y-15616103D01*
M02*
