%FSLAX45Y45*%
G04 Gerber Fmt 4.5, Leading zero omitted, Abs format (unit mm)*
G04 Created by KiCad (PCBNEW (5.1.12)-1) date 2022-10-05 20:03:58*
%MOMM*%
%LPD*%
G01*
G04 APERTURE LIST*
%TA.AperFunction,Profile*%
%ADD10C,0.050000*%
%TD*%
%ADD11C,0.200000*%
%ADD12C,0.300000*%
G04 APERTURE END LIST*
D10*
X12577620Y-13870746D02*
X12577620Y-14860746D01*
X12577620Y-13870746D02*
X11368620Y-13870746D01*
X21664620Y-9514746D02*
X21664620Y-14860746D01*
X11368620Y-9514746D02*
X21664620Y-9514746D01*
X11368620Y-13870746D02*
X11368620Y-9514746D01*
X21664620Y-14860746D02*
X12577620Y-14860746D01*
D11*
X12140620Y-11672746D02*
X12180620Y-11712746D01*
X12180620Y-11672746D02*
X12140620Y-11712746D01*
X12407620Y-11840746D02*
X12447620Y-11880746D01*
X12447620Y-11840746D02*
X12407620Y-11880746D01*
X12536620Y-10880746D02*
X12576620Y-10920746D01*
X12576620Y-10880746D02*
X12536620Y-10920746D01*
X15704620Y-13256746D02*
X15744620Y-13296746D01*
X15744620Y-13256746D02*
X15704620Y-13296746D01*
X16100620Y-13454746D02*
X16140620Y-13494746D01*
X16140620Y-13454746D02*
X16100620Y-13494746D01*
X17684620Y-13256746D02*
X17724620Y-13296746D01*
X17724620Y-13256746D02*
X17684620Y-13296746D01*
X18278620Y-13256746D02*
X18318620Y-13296746D01*
X18318620Y-13256746D02*
X18278620Y-13296746D01*
X18476620Y-13058746D02*
X18516620Y-13098746D01*
X18516620Y-13058746D02*
X18476620Y-13098746D01*
X12854620Y-10086746D02*
G75*
G03*
X12854620Y-10086746I-40000J0D01*
G01*
X12854620Y-10340746D02*
G75*
G03*
X12854620Y-10340746I-40000J0D01*
G01*
X12854620Y-10594746D02*
G75*
G03*
X12854620Y-10594746I-40000J0D01*
G01*
X12854620Y-10848746D02*
G75*
G03*
X12854620Y-10848746I-40000J0D01*
G01*
X12854620Y-11102746D02*
G75*
G03*
X12854620Y-11102746I-40000J0D01*
G01*
X12854620Y-11356746D02*
G75*
G03*
X12854620Y-11356746I-40000J0D01*
G01*
X12854620Y-11610746D02*
G75*
G03*
X12854620Y-11610746I-40000J0D01*
G01*
X12854620Y-11864746D02*
G75*
G03*
X12854620Y-11864746I-40000J0D01*
G01*
X12854620Y-12118746D02*
G75*
G03*
X12854620Y-12118746I-40000J0D01*
G01*
X12854620Y-12372746D02*
G75*
G03*
X12854620Y-12372746I-40000J0D01*
G01*
X12854620Y-12626746D02*
G75*
G03*
X12854620Y-12626746I-40000J0D01*
G01*
X12854620Y-12880746D02*
G75*
G03*
X12854620Y-12880746I-40000J0D01*
G01*
X14378620Y-10086746D02*
G75*
G03*
X14378620Y-10086746I-40000J0D01*
G01*
X14378620Y-10340746D02*
G75*
G03*
X14378620Y-10340746I-40000J0D01*
G01*
X14378620Y-10594746D02*
G75*
G03*
X14378620Y-10594746I-40000J0D01*
G01*
X14378620Y-10848746D02*
G75*
G03*
X14378620Y-10848746I-40000J0D01*
G01*
X14378620Y-11102746D02*
G75*
G03*
X14378620Y-11102746I-40000J0D01*
G01*
X14378620Y-11356746D02*
G75*
G03*
X14378620Y-11356746I-40000J0D01*
G01*
X14378620Y-11610746D02*
G75*
G03*
X14378620Y-11610746I-40000J0D01*
G01*
X14378620Y-11864746D02*
G75*
G03*
X14378620Y-11864746I-40000J0D01*
G01*
X14378620Y-12118746D02*
G75*
G03*
X14378620Y-12118746I-40000J0D01*
G01*
X14378620Y-12372746D02*
G75*
G03*
X14378620Y-12372746I-40000J0D01*
G01*
X14378620Y-12626746D02*
G75*
G03*
X14378620Y-12626746I-40000J0D01*
G01*
X14378620Y-12880746D02*
G75*
G03*
X14378620Y-12880746I-40000J0D01*
G01*
X18002620Y-10086746D02*
G75*
G03*
X18002620Y-10086746I-40000J0D01*
G01*
X18002620Y-10340746D02*
G75*
G03*
X18002620Y-10340746I-40000J0D01*
G01*
X18002620Y-10594746D02*
G75*
G03*
X18002620Y-10594746I-40000J0D01*
G01*
X18002620Y-10848746D02*
G75*
G03*
X18002620Y-10848746I-40000J0D01*
G01*
X18002620Y-11102746D02*
G75*
G03*
X18002620Y-11102746I-40000J0D01*
G01*
X18002620Y-11356746D02*
G75*
G03*
X18002620Y-11356746I-40000J0D01*
G01*
X18002620Y-11610746D02*
G75*
G03*
X18002620Y-11610746I-40000J0D01*
G01*
X18002620Y-11864746D02*
G75*
G03*
X18002620Y-11864746I-40000J0D01*
G01*
X18002620Y-12118746D02*
G75*
G03*
X18002620Y-12118746I-40000J0D01*
G01*
X18002620Y-12372746D02*
G75*
G03*
X18002620Y-12372746I-40000J0D01*
G01*
X18002620Y-12626746D02*
G75*
G03*
X18002620Y-12626746I-40000J0D01*
G01*
X18002620Y-12880746D02*
G75*
G03*
X18002620Y-12880746I-40000J0D01*
G01*
X19526620Y-10086746D02*
G75*
G03*
X19526620Y-10086746I-40000J0D01*
G01*
X19526620Y-10340746D02*
G75*
G03*
X19526620Y-10340746I-40000J0D01*
G01*
X19526620Y-10594746D02*
G75*
G03*
X19526620Y-10594746I-40000J0D01*
G01*
X19526620Y-10848746D02*
G75*
G03*
X19526620Y-10848746I-40000J0D01*
G01*
X19526620Y-11102746D02*
G75*
G03*
X19526620Y-11102746I-40000J0D01*
G01*
X19526620Y-11356746D02*
G75*
G03*
X19526620Y-11356746I-40000J0D01*
G01*
X19526620Y-11610746D02*
G75*
G03*
X19526620Y-11610746I-40000J0D01*
G01*
X19526620Y-11864746D02*
G75*
G03*
X19526620Y-11864746I-40000J0D01*
G01*
X19526620Y-12118746D02*
G75*
G03*
X19526620Y-12118746I-40000J0D01*
G01*
X19526620Y-12372746D02*
G75*
G03*
X19526620Y-12372746I-40000J0D01*
G01*
X19526620Y-12626746D02*
G75*
G03*
X19526620Y-12626746I-40000J0D01*
G01*
X19526620Y-12880746D02*
G75*
G03*
X19526620Y-12880746I-40000J0D01*
G01*
X11752620Y-13210746D02*
X11752620Y-13310746D01*
X11702620Y-13260746D02*
X11802620Y-13260746D01*
X11752620Y-13464746D02*
X11752620Y-13564746D01*
X11702620Y-13514746D02*
X11802620Y-13514746D01*
X16912620Y-13226746D02*
X16912620Y-13326746D01*
X16862620Y-13276746D02*
X16962620Y-13276746D01*
X16912620Y-13480746D02*
X16912620Y-13580746D01*
X16862620Y-13530746D02*
X16962620Y-13530746D01*
X20519047Y-10013173D02*
X20519047Y-9928319D01*
X20434193Y-9928319D01*
X20434193Y-10013173D01*
X20519047Y-10013173D01*
X20519047Y-11537173D02*
X20519047Y-11452319D01*
X20434193Y-11452319D01*
X20434193Y-11537173D01*
X20519047Y-11537173D01*
D12*
X11652548Y-15328960D02*
X11652548Y-15028960D01*
X11723977Y-15028960D01*
X11766834Y-15043246D01*
X11795406Y-15071817D01*
X11809691Y-15100389D01*
X11823977Y-15157532D01*
X11823977Y-15200389D01*
X11809691Y-15257532D01*
X11795406Y-15286103D01*
X11766834Y-15314675D01*
X11723977Y-15328960D01*
X11652548Y-15328960D01*
X11952548Y-15328960D02*
X11952548Y-15128960D01*
X11952548Y-15186103D02*
X11966834Y-15157532D01*
X11981120Y-15143246D01*
X12009691Y-15128960D01*
X12038263Y-15128960D01*
X12138263Y-15328960D02*
X12138263Y-15128960D01*
X12138263Y-15028960D02*
X12123977Y-15043246D01*
X12138263Y-15057532D01*
X12152548Y-15043246D01*
X12138263Y-15028960D01*
X12138263Y-15057532D01*
X12323977Y-15328960D02*
X12295406Y-15314675D01*
X12281120Y-15286103D01*
X12281120Y-15028960D01*
X12481120Y-15328960D02*
X12452548Y-15314675D01*
X12438263Y-15286103D01*
X12438263Y-15028960D01*
X12823977Y-15328960D02*
X12823977Y-15028960D01*
X12923977Y-15243246D01*
X13023977Y-15028960D01*
X13023977Y-15328960D01*
X13295406Y-15328960D02*
X13295406Y-15171817D01*
X13281120Y-15143246D01*
X13252548Y-15128960D01*
X13195406Y-15128960D01*
X13166834Y-15143246D01*
X13295406Y-15314675D02*
X13266834Y-15328960D01*
X13195406Y-15328960D01*
X13166834Y-15314675D01*
X13152548Y-15286103D01*
X13152548Y-15257532D01*
X13166834Y-15228960D01*
X13195406Y-15214675D01*
X13266834Y-15214675D01*
X13295406Y-15200389D01*
X13438263Y-15128960D02*
X13438263Y-15428960D01*
X13438263Y-15143246D02*
X13466834Y-15128960D01*
X13523977Y-15128960D01*
X13552548Y-15143246D01*
X13566834Y-15157532D01*
X13581120Y-15186103D01*
X13581120Y-15271817D01*
X13566834Y-15300389D01*
X13552548Y-15314675D01*
X13523977Y-15328960D01*
X13466834Y-15328960D01*
X13438263Y-15314675D01*
X13709691Y-15300389D02*
X13723977Y-15314675D01*
X13709691Y-15328960D01*
X13695406Y-15314675D01*
X13709691Y-15300389D01*
X13709691Y-15328960D01*
X13709691Y-15143246D02*
X13723977Y-15157532D01*
X13709691Y-15171817D01*
X13695406Y-15157532D01*
X13709691Y-15143246D01*
X13709691Y-15171817D01*
X11326120Y-15803246D02*
X11366120Y-15843246D01*
X11366120Y-15803246D02*
X11326120Y-15843246D01*
X11709691Y-15658960D02*
X11738263Y-15658960D01*
X11766834Y-15673246D01*
X11781120Y-15687532D01*
X11795406Y-15716103D01*
X11809691Y-15773246D01*
X11809691Y-15844675D01*
X11795406Y-15901817D01*
X11781120Y-15930389D01*
X11766834Y-15944675D01*
X11738263Y-15958960D01*
X11709691Y-15958960D01*
X11681120Y-15944675D01*
X11666834Y-15930389D01*
X11652548Y-15901817D01*
X11638263Y-15844675D01*
X11638263Y-15773246D01*
X11652548Y-15716103D01*
X11666834Y-15687532D01*
X11681120Y-15673246D01*
X11709691Y-15658960D01*
X11938263Y-15930389D02*
X11952548Y-15944675D01*
X11938263Y-15958960D01*
X11923977Y-15944675D01*
X11938263Y-15930389D01*
X11938263Y-15958960D01*
X12209691Y-15758960D02*
X12209691Y-15958960D01*
X12138263Y-15644675D02*
X12066834Y-15858960D01*
X12252548Y-15858960D01*
X12423977Y-15658960D02*
X12452548Y-15658960D01*
X12481120Y-15673246D01*
X12495406Y-15687532D01*
X12509691Y-15716103D01*
X12523977Y-15773246D01*
X12523977Y-15844675D01*
X12509691Y-15901817D01*
X12495406Y-15930389D01*
X12481120Y-15944675D01*
X12452548Y-15958960D01*
X12423977Y-15958960D01*
X12395406Y-15944675D01*
X12381120Y-15930389D01*
X12366834Y-15901817D01*
X12352548Y-15844675D01*
X12352548Y-15773246D01*
X12366834Y-15716103D01*
X12381120Y-15687532D01*
X12395406Y-15673246D01*
X12423977Y-15658960D01*
X12709691Y-15658960D02*
X12738263Y-15658960D01*
X12766834Y-15673246D01*
X12781120Y-15687532D01*
X12795406Y-15716103D01*
X12809691Y-15773246D01*
X12809691Y-15844675D01*
X12795406Y-15901817D01*
X12781120Y-15930389D01*
X12766834Y-15944675D01*
X12738263Y-15958960D01*
X12709691Y-15958960D01*
X12681120Y-15944675D01*
X12666834Y-15930389D01*
X12652548Y-15901817D01*
X12638263Y-15844675D01*
X12638263Y-15773246D01*
X12652548Y-15716103D01*
X12666834Y-15687532D01*
X12681120Y-15673246D01*
X12709691Y-15658960D01*
X12938263Y-15958960D02*
X12938263Y-15758960D01*
X12938263Y-15787532D02*
X12952548Y-15773246D01*
X12981120Y-15758960D01*
X13023977Y-15758960D01*
X13052548Y-15773246D01*
X13066834Y-15801817D01*
X13066834Y-15958960D01*
X13066834Y-15801817D02*
X13081120Y-15773246D01*
X13109691Y-15758960D01*
X13152548Y-15758960D01*
X13181120Y-15773246D01*
X13195406Y-15801817D01*
X13195406Y-15958960D01*
X13338263Y-15958960D02*
X13338263Y-15758960D01*
X13338263Y-15787532D02*
X13352548Y-15773246D01*
X13381120Y-15758960D01*
X13423977Y-15758960D01*
X13452548Y-15773246D01*
X13466834Y-15801817D01*
X13466834Y-15958960D01*
X13466834Y-15801817D02*
X13481120Y-15773246D01*
X13509691Y-15758960D01*
X13552548Y-15758960D01*
X13581120Y-15773246D01*
X13595406Y-15801817D01*
X13595406Y-15958960D01*
X14181120Y-15644675D02*
X13923977Y-16030389D01*
X14566834Y-15658960D02*
X14595406Y-15658960D01*
X14623977Y-15673246D01*
X14638263Y-15687532D01*
X14652548Y-15716103D01*
X14666834Y-15773246D01*
X14666834Y-15844675D01*
X14652548Y-15901817D01*
X14638263Y-15930389D01*
X14623977Y-15944675D01*
X14595406Y-15958960D01*
X14566834Y-15958960D01*
X14538263Y-15944675D01*
X14523977Y-15930389D01*
X14509691Y-15901817D01*
X14495406Y-15844675D01*
X14495406Y-15773246D01*
X14509691Y-15716103D01*
X14523977Y-15687532D01*
X14538263Y-15673246D01*
X14566834Y-15658960D01*
X14795406Y-15930389D02*
X14809691Y-15944675D01*
X14795406Y-15958960D01*
X14781120Y-15944675D01*
X14795406Y-15930389D01*
X14795406Y-15958960D01*
X14995406Y-15658960D02*
X15023977Y-15658960D01*
X15052548Y-15673246D01*
X15066834Y-15687532D01*
X15081120Y-15716103D01*
X15095406Y-15773246D01*
X15095406Y-15844675D01*
X15081120Y-15901817D01*
X15066834Y-15930389D01*
X15052548Y-15944675D01*
X15023977Y-15958960D01*
X14995406Y-15958960D01*
X14966834Y-15944675D01*
X14952548Y-15930389D01*
X14938263Y-15901817D01*
X14923977Y-15844675D01*
X14923977Y-15773246D01*
X14938263Y-15716103D01*
X14952548Y-15687532D01*
X14966834Y-15673246D01*
X14995406Y-15658960D01*
X15381120Y-15958960D02*
X15209691Y-15958960D01*
X15295406Y-15958960D02*
X15295406Y-15658960D01*
X15266834Y-15701817D01*
X15238263Y-15730389D01*
X15209691Y-15744675D01*
X15652548Y-15658960D02*
X15509691Y-15658960D01*
X15495406Y-15801817D01*
X15509691Y-15787532D01*
X15538263Y-15773246D01*
X15609691Y-15773246D01*
X15638263Y-15787532D01*
X15652548Y-15801817D01*
X15666834Y-15830389D01*
X15666834Y-15901817D01*
X15652548Y-15930389D01*
X15638263Y-15944675D01*
X15609691Y-15958960D01*
X15538263Y-15958960D01*
X15509691Y-15944675D01*
X15495406Y-15930389D01*
X15766834Y-15658960D02*
X15966834Y-15658960D01*
X15838263Y-15958960D01*
X16066834Y-15658960D02*
X16066834Y-15716103D01*
X16181120Y-15658960D02*
X16181120Y-15716103D01*
X16623977Y-16073246D02*
X16609691Y-16058960D01*
X16581120Y-16016103D01*
X16566834Y-15987532D01*
X16552548Y-15944675D01*
X16538263Y-15873246D01*
X16538263Y-15816103D01*
X16552548Y-15744675D01*
X16566834Y-15701817D01*
X16581120Y-15673246D01*
X16609691Y-15630389D01*
X16623977Y-15616103D01*
X16781120Y-15787532D02*
X16752548Y-15773246D01*
X16738263Y-15758960D01*
X16723977Y-15730389D01*
X16723977Y-15716103D01*
X16738263Y-15687532D01*
X16752548Y-15673246D01*
X16781120Y-15658960D01*
X16838263Y-15658960D01*
X16866834Y-15673246D01*
X16881120Y-15687532D01*
X16895406Y-15716103D01*
X16895406Y-15730389D01*
X16881120Y-15758960D01*
X16866834Y-15773246D01*
X16838263Y-15787532D01*
X16781120Y-15787532D01*
X16752548Y-15801817D01*
X16738263Y-15816103D01*
X16723977Y-15844675D01*
X16723977Y-15901817D01*
X16738263Y-15930389D01*
X16752548Y-15944675D01*
X16781120Y-15958960D01*
X16838263Y-15958960D01*
X16866834Y-15944675D01*
X16881120Y-15930389D01*
X16895406Y-15901817D01*
X16895406Y-15844675D01*
X16881120Y-15816103D01*
X16866834Y-15801817D01*
X16838263Y-15787532D01*
X17252548Y-15958960D02*
X17252548Y-15658960D01*
X17381120Y-15958960D02*
X17381120Y-15801817D01*
X17366834Y-15773246D01*
X17338263Y-15758960D01*
X17295406Y-15758960D01*
X17266834Y-15773246D01*
X17252548Y-15787532D01*
X17566834Y-15958960D02*
X17538263Y-15944675D01*
X17523977Y-15930389D01*
X17509691Y-15901817D01*
X17509691Y-15816103D01*
X17523977Y-15787532D01*
X17538263Y-15773246D01*
X17566834Y-15758960D01*
X17609691Y-15758960D01*
X17638263Y-15773246D01*
X17652548Y-15787532D01*
X17666834Y-15816103D01*
X17666834Y-15901817D01*
X17652548Y-15930389D01*
X17638263Y-15944675D01*
X17609691Y-15958960D01*
X17566834Y-15958960D01*
X17838263Y-15958960D02*
X17809691Y-15944675D01*
X17795406Y-15916103D01*
X17795406Y-15658960D01*
X18066834Y-15944675D02*
X18038263Y-15958960D01*
X17981120Y-15958960D01*
X17952548Y-15944675D01*
X17938263Y-15916103D01*
X17938263Y-15801817D01*
X17952548Y-15773246D01*
X17981120Y-15758960D01*
X18038263Y-15758960D01*
X18066834Y-15773246D01*
X18081120Y-15801817D01*
X18081120Y-15830389D01*
X17938263Y-15858960D01*
X18195406Y-15944675D02*
X18223977Y-15958960D01*
X18281120Y-15958960D01*
X18309691Y-15944675D01*
X18323977Y-15916103D01*
X18323977Y-15901817D01*
X18309691Y-15873246D01*
X18281120Y-15858960D01*
X18238263Y-15858960D01*
X18209691Y-15844675D01*
X18195406Y-15816103D01*
X18195406Y-15801817D01*
X18209691Y-15773246D01*
X18238263Y-15758960D01*
X18281120Y-15758960D01*
X18309691Y-15773246D01*
X18423977Y-16073246D02*
X18438263Y-16058960D01*
X18466834Y-16016103D01*
X18481120Y-15987532D01*
X18495406Y-15944675D01*
X18509691Y-15873246D01*
X18509691Y-15816103D01*
X18495406Y-15744675D01*
X18481120Y-15701817D01*
X18466834Y-15673246D01*
X18438263Y-15630389D01*
X18423977Y-15616103D01*
X11366120Y-16219246D02*
G75*
G03*
X11366120Y-16219246I-40000J0D01*
G01*
X11709691Y-16054960D02*
X11738263Y-16054960D01*
X11766834Y-16069246D01*
X11781120Y-16083532D01*
X11795406Y-16112103D01*
X11809691Y-16169246D01*
X11809691Y-16240675D01*
X11795406Y-16297817D01*
X11781120Y-16326389D01*
X11766834Y-16340675D01*
X11738263Y-16354960D01*
X11709691Y-16354960D01*
X11681120Y-16340675D01*
X11666834Y-16326389D01*
X11652548Y-16297817D01*
X11638263Y-16240675D01*
X11638263Y-16169246D01*
X11652548Y-16112103D01*
X11666834Y-16083532D01*
X11681120Y-16069246D01*
X11709691Y-16054960D01*
X11938263Y-16326389D02*
X11952548Y-16340675D01*
X11938263Y-16354960D01*
X11923977Y-16340675D01*
X11938263Y-16326389D01*
X11938263Y-16354960D01*
X12123977Y-16183532D02*
X12095406Y-16169246D01*
X12081120Y-16154960D01*
X12066834Y-16126389D01*
X12066834Y-16112103D01*
X12081120Y-16083532D01*
X12095406Y-16069246D01*
X12123977Y-16054960D01*
X12181120Y-16054960D01*
X12209691Y-16069246D01*
X12223977Y-16083532D01*
X12238263Y-16112103D01*
X12238263Y-16126389D01*
X12223977Y-16154960D01*
X12209691Y-16169246D01*
X12181120Y-16183532D01*
X12123977Y-16183532D01*
X12095406Y-16197817D01*
X12081120Y-16212103D01*
X12066834Y-16240675D01*
X12066834Y-16297817D01*
X12081120Y-16326389D01*
X12095406Y-16340675D01*
X12123977Y-16354960D01*
X12181120Y-16354960D01*
X12209691Y-16340675D01*
X12223977Y-16326389D01*
X12238263Y-16297817D01*
X12238263Y-16240675D01*
X12223977Y-16212103D01*
X12209691Y-16197817D01*
X12181120Y-16183532D01*
X12423977Y-16054960D02*
X12452548Y-16054960D01*
X12481120Y-16069246D01*
X12495406Y-16083532D01*
X12509691Y-16112103D01*
X12523977Y-16169246D01*
X12523977Y-16240675D01*
X12509691Y-16297817D01*
X12495406Y-16326389D01*
X12481120Y-16340675D01*
X12452548Y-16354960D01*
X12423977Y-16354960D01*
X12395406Y-16340675D01*
X12381120Y-16326389D01*
X12366834Y-16297817D01*
X12352548Y-16240675D01*
X12352548Y-16169246D01*
X12366834Y-16112103D01*
X12381120Y-16083532D01*
X12395406Y-16069246D01*
X12423977Y-16054960D01*
X12709691Y-16054960D02*
X12738263Y-16054960D01*
X12766834Y-16069246D01*
X12781120Y-16083532D01*
X12795406Y-16112103D01*
X12809691Y-16169246D01*
X12809691Y-16240675D01*
X12795406Y-16297817D01*
X12781120Y-16326389D01*
X12766834Y-16340675D01*
X12738263Y-16354960D01*
X12709691Y-16354960D01*
X12681120Y-16340675D01*
X12666834Y-16326389D01*
X12652548Y-16297817D01*
X12638263Y-16240675D01*
X12638263Y-16169246D01*
X12652548Y-16112103D01*
X12666834Y-16083532D01*
X12681120Y-16069246D01*
X12709691Y-16054960D01*
X12938263Y-16354960D02*
X12938263Y-16154960D01*
X12938263Y-16183532D02*
X12952548Y-16169246D01*
X12981120Y-16154960D01*
X13023977Y-16154960D01*
X13052548Y-16169246D01*
X13066834Y-16197817D01*
X13066834Y-16354960D01*
X13066834Y-16197817D02*
X13081120Y-16169246D01*
X13109691Y-16154960D01*
X13152548Y-16154960D01*
X13181120Y-16169246D01*
X13195406Y-16197817D01*
X13195406Y-16354960D01*
X13338263Y-16354960D02*
X13338263Y-16154960D01*
X13338263Y-16183532D02*
X13352548Y-16169246D01*
X13381120Y-16154960D01*
X13423977Y-16154960D01*
X13452548Y-16169246D01*
X13466834Y-16197817D01*
X13466834Y-16354960D01*
X13466834Y-16197817D02*
X13481120Y-16169246D01*
X13509691Y-16154960D01*
X13552548Y-16154960D01*
X13581120Y-16169246D01*
X13595406Y-16197817D01*
X13595406Y-16354960D01*
X14181120Y-16040675D02*
X13923977Y-16426389D01*
X14566834Y-16054960D02*
X14595406Y-16054960D01*
X14623977Y-16069246D01*
X14638263Y-16083532D01*
X14652548Y-16112103D01*
X14666834Y-16169246D01*
X14666834Y-16240675D01*
X14652548Y-16297817D01*
X14638263Y-16326389D01*
X14623977Y-16340675D01*
X14595406Y-16354960D01*
X14566834Y-16354960D01*
X14538263Y-16340675D01*
X14523977Y-16326389D01*
X14509691Y-16297817D01*
X14495406Y-16240675D01*
X14495406Y-16169246D01*
X14509691Y-16112103D01*
X14523977Y-16083532D01*
X14538263Y-16069246D01*
X14566834Y-16054960D01*
X14795406Y-16326389D02*
X14809691Y-16340675D01*
X14795406Y-16354960D01*
X14781120Y-16340675D01*
X14795406Y-16326389D01*
X14795406Y-16354960D01*
X14995406Y-16054960D02*
X15023977Y-16054960D01*
X15052548Y-16069246D01*
X15066834Y-16083532D01*
X15081120Y-16112103D01*
X15095406Y-16169246D01*
X15095406Y-16240675D01*
X15081120Y-16297817D01*
X15066834Y-16326389D01*
X15052548Y-16340675D01*
X15023977Y-16354960D01*
X14995406Y-16354960D01*
X14966834Y-16340675D01*
X14952548Y-16326389D01*
X14938263Y-16297817D01*
X14923977Y-16240675D01*
X14923977Y-16169246D01*
X14938263Y-16112103D01*
X14952548Y-16083532D01*
X14966834Y-16069246D01*
X14995406Y-16054960D01*
X15195406Y-16054960D02*
X15381120Y-16054960D01*
X15281120Y-16169246D01*
X15323977Y-16169246D01*
X15352548Y-16183532D01*
X15366834Y-16197817D01*
X15381120Y-16226389D01*
X15381120Y-16297817D01*
X15366834Y-16326389D01*
X15352548Y-16340675D01*
X15323977Y-16354960D01*
X15238263Y-16354960D01*
X15209691Y-16340675D01*
X15195406Y-16326389D01*
X15666834Y-16354960D02*
X15495406Y-16354960D01*
X15581120Y-16354960D02*
X15581120Y-16054960D01*
X15552548Y-16097817D01*
X15523977Y-16126389D01*
X15495406Y-16140675D01*
X15938263Y-16054960D02*
X15795406Y-16054960D01*
X15781120Y-16197817D01*
X15795406Y-16183532D01*
X15823977Y-16169246D01*
X15895406Y-16169246D01*
X15923977Y-16183532D01*
X15938263Y-16197817D01*
X15952548Y-16226389D01*
X15952548Y-16297817D01*
X15938263Y-16326389D01*
X15923977Y-16340675D01*
X15895406Y-16354960D01*
X15823977Y-16354960D01*
X15795406Y-16340675D01*
X15781120Y-16326389D01*
X16066834Y-16054960D02*
X16066834Y-16112103D01*
X16181120Y-16054960D02*
X16181120Y-16112103D01*
X16623977Y-16469246D02*
X16609691Y-16454960D01*
X16581120Y-16412103D01*
X16566834Y-16383532D01*
X16552548Y-16340675D01*
X16538263Y-16269246D01*
X16538263Y-16212103D01*
X16552548Y-16140675D01*
X16566834Y-16097817D01*
X16581120Y-16069246D01*
X16609691Y-16026389D01*
X16623977Y-16012103D01*
X16866834Y-16154960D02*
X16866834Y-16354960D01*
X16795406Y-16040675D02*
X16723977Y-16254960D01*
X16909691Y-16254960D01*
X17066834Y-16183532D02*
X17038263Y-16169246D01*
X17023977Y-16154960D01*
X17009691Y-16126389D01*
X17009691Y-16112103D01*
X17023977Y-16083532D01*
X17038263Y-16069246D01*
X17066834Y-16054960D01*
X17123977Y-16054960D01*
X17152548Y-16069246D01*
X17166834Y-16083532D01*
X17181120Y-16112103D01*
X17181120Y-16126389D01*
X17166834Y-16154960D01*
X17152548Y-16169246D01*
X17123977Y-16183532D01*
X17066834Y-16183532D01*
X17038263Y-16197817D01*
X17023977Y-16212103D01*
X17009691Y-16240675D01*
X17009691Y-16297817D01*
X17023977Y-16326389D01*
X17038263Y-16340675D01*
X17066834Y-16354960D01*
X17123977Y-16354960D01*
X17152548Y-16340675D01*
X17166834Y-16326389D01*
X17181120Y-16297817D01*
X17181120Y-16240675D01*
X17166834Y-16212103D01*
X17152548Y-16197817D01*
X17123977Y-16183532D01*
X17538263Y-16354960D02*
X17538263Y-16054960D01*
X17666834Y-16354960D02*
X17666834Y-16197817D01*
X17652548Y-16169246D01*
X17623977Y-16154960D01*
X17581120Y-16154960D01*
X17552548Y-16169246D01*
X17538263Y-16183532D01*
X17852548Y-16354960D02*
X17823977Y-16340675D01*
X17809691Y-16326389D01*
X17795406Y-16297817D01*
X17795406Y-16212103D01*
X17809691Y-16183532D01*
X17823977Y-16169246D01*
X17852548Y-16154960D01*
X17895406Y-16154960D01*
X17923977Y-16169246D01*
X17938263Y-16183532D01*
X17952548Y-16212103D01*
X17952548Y-16297817D01*
X17938263Y-16326389D01*
X17923977Y-16340675D01*
X17895406Y-16354960D01*
X17852548Y-16354960D01*
X18123977Y-16354960D02*
X18095406Y-16340675D01*
X18081120Y-16312103D01*
X18081120Y-16054960D01*
X18352548Y-16340675D02*
X18323977Y-16354960D01*
X18266834Y-16354960D01*
X18238263Y-16340675D01*
X18223977Y-16312103D01*
X18223977Y-16197817D01*
X18238263Y-16169246D01*
X18266834Y-16154960D01*
X18323977Y-16154960D01*
X18352548Y-16169246D01*
X18366834Y-16197817D01*
X18366834Y-16226389D01*
X18223977Y-16254960D01*
X18481120Y-16340675D02*
X18509691Y-16354960D01*
X18566834Y-16354960D01*
X18595406Y-16340675D01*
X18609691Y-16312103D01*
X18609691Y-16297817D01*
X18595406Y-16269246D01*
X18566834Y-16254960D01*
X18523977Y-16254960D01*
X18495406Y-16240675D01*
X18481120Y-16212103D01*
X18481120Y-16197817D01*
X18495406Y-16169246D01*
X18523977Y-16154960D01*
X18566834Y-16154960D01*
X18595406Y-16169246D01*
X18709691Y-16469246D02*
X18723977Y-16454960D01*
X18752548Y-16412103D01*
X18766834Y-16383532D01*
X18781120Y-16340675D01*
X18795406Y-16269246D01*
X18795406Y-16212103D01*
X18781120Y-16140675D01*
X18766834Y-16097817D01*
X18752548Y-16069246D01*
X18723977Y-16026389D01*
X18709691Y-16012103D01*
X11316120Y-16565246D02*
X11316120Y-16665246D01*
X11266120Y-16615246D02*
X11366120Y-16615246D01*
X11809691Y-16750960D02*
X11638263Y-16750960D01*
X11723977Y-16750960D02*
X11723977Y-16450960D01*
X11695406Y-16493817D01*
X11666834Y-16522389D01*
X11638263Y-16536675D01*
X11938263Y-16722389D02*
X11952548Y-16736675D01*
X11938263Y-16750960D01*
X11923977Y-16736675D01*
X11938263Y-16722389D01*
X11938263Y-16750960D01*
X12138263Y-16450960D02*
X12166834Y-16450960D01*
X12195406Y-16465246D01*
X12209691Y-16479532D01*
X12223977Y-16508103D01*
X12238263Y-16565246D01*
X12238263Y-16636675D01*
X12223977Y-16693817D01*
X12209691Y-16722389D01*
X12195406Y-16736675D01*
X12166834Y-16750960D01*
X12138263Y-16750960D01*
X12109691Y-16736675D01*
X12095406Y-16722389D01*
X12081120Y-16693817D01*
X12066834Y-16636675D01*
X12066834Y-16565246D01*
X12081120Y-16508103D01*
X12095406Y-16479532D01*
X12109691Y-16465246D01*
X12138263Y-16450960D01*
X12423977Y-16450960D02*
X12452548Y-16450960D01*
X12481120Y-16465246D01*
X12495406Y-16479532D01*
X12509691Y-16508103D01*
X12523977Y-16565246D01*
X12523977Y-16636675D01*
X12509691Y-16693817D01*
X12495406Y-16722389D01*
X12481120Y-16736675D01*
X12452548Y-16750960D01*
X12423977Y-16750960D01*
X12395406Y-16736675D01*
X12381120Y-16722389D01*
X12366834Y-16693817D01*
X12352548Y-16636675D01*
X12352548Y-16565246D01*
X12366834Y-16508103D01*
X12381120Y-16479532D01*
X12395406Y-16465246D01*
X12423977Y-16450960D01*
X12709691Y-16450960D02*
X12738263Y-16450960D01*
X12766834Y-16465246D01*
X12781120Y-16479532D01*
X12795406Y-16508103D01*
X12809691Y-16565246D01*
X12809691Y-16636675D01*
X12795406Y-16693817D01*
X12781120Y-16722389D01*
X12766834Y-16736675D01*
X12738263Y-16750960D01*
X12709691Y-16750960D01*
X12681120Y-16736675D01*
X12666834Y-16722389D01*
X12652548Y-16693817D01*
X12638263Y-16636675D01*
X12638263Y-16565246D01*
X12652548Y-16508103D01*
X12666834Y-16479532D01*
X12681120Y-16465246D01*
X12709691Y-16450960D01*
X12938263Y-16750960D02*
X12938263Y-16550960D01*
X12938263Y-16579532D02*
X12952548Y-16565246D01*
X12981120Y-16550960D01*
X13023977Y-16550960D01*
X13052548Y-16565246D01*
X13066834Y-16593817D01*
X13066834Y-16750960D01*
X13066834Y-16593817D02*
X13081120Y-16565246D01*
X13109691Y-16550960D01*
X13152548Y-16550960D01*
X13181120Y-16565246D01*
X13195406Y-16593817D01*
X13195406Y-16750960D01*
X13338263Y-16750960D02*
X13338263Y-16550960D01*
X13338263Y-16579532D02*
X13352548Y-16565246D01*
X13381120Y-16550960D01*
X13423977Y-16550960D01*
X13452548Y-16565246D01*
X13466834Y-16593817D01*
X13466834Y-16750960D01*
X13466834Y-16593817D02*
X13481120Y-16565246D01*
X13509691Y-16550960D01*
X13552548Y-16550960D01*
X13581120Y-16565246D01*
X13595406Y-16593817D01*
X13595406Y-16750960D01*
X14181120Y-16436675D02*
X13923977Y-16822389D01*
X14566834Y-16450960D02*
X14595406Y-16450960D01*
X14623977Y-16465246D01*
X14638263Y-16479532D01*
X14652548Y-16508103D01*
X14666834Y-16565246D01*
X14666834Y-16636675D01*
X14652548Y-16693817D01*
X14638263Y-16722389D01*
X14623977Y-16736675D01*
X14595406Y-16750960D01*
X14566834Y-16750960D01*
X14538263Y-16736675D01*
X14523977Y-16722389D01*
X14509691Y-16693817D01*
X14495406Y-16636675D01*
X14495406Y-16565246D01*
X14509691Y-16508103D01*
X14523977Y-16479532D01*
X14538263Y-16465246D01*
X14566834Y-16450960D01*
X14795406Y-16722389D02*
X14809691Y-16736675D01*
X14795406Y-16750960D01*
X14781120Y-16736675D01*
X14795406Y-16722389D01*
X14795406Y-16750960D01*
X14995406Y-16450960D02*
X15023977Y-16450960D01*
X15052548Y-16465246D01*
X15066834Y-16479532D01*
X15081120Y-16508103D01*
X15095406Y-16565246D01*
X15095406Y-16636675D01*
X15081120Y-16693817D01*
X15066834Y-16722389D01*
X15052548Y-16736675D01*
X15023977Y-16750960D01*
X14995406Y-16750960D01*
X14966834Y-16736675D01*
X14952548Y-16722389D01*
X14938263Y-16693817D01*
X14923977Y-16636675D01*
X14923977Y-16565246D01*
X14938263Y-16508103D01*
X14952548Y-16479532D01*
X14966834Y-16465246D01*
X14995406Y-16450960D01*
X15195406Y-16450960D02*
X15381120Y-16450960D01*
X15281120Y-16565246D01*
X15323977Y-16565246D01*
X15352548Y-16579532D01*
X15366834Y-16593817D01*
X15381120Y-16622389D01*
X15381120Y-16693817D01*
X15366834Y-16722389D01*
X15352548Y-16736675D01*
X15323977Y-16750960D01*
X15238263Y-16750960D01*
X15209691Y-16736675D01*
X15195406Y-16722389D01*
X15523977Y-16750960D02*
X15581120Y-16750960D01*
X15609691Y-16736675D01*
X15623977Y-16722389D01*
X15652548Y-16679532D01*
X15666834Y-16622389D01*
X15666834Y-16508103D01*
X15652548Y-16479532D01*
X15638263Y-16465246D01*
X15609691Y-16450960D01*
X15552548Y-16450960D01*
X15523977Y-16465246D01*
X15509691Y-16479532D01*
X15495406Y-16508103D01*
X15495406Y-16579532D01*
X15509691Y-16608103D01*
X15523977Y-16622389D01*
X15552548Y-16636675D01*
X15609691Y-16636675D01*
X15638263Y-16622389D01*
X15652548Y-16608103D01*
X15666834Y-16579532D01*
X15923977Y-16550960D02*
X15923977Y-16750960D01*
X15852548Y-16436675D02*
X15781120Y-16650960D01*
X15966834Y-16650960D01*
X16066834Y-16450960D02*
X16066834Y-16508103D01*
X16181120Y-16450960D02*
X16181120Y-16508103D01*
X16623977Y-16865246D02*
X16609691Y-16850960D01*
X16581120Y-16808103D01*
X16566834Y-16779532D01*
X16552548Y-16736675D01*
X16538263Y-16665246D01*
X16538263Y-16608103D01*
X16552548Y-16536675D01*
X16566834Y-16493817D01*
X16581120Y-16465246D01*
X16609691Y-16422389D01*
X16623977Y-16408103D01*
X16866834Y-16550960D02*
X16866834Y-16750960D01*
X16795406Y-16436675D02*
X16723977Y-16650960D01*
X16909691Y-16650960D01*
X17252548Y-16750960D02*
X17252548Y-16450960D01*
X17381120Y-16750960D02*
X17381120Y-16593817D01*
X17366834Y-16565246D01*
X17338263Y-16550960D01*
X17295406Y-16550960D01*
X17266834Y-16565246D01*
X17252548Y-16579532D01*
X17566834Y-16750960D02*
X17538263Y-16736675D01*
X17523977Y-16722389D01*
X17509691Y-16693817D01*
X17509691Y-16608103D01*
X17523977Y-16579532D01*
X17538263Y-16565246D01*
X17566834Y-16550960D01*
X17609691Y-16550960D01*
X17638263Y-16565246D01*
X17652548Y-16579532D01*
X17666834Y-16608103D01*
X17666834Y-16693817D01*
X17652548Y-16722389D01*
X17638263Y-16736675D01*
X17609691Y-16750960D01*
X17566834Y-16750960D01*
X17838263Y-16750960D02*
X17809691Y-16736675D01*
X17795406Y-16708103D01*
X17795406Y-16450960D01*
X18066834Y-16736675D02*
X18038263Y-16750960D01*
X17981120Y-16750960D01*
X17952548Y-16736675D01*
X17938263Y-16708103D01*
X17938263Y-16593817D01*
X17952548Y-16565246D01*
X17981120Y-16550960D01*
X18038263Y-16550960D01*
X18066834Y-16565246D01*
X18081120Y-16593817D01*
X18081120Y-16622389D01*
X17938263Y-16650960D01*
X18195406Y-16736675D02*
X18223977Y-16750960D01*
X18281120Y-16750960D01*
X18309691Y-16736675D01*
X18323977Y-16708103D01*
X18323977Y-16693817D01*
X18309691Y-16665246D01*
X18281120Y-16650960D01*
X18238263Y-16650960D01*
X18209691Y-16636675D01*
X18195406Y-16608103D01*
X18195406Y-16593817D01*
X18209691Y-16565246D01*
X18238263Y-16550960D01*
X18281120Y-16550960D01*
X18309691Y-16565246D01*
X18423977Y-16865246D02*
X18438263Y-16850960D01*
X18466834Y-16808103D01*
X18481120Y-16779532D01*
X18495406Y-16736675D01*
X18509691Y-16665246D01*
X18509691Y-16608103D01*
X18495406Y-16536675D01*
X18481120Y-16493817D01*
X18466834Y-16465246D01*
X18438263Y-16422389D01*
X18423977Y-16408103D01*
X11348547Y-17053673D02*
X11348547Y-16968819D01*
X11263693Y-16968819D01*
X11263693Y-17053673D01*
X11348547Y-17053673D01*
X11809691Y-17146960D02*
X11638263Y-17146960D01*
X11723977Y-17146960D02*
X11723977Y-16846960D01*
X11695406Y-16889818D01*
X11666834Y-16918389D01*
X11638263Y-16932675D01*
X11938263Y-17118389D02*
X11952548Y-17132675D01*
X11938263Y-17146960D01*
X11923977Y-17132675D01*
X11938263Y-17118389D01*
X11938263Y-17146960D01*
X12066834Y-16875532D02*
X12081120Y-16861246D01*
X12109691Y-16846960D01*
X12181120Y-16846960D01*
X12209691Y-16861246D01*
X12223977Y-16875532D01*
X12238263Y-16904103D01*
X12238263Y-16932675D01*
X12223977Y-16975532D01*
X12052548Y-17146960D01*
X12238263Y-17146960D01*
X12423977Y-16846960D02*
X12452548Y-16846960D01*
X12481120Y-16861246D01*
X12495406Y-16875532D01*
X12509691Y-16904103D01*
X12523977Y-16961246D01*
X12523977Y-17032675D01*
X12509691Y-17089818D01*
X12495406Y-17118389D01*
X12481120Y-17132675D01*
X12452548Y-17146960D01*
X12423977Y-17146960D01*
X12395406Y-17132675D01*
X12381120Y-17118389D01*
X12366834Y-17089818D01*
X12352548Y-17032675D01*
X12352548Y-16961246D01*
X12366834Y-16904103D01*
X12381120Y-16875532D01*
X12395406Y-16861246D01*
X12423977Y-16846960D01*
X12709691Y-16846960D02*
X12738263Y-16846960D01*
X12766834Y-16861246D01*
X12781120Y-16875532D01*
X12795406Y-16904103D01*
X12809691Y-16961246D01*
X12809691Y-17032675D01*
X12795406Y-17089818D01*
X12781120Y-17118389D01*
X12766834Y-17132675D01*
X12738263Y-17146960D01*
X12709691Y-17146960D01*
X12681120Y-17132675D01*
X12666834Y-17118389D01*
X12652548Y-17089818D01*
X12638263Y-17032675D01*
X12638263Y-16961246D01*
X12652548Y-16904103D01*
X12666834Y-16875532D01*
X12681120Y-16861246D01*
X12709691Y-16846960D01*
X12938263Y-17146960D02*
X12938263Y-16946960D01*
X12938263Y-16975532D02*
X12952548Y-16961246D01*
X12981120Y-16946960D01*
X13023977Y-16946960D01*
X13052548Y-16961246D01*
X13066834Y-16989818D01*
X13066834Y-17146960D01*
X13066834Y-16989818D02*
X13081120Y-16961246D01*
X13109691Y-16946960D01*
X13152548Y-16946960D01*
X13181120Y-16961246D01*
X13195406Y-16989818D01*
X13195406Y-17146960D01*
X13338263Y-17146960D02*
X13338263Y-16946960D01*
X13338263Y-16975532D02*
X13352548Y-16961246D01*
X13381120Y-16946960D01*
X13423977Y-16946960D01*
X13452548Y-16961246D01*
X13466834Y-16989818D01*
X13466834Y-17146960D01*
X13466834Y-16989818D02*
X13481120Y-16961246D01*
X13509691Y-16946960D01*
X13552548Y-16946960D01*
X13581120Y-16961246D01*
X13595406Y-16989818D01*
X13595406Y-17146960D01*
X14181120Y-16832675D02*
X13923977Y-17218389D01*
X14566834Y-16846960D02*
X14595406Y-16846960D01*
X14623977Y-16861246D01*
X14638263Y-16875532D01*
X14652548Y-16904103D01*
X14666834Y-16961246D01*
X14666834Y-17032675D01*
X14652548Y-17089818D01*
X14638263Y-17118389D01*
X14623977Y-17132675D01*
X14595406Y-17146960D01*
X14566834Y-17146960D01*
X14538263Y-17132675D01*
X14523977Y-17118389D01*
X14509691Y-17089818D01*
X14495406Y-17032675D01*
X14495406Y-16961246D01*
X14509691Y-16904103D01*
X14523977Y-16875532D01*
X14538263Y-16861246D01*
X14566834Y-16846960D01*
X14795406Y-17118389D02*
X14809691Y-17132675D01*
X14795406Y-17146960D01*
X14781120Y-17132675D01*
X14795406Y-17118389D01*
X14795406Y-17146960D01*
X14995406Y-16846960D02*
X15023977Y-16846960D01*
X15052548Y-16861246D01*
X15066834Y-16875532D01*
X15081120Y-16904103D01*
X15095406Y-16961246D01*
X15095406Y-17032675D01*
X15081120Y-17089818D01*
X15066834Y-17118389D01*
X15052548Y-17132675D01*
X15023977Y-17146960D01*
X14995406Y-17146960D01*
X14966834Y-17132675D01*
X14952548Y-17118389D01*
X14938263Y-17089818D01*
X14923977Y-17032675D01*
X14923977Y-16961246D01*
X14938263Y-16904103D01*
X14952548Y-16875532D01*
X14966834Y-16861246D01*
X14995406Y-16846960D01*
X15352548Y-16946960D02*
X15352548Y-17146960D01*
X15281120Y-16832675D02*
X15209691Y-17046960D01*
X15395406Y-17046960D01*
X15481120Y-16846960D02*
X15681120Y-16846960D01*
X15552548Y-17146960D01*
X15781120Y-16875532D02*
X15795406Y-16861246D01*
X15823977Y-16846960D01*
X15895406Y-16846960D01*
X15923977Y-16861246D01*
X15938263Y-16875532D01*
X15952548Y-16904103D01*
X15952548Y-16932675D01*
X15938263Y-16975532D01*
X15766834Y-17146960D01*
X15952548Y-17146960D01*
X16066834Y-16846960D02*
X16066834Y-16904103D01*
X16181120Y-16846960D02*
X16181120Y-16904103D01*
X16623977Y-17261246D02*
X16609691Y-17246960D01*
X16581120Y-17204103D01*
X16566834Y-17175532D01*
X16552548Y-17132675D01*
X16538263Y-17061246D01*
X16538263Y-17004103D01*
X16552548Y-16932675D01*
X16566834Y-16889818D01*
X16581120Y-16861246D01*
X16609691Y-16818389D01*
X16623977Y-16804103D01*
X16723977Y-16875532D02*
X16738263Y-16861246D01*
X16766834Y-16846960D01*
X16838263Y-16846960D01*
X16866834Y-16861246D01*
X16881120Y-16875532D01*
X16895406Y-16904103D01*
X16895406Y-16932675D01*
X16881120Y-16975532D01*
X16709691Y-17146960D01*
X16895406Y-17146960D01*
X17252548Y-17146960D02*
X17252548Y-16846960D01*
X17381120Y-17146960D02*
X17381120Y-16989818D01*
X17366834Y-16961246D01*
X17338263Y-16946960D01*
X17295406Y-16946960D01*
X17266834Y-16961246D01*
X17252548Y-16975532D01*
X17566834Y-17146960D02*
X17538263Y-17132675D01*
X17523977Y-17118389D01*
X17509691Y-17089818D01*
X17509691Y-17004103D01*
X17523977Y-16975532D01*
X17538263Y-16961246D01*
X17566834Y-16946960D01*
X17609691Y-16946960D01*
X17638263Y-16961246D01*
X17652548Y-16975532D01*
X17666834Y-17004103D01*
X17666834Y-17089818D01*
X17652548Y-17118389D01*
X17638263Y-17132675D01*
X17609691Y-17146960D01*
X17566834Y-17146960D01*
X17838263Y-17146960D02*
X17809691Y-17132675D01*
X17795406Y-17104103D01*
X17795406Y-16846960D01*
X18066834Y-17132675D02*
X18038263Y-17146960D01*
X17981120Y-17146960D01*
X17952548Y-17132675D01*
X17938263Y-17104103D01*
X17938263Y-16989818D01*
X17952548Y-16961246D01*
X17981120Y-16946960D01*
X18038263Y-16946960D01*
X18066834Y-16961246D01*
X18081120Y-16989818D01*
X18081120Y-17018389D01*
X17938263Y-17046960D01*
X18195406Y-17132675D02*
X18223977Y-17146960D01*
X18281120Y-17146960D01*
X18309691Y-17132675D01*
X18323977Y-17104103D01*
X18323977Y-17089818D01*
X18309691Y-17061246D01*
X18281120Y-17046960D01*
X18238263Y-17046960D01*
X18209691Y-17032675D01*
X18195406Y-17004103D01*
X18195406Y-16989818D01*
X18209691Y-16961246D01*
X18238263Y-16946960D01*
X18281120Y-16946960D01*
X18309691Y-16961246D01*
X18423977Y-17261246D02*
X18438263Y-17246960D01*
X18466834Y-17204103D01*
X18481120Y-17175532D01*
X18495406Y-17132675D01*
X18509691Y-17061246D01*
X18509691Y-17004103D01*
X18495406Y-16932675D01*
X18481120Y-16889818D01*
X18466834Y-16861246D01*
X18438263Y-16818389D01*
X18423977Y-16804103D01*
M02*
