G04 #@! TF.GenerationSoftware,KiCad,Pcbnew,(5.1.12)-1*
G04 #@! TF.CreationDate,2022-10-28T14:48:17+01:00*
G04 #@! TF.ProjectId,Apple-1 EPROM,4170706c-652d-4312-9045-50524f4d2e6b,rev?*
G04 #@! TF.SameCoordinates,Original*
G04 #@! TF.FileFunction,Copper,L1,Top*
G04 #@! TF.FilePolarity,Positive*
%FSLAX46Y46*%
G04 Gerber Fmt 4.6, Leading zero omitted, Abs format (unit mm)*
G04 Created by KiCad (PCBNEW (5.1.12)-1) date 2022-10-28 14:48:17*
%MOMM*%
%LPD*%
G01*
G04 APERTURE LIST*
G04 #@! TA.AperFunction,ComponentPad*
%ADD10R,1.700000X1.700000*%
G04 #@! TD*
G04 #@! TA.AperFunction,ComponentPad*
%ADD11O,1.700000X1.700000*%
G04 #@! TD*
G04 #@! TA.AperFunction,ComponentPad*
%ADD12R,1.600000X1.600000*%
G04 #@! TD*
G04 #@! TA.AperFunction,ComponentPad*
%ADD13O,1.600000X1.600000*%
G04 #@! TD*
G04 #@! TA.AperFunction,ComponentPad*
%ADD14C,2.400000*%
G04 #@! TD*
G04 #@! TA.AperFunction,ComponentPad*
%ADD15O,2.400000X2.400000*%
G04 #@! TD*
G04 #@! TA.AperFunction,ConnectorPad*
%ADD16R,2.540000X10.000000*%
G04 #@! TD*
G04 #@! TA.AperFunction,ViaPad*
%ADD17C,0.800000*%
G04 #@! TD*
G04 #@! TA.AperFunction,Conductor*
%ADD18C,0.250000*%
G04 #@! TD*
G04 APERTURE END LIST*
D10*
X117526200Y-132607460D03*
D11*
X117526200Y-135147460D03*
D12*
X194866200Y-128807460D03*
D13*
X179626200Y-100867460D03*
X194866200Y-126267460D03*
X179626200Y-103407460D03*
X194866200Y-123727460D03*
X179626200Y-105947460D03*
X194866200Y-121187460D03*
X179626200Y-108487460D03*
X194866200Y-118647460D03*
X179626200Y-111027460D03*
X194866200Y-116107460D03*
X179626200Y-113567460D03*
X194866200Y-113567460D03*
X179626200Y-116107460D03*
X194866200Y-111027460D03*
X179626200Y-118647460D03*
X194866200Y-108487460D03*
X179626200Y-121187460D03*
X194866200Y-105947460D03*
X179626200Y-123727460D03*
X194866200Y-103407460D03*
X179626200Y-126267460D03*
X194866200Y-100867460D03*
X179626200Y-128807460D03*
D10*
X169126200Y-132767460D03*
D11*
X169126200Y-135307460D03*
D14*
X204766200Y-114947460D03*
D15*
X204766200Y-99707460D03*
D12*
X143386200Y-128807460D03*
D13*
X128146200Y-100867460D03*
X143386200Y-126267460D03*
X128146200Y-103407460D03*
X143386200Y-123727460D03*
X128146200Y-105947460D03*
X143386200Y-121187460D03*
X128146200Y-108487460D03*
X143386200Y-118647460D03*
X128146200Y-111027460D03*
X143386200Y-116107460D03*
X128146200Y-113567460D03*
X143386200Y-113567460D03*
X128146200Y-116107460D03*
X143386200Y-111027460D03*
X128146200Y-118647460D03*
X143386200Y-108487460D03*
X128146200Y-121187460D03*
X143386200Y-105947460D03*
X128146200Y-123727460D03*
X143386200Y-103407460D03*
X128146200Y-126267460D03*
X143386200Y-100867460D03*
X128146200Y-128807460D03*
D16*
X129560000Y-143580000D03*
X133520000Y-143580000D03*
X137480000Y-143580000D03*
X141440000Y-143580000D03*
X145400000Y-143580000D03*
X149360000Y-143580000D03*
X153320000Y-143580000D03*
X157280000Y-143580000D03*
X161240000Y-143580000D03*
X165200000Y-143580000D03*
X169160000Y-143580000D03*
X173120000Y-143580000D03*
X177080000Y-143580000D03*
X181040000Y-143580000D03*
X185000000Y-143580000D03*
X188960000Y-143580000D03*
X192920000Y-143580000D03*
X196880000Y-143580000D03*
X200840000Y-143580000D03*
X204800000Y-143580000D03*
X208760000Y-143580000D03*
X212720000Y-143580000D03*
D17*
X125566200Y-109007460D03*
X184966200Y-130787460D03*
X182986200Y-132767460D03*
X161206200Y-134747460D03*
X157246200Y-132767460D03*
X121606200Y-116927460D03*
X177046200Y-132767460D03*
X124276200Y-118607460D03*
D18*
X213000000Y-140760000D02*
X212720000Y-141040000D01*
X178501199Y-129932461D02*
X179626200Y-128807460D01*
X129271201Y-129932461D02*
X178501199Y-129932461D01*
X128146200Y-128807460D02*
X129271201Y-129932461D01*
X125566200Y-101782458D02*
X125566200Y-109007460D01*
X194956192Y-99292450D02*
X128056208Y-99292450D01*
X212720000Y-117056258D02*
X194956192Y-99292450D01*
X128056208Y-99292450D02*
X125566200Y-101782458D01*
X212720000Y-141040000D02*
X212720000Y-117056258D01*
X193741199Y-99742459D02*
X194866200Y-100867460D01*
X144511201Y-99742459D02*
X193741199Y-99742459D01*
X143386200Y-100867460D02*
X144511201Y-99742459D01*
X204800000Y-110801260D02*
X194866200Y-100867460D01*
X204800000Y-114913660D02*
X204766200Y-114947460D01*
X204800000Y-110801260D02*
X204800000Y-114913660D01*
X204766200Y-141006200D02*
X204800000Y-141040000D01*
X204766200Y-114947460D02*
X204766200Y-141006200D01*
X193741199Y-112442459D02*
X194866200Y-113567460D01*
X179086199Y-112442459D02*
X193741199Y-112442459D01*
X177961198Y-113567460D02*
X179086199Y-112442459D01*
X143386200Y-113567460D02*
X177961198Y-113567460D01*
X194866200Y-114442458D02*
X194866200Y-113567460D01*
X200840000Y-120416258D02*
X194866200Y-114442458D01*
X200840000Y-141040000D02*
X200840000Y-120416258D01*
X193741199Y-117522459D02*
X194866200Y-118647460D01*
X179086199Y-117522459D02*
X193741199Y-117522459D01*
X177961198Y-118647460D02*
X179086199Y-117522459D01*
X143386200Y-118647460D02*
X177961198Y-118647460D01*
X194866200Y-119522458D02*
X194866200Y-118647460D01*
X196880000Y-121536258D02*
X194866200Y-119522458D01*
X196880000Y-141040000D02*
X196880000Y-121536258D01*
X192920000Y-141040000D02*
X193125001Y-140834999D01*
X193741199Y-122602459D02*
X194866200Y-123727460D01*
X179086199Y-122602459D02*
X193741199Y-122602459D01*
X177961198Y-123727460D02*
X179086199Y-122602459D01*
X143386200Y-123727460D02*
X177961198Y-123727460D01*
X195991201Y-124852461D02*
X194866200Y-123727460D01*
X195991201Y-129867461D02*
X195991201Y-124852461D01*
X192920000Y-132938662D02*
X195991201Y-129867461D01*
X192920000Y-141040000D02*
X192920000Y-132938662D01*
X193741199Y-127682459D02*
X194866200Y-128807460D01*
X179086199Y-127682459D02*
X193741199Y-127682459D01*
X177961198Y-128807460D02*
X179086199Y-127682459D01*
X143386200Y-128807460D02*
X177961198Y-128807460D01*
X188960000Y-134713660D02*
X194866200Y-128807460D01*
X188960000Y-141040000D02*
X188960000Y-134713660D01*
X178501199Y-124852461D02*
X179626200Y-123727460D01*
X129271201Y-124852461D02*
X178501199Y-124852461D01*
X128146200Y-123727460D02*
X129271201Y-124852461D01*
X185000000Y-130821260D02*
X184966200Y-130787460D01*
X185000000Y-141040000D02*
X185000000Y-130821260D01*
X178501199Y-122312461D02*
X179626200Y-121187460D01*
X129271201Y-122312461D02*
X178501199Y-122312461D01*
X128146200Y-121187460D02*
X129271201Y-122312461D01*
X181040000Y-134713660D02*
X182986200Y-132767460D01*
X181040000Y-141040000D02*
X181040000Y-134713660D01*
X179086199Y-107362459D02*
X193741199Y-107362459D01*
X177961198Y-108487460D02*
X179086199Y-107362459D01*
X193741199Y-107362459D02*
X194866200Y-108487460D01*
X143386200Y-108487460D02*
X177961198Y-108487460D01*
X161240000Y-134781260D02*
X161206200Y-134747460D01*
X161240000Y-141040000D02*
X161240000Y-134781260D01*
X193741199Y-102282459D02*
X194866200Y-103407460D01*
X179086199Y-102282459D02*
X193741199Y-102282459D01*
X177961198Y-103407460D02*
X179086199Y-102282459D01*
X143386200Y-103407460D02*
X177961198Y-103407460D01*
X157280000Y-132801260D02*
X157246200Y-132767460D01*
X157280000Y-141040000D02*
X157280000Y-132801260D01*
X178501199Y-104532461D02*
X179626200Y-103407460D01*
X129271201Y-104532461D02*
X178501199Y-104532461D01*
X128146200Y-103407460D02*
X129271201Y-104532461D01*
X153320000Y-141040000D02*
X153320000Y-138741260D01*
X153320000Y-138741260D02*
X147346200Y-132767460D01*
X147346200Y-132767460D02*
X123586200Y-132767460D01*
X121606200Y-130787460D02*
X121606200Y-116927460D01*
X123586200Y-132767460D02*
X121606200Y-130787460D01*
X178501199Y-109612461D02*
X179626200Y-108487460D01*
X129271201Y-109612461D02*
X178501199Y-109612461D01*
X128146200Y-108487460D02*
X129271201Y-109612461D01*
X149360000Y-141040000D02*
X149360000Y-136761260D01*
X149360000Y-136761260D02*
X147346200Y-134747460D01*
X147346200Y-134747460D02*
X121606200Y-134747460D01*
X121606200Y-134747460D02*
X119626200Y-132767460D01*
X119626200Y-132767460D02*
X119626200Y-116927460D01*
X119706200Y-116927460D02*
X128146200Y-108487460D01*
X119626200Y-116927460D02*
X119706200Y-116927460D01*
X193741199Y-109902459D02*
X194866200Y-111027460D01*
X179086199Y-109902459D02*
X193741199Y-109902459D01*
X177961198Y-111027460D02*
X179086199Y-109902459D01*
X143386200Y-111027460D02*
X177961198Y-111027460D01*
X179086199Y-114982459D02*
X193741199Y-114982459D01*
X193741199Y-114982459D02*
X194866200Y-116107460D01*
X177961198Y-116107460D02*
X179086199Y-114982459D01*
X143386200Y-116107460D02*
X177961198Y-116107460D01*
X193741199Y-120062459D02*
X194866200Y-121187460D01*
X144511201Y-120062459D02*
X193741199Y-120062459D01*
X143386200Y-121187460D02*
X144511201Y-120062459D01*
X193741199Y-125142459D02*
X194866200Y-126267460D01*
X179086199Y-125142459D02*
X193741199Y-125142459D01*
X177961198Y-126267460D02*
X179086199Y-125142459D01*
X143386200Y-126267460D02*
X177961198Y-126267460D01*
X178501199Y-127392461D02*
X179626200Y-126267460D01*
X129271201Y-127392461D02*
X178501199Y-127392461D01*
X128146200Y-126267460D02*
X129271201Y-127392461D01*
X178501199Y-117232461D02*
X179626200Y-116107460D01*
X129271201Y-117232461D02*
X178501199Y-117232461D01*
X128146200Y-116107460D02*
X129271201Y-117232461D01*
X193741199Y-104822459D02*
X194866200Y-105947460D01*
X179086199Y-104822459D02*
X193741199Y-104822459D01*
X177961198Y-105947460D02*
X179086199Y-104822459D01*
X143386200Y-105947460D02*
X177961198Y-105947460D01*
X178501199Y-101992461D02*
X179626200Y-100867460D01*
X129271201Y-101992461D02*
X178501199Y-101992461D01*
X128146200Y-100867460D02*
X129271201Y-101992461D01*
X178501199Y-107072461D02*
X179626200Y-105947460D01*
X129271201Y-107072461D02*
X178501199Y-107072461D01*
X128146200Y-105947460D02*
X129271201Y-107072461D01*
X178501199Y-112152461D02*
X179626200Y-111027460D01*
X129271201Y-112152461D02*
X178501199Y-112152461D01*
X128146200Y-111027460D02*
X129271201Y-112152461D01*
X178501199Y-114692461D02*
X179626200Y-113567460D01*
X129271201Y-114692461D02*
X178501199Y-114692461D01*
X128146200Y-113567460D02*
X129271201Y-114692461D01*
X169160000Y-135341260D02*
X169126200Y-135307460D01*
X169160000Y-141040000D02*
X169160000Y-135341260D01*
X177046200Y-132767460D02*
X169126200Y-132767460D01*
X128106200Y-118607460D02*
X128146200Y-118647460D01*
X124276200Y-118607460D02*
X128106200Y-118607460D01*
M02*
