%TF.GenerationSoftware,KiCad,Pcbnew,(5.1.12)-1*%
%TF.CreationDate,2022-08-04T09:57:16+01:00*%
%TF.ProjectId,Apple-1 ROM_RAM,4170706c-652d-4312-9052-4f4d5f52414d,rev?*%
%TF.SameCoordinates,Original*%
%TF.FileFunction,Copper,L2,Bot*%
%TF.FilePolarity,Positive*%
%FSLAX46Y46*%
G04 Gerber Fmt 4.6, Leading zero omitted, Abs format (unit mm)*
G04 Created by KiCad (PCBNEW (5.1.12)-1) date 2022-08-04 09:57:16*
%MOMM*%
%LPD*%
G01*
G04 APERTURE LIST*
%TA.AperFunction,ComponentPad*%
%ADD10R,1.600000X1.600000*%
%TD*%
%TA.AperFunction,ComponentPad*%
%ADD11O,1.600000X1.600000*%
%TD*%
%TA.AperFunction,ComponentPad*%
%ADD12R,1.700000X1.700000*%
%TD*%
%TA.AperFunction,ComponentPad*%
%ADD13O,1.700000X1.700000*%
%TD*%
%TA.AperFunction,ComponentPad*%
%ADD14C,2.400000*%
%TD*%
%TA.AperFunction,ComponentPad*%
%ADD15O,2.400000X2.400000*%
%TD*%
%TA.AperFunction,ConnectorPad*%
%ADD16R,2.540000X10.000000*%
%TD*%
%TA.AperFunction,ViaPad*%
%ADD17C,0.800000*%
%TD*%
%TA.AperFunction,Conductor*%
%ADD18C,0.250000*%
%TD*%
G04 APERTURE END LIST*
D10*
%TO.P,U1,1*%
%TO.N,Net-(J1-Pad16)*%
X194866200Y-128807460D03*
D11*
%TO.P,U1,13*%
%TO.N,Net-(J1-PadH)*%
X179626200Y-100867460D03*
%TO.P,U1,2*%
%TO.N,Net-(J1-PadT)*%
X194866200Y-126267460D03*
%TO.P,U1,14*%
%TO.N,Net-(J1-Pad7)*%
X179626200Y-103407460D03*
%TO.P,U1,3*%
%TO.N,Net-(J1-Pad17)*%
X194866200Y-123727460D03*
%TO.P,U1,15*%
%TO.N,Net-(J1-PadF)*%
X179626200Y-105947460D03*
%TO.P,U1,4*%
%TO.N,Net-(J1-PadU)*%
X194866200Y-121187460D03*
%TO.P,U1,16*%
%TO.N,Net-(J1-Pad6)*%
X179626200Y-108487460D03*
%TO.P,U1,5*%
%TO.N,Net-(J1-Pad18)*%
X194866200Y-118647460D03*
%TO.P,U1,17*%
%TO.N,Net-(J1-PadE)*%
X179626200Y-111027460D03*
%TO.P,U1,6*%
%TO.N,Net-(J1-PadV)*%
X194866200Y-116107460D03*
%TO.P,U1,18*%
%TO.N,Net-(R1-Pad2)*%
X179626200Y-113567460D03*
%TO.P,U1,7*%
%TO.N,Net-(J1-Pad19)*%
X194866200Y-113567460D03*
%TO.P,U1,19*%
%TO.N,Net-(J1-PadR)*%
X179626200Y-116107460D03*
%TO.P,U1,8*%
%TO.N,Net-(J1-PadW)*%
X194866200Y-111027460D03*
%TO.P,U1,20*%
%TO.N,Net-(S1-Pad1)*%
X179626200Y-118647460D03*
%TO.P,U1,9*%
%TO.N,Net-(J1-Pad9)*%
X194866200Y-108487460D03*
%TO.P,U1,21*%
%TO.N,Net-(J1-Pad14)*%
X179626200Y-121187460D03*
%TO.P,U1,10*%
%TO.N,Net-(J1-PadJ)*%
X194866200Y-105947460D03*
%TO.P,U1,22*%
%TO.N,Net-(J1-Pad15)*%
X179626200Y-123727460D03*
%TO.P,U1,11*%
%TO.N,Net-(J1-Pad8)*%
X194866200Y-103407460D03*
%TO.P,U1,23*%
%TO.N,Net-(J1-PadS)*%
X179626200Y-126267460D03*
%TO.P,U1,12*%
%TO.N,Net-(J1-Pad20)*%
X194866200Y-100867460D03*
%TO.P,U1,24*%
%TO.N,Net-(J1-Pad22)*%
X179626200Y-128807460D03*
%TD*%
D12*
%TO.P,T1,1*%
%TO.N,Net-(T1-Pad1)*%
X208726200Y-132767460D03*
D13*
%TO.P,T1,2*%
%TO.N,/T*%
X208726200Y-135307460D03*
%TD*%
D12*
%TO.P,S1,1*%
%TO.N,Net-(S1-Pad1)*%
X169126200Y-132767460D03*
D13*
%TO.P,S1,2*%
%TO.N,/S*%
X169126200Y-135307460D03*
%TD*%
D14*
%TO.P,R1,1*%
%TO.N,Net-(J1-Pad20)*%
X204766200Y-114947460D03*
D15*
%TO.P,R1,2*%
%TO.N,Net-(R1-Pad2)*%
X204766200Y-99707460D03*
%TD*%
D10*
%TO.P,U2,1*%
%TO.N,Net-(J1-Pad16)*%
X143386200Y-128807460D03*
D11*
%TO.P,U2,13*%
%TO.N,Net-(J1-PadH)*%
X128146200Y-100867460D03*
%TO.P,U2,2*%
%TO.N,Net-(J1-PadT)*%
X143386200Y-126267460D03*
%TO.P,U2,14*%
%TO.N,Net-(J1-Pad7)*%
X128146200Y-103407460D03*
%TO.P,U2,3*%
%TO.N,Net-(J1-Pad17)*%
X143386200Y-123727460D03*
%TO.P,U2,15*%
%TO.N,Net-(J1-PadF)*%
X128146200Y-105947460D03*
%TO.P,U2,4*%
%TO.N,Net-(J1-PadU)*%
X143386200Y-121187460D03*
%TO.P,U2,16*%
%TO.N,Net-(J1-Pad6)*%
X128146200Y-108487460D03*
%TO.P,U2,5*%
%TO.N,Net-(J1-Pad18)*%
X143386200Y-118647460D03*
%TO.P,U2,17*%
%TO.N,Net-(J1-PadE)*%
X128146200Y-111027460D03*
%TO.P,U2,6*%
%TO.N,Net-(J1-PadV)*%
X143386200Y-116107460D03*
%TO.P,U2,18*%
%TO.N,Net-(R1-Pad2)*%
X128146200Y-113567460D03*
%TO.P,U2,7*%
%TO.N,Net-(J1-Pad19)*%
X143386200Y-113567460D03*
%TO.P,U2,19*%
%TO.N,Net-(J1-PadR)*%
X128146200Y-116107460D03*
%TO.P,U2,8*%
%TO.N,Net-(J1-PadW)*%
X143386200Y-111027460D03*
%TO.P,U2,20*%
%TO.N,Net-(T1-Pad1)*%
X128146200Y-118647460D03*
%TO.P,U2,9*%
%TO.N,Net-(J1-Pad9)*%
X143386200Y-108487460D03*
%TO.P,U2,21*%
%TO.N,Net-(J1-Pad14)*%
X128146200Y-121187460D03*
%TO.P,U2,10*%
%TO.N,Net-(J1-PadJ)*%
X143386200Y-105947460D03*
%TO.P,U2,22*%
%TO.N,Net-(J1-Pad15)*%
X128146200Y-123727460D03*
%TO.P,U2,11*%
%TO.N,Net-(J1-Pad8)*%
X143386200Y-103407460D03*
%TO.P,U2,23*%
%TO.N,Net-(J1-PadS)*%
X128146200Y-126267460D03*
%TO.P,U2,12*%
%TO.N,Net-(J1-Pad20)*%
X143386200Y-100867460D03*
%TO.P,U2,24*%
%TO.N,Net-(J1-Pad22)*%
X128146200Y-128807460D03*
%TD*%
D16*
%TO.P,J1,Z*%
%TO.N,Net-(J1-PadZ)*%
X212720000Y-143580000D03*
%TO.P,J1,Y*%
%TO.N,Net-(J1-PadY)*%
X208760000Y-143580000D03*
%TO.P,J1,X*%
%TO.N,Net-(J1-PadX)*%
X204800000Y-143580000D03*
%TO.P,J1,W*%
%TO.N,Net-(J1-PadW)*%
X200840000Y-143580000D03*
%TO.P,J1,V*%
%TO.N,Net-(J1-PadV)*%
X196880000Y-143580000D03*
%TO.P,J1,U*%
%TO.N,Net-(J1-PadU)*%
X192920000Y-143580000D03*
%TO.P,J1,T*%
%TO.N,Net-(J1-PadT)*%
X188960000Y-143580000D03*
%TO.P,J1,S*%
%TO.N,Net-(J1-PadS)*%
X185000000Y-143580000D03*
%TO.P,J1,R*%
%TO.N,Net-(J1-PadR)*%
X181040000Y-143580000D03*
%TO.P,J1,P*%
%TO.N,Net-(J1-PadP)*%
X177080000Y-143580000D03*
%TO.P,J1,N*%
%TO.N,Net-(J1-PadN)*%
X173120000Y-143580000D03*
%TO.P,J1,M*%
%TO.N,Net-(J1-PadM)*%
X169160000Y-143580000D03*
%TO.P,J1,L*%
%TO.N,Net-(J1-PadL)*%
X165200000Y-143580000D03*
%TO.P,J1,K*%
%TO.N,Net-(J1-PadK)*%
X161240000Y-143580000D03*
%TO.P,J1,J*%
%TO.N,Net-(J1-PadJ)*%
X157280000Y-143580000D03*
%TO.P,J1,H*%
%TO.N,Net-(J1-PadH)*%
X153320000Y-143580000D03*
%TO.P,J1,F*%
%TO.N,Net-(J1-PadF)*%
X149360000Y-143580000D03*
%TO.P,J1,E*%
%TO.N,Net-(J1-PadE)*%
X145400000Y-143580000D03*
%TO.P,J1,D*%
%TO.N,Net-(J1-PadD)*%
X141440000Y-143580000D03*
%TO.P,J1,C*%
%TO.N,Net-(J1-PadC)*%
X137480000Y-143580000D03*
%TO.P,J1,B*%
%TO.N,Net-(J1-PadB)*%
X133520000Y-143580000D03*
%TO.P,J1,A*%
%TO.N,Net-(J1-PadA)*%
X129560000Y-143580000D03*
%TD*%
D17*
%TO.N,Net-(J1-Pad22)*%
X125566200Y-109007460D03*
%TO.N,Net-(J1-Pad15)*%
X184966200Y-130787460D03*
%TO.N,Net-(J1-Pad14)*%
X182986200Y-132767460D03*
%TO.N,Net-(J1-Pad9)*%
X161206200Y-134747460D03*
%TO.N,Net-(J1-Pad8)*%
X157246200Y-132767460D03*
%TO.N,Net-(J1-Pad7)*%
X121606200Y-116927460D03*
%TO.N,Net-(S1-Pad1)*%
X177046200Y-132767460D03*
%TO.N,Net-(T1-Pad1)*%
X123586200Y-120887460D03*
%TD*%
D18*
%TO.N,Net-(J1-Pad22)*%
X125566200Y-126227460D02*
X128146200Y-128807460D01*
X125566200Y-109007460D02*
X125566200Y-126227460D01*
%TO.N,Net-(J1-Pad15)*%
X184966200Y-129067460D02*
X179626200Y-123727460D01*
X184966200Y-130787460D02*
X184966200Y-129067460D01*
%TO.N,Net-(J1-Pad14)*%
X185691201Y-127252461D02*
X179626200Y-121187460D01*
X184059202Y-132767460D02*
X185691201Y-131135461D01*
X185691201Y-131135461D02*
X185691201Y-127252461D01*
X182986200Y-132767460D02*
X184059202Y-132767460D01*
%TO.N,Net-(J1-Pad9)*%
X188661199Y-114692461D02*
X194866200Y-108487460D01*
X179376197Y-114692461D02*
X188661199Y-114692461D01*
X161206200Y-132862458D02*
X179376197Y-114692461D01*
X161206200Y-134747460D02*
X161206200Y-132862458D01*
%TO.N,Net-(J1-Pad8)*%
X157246200Y-117267460D02*
X143386200Y-103407460D01*
X157246200Y-132767460D02*
X157246200Y-117267460D01*
%TO.N,Net-(J1-Pad7)*%
X121606200Y-109947460D02*
X128146200Y-103407460D01*
X121606200Y-116927460D02*
X121606200Y-109947460D01*
%TO.N,Net-(J1-PadW)*%
X200840000Y-117001260D02*
X194866200Y-111027460D01*
X200840000Y-141040000D02*
X200840000Y-117001260D01*
%TO.N,Net-(J1-PadV)*%
X196880000Y-141040000D02*
X196880000Y-136761260D01*
X196880000Y-136761260D02*
X198826200Y-134815060D01*
X198826200Y-120067460D02*
X194866200Y-116107460D01*
X198826200Y-134815060D02*
X198826200Y-120067460D01*
%TO.N,Net-(J1-PadU)*%
X192920000Y-141040000D02*
X192920000Y-134713660D01*
X192920000Y-134713660D02*
X196846200Y-130787460D01*
X196846200Y-123167460D02*
X194866200Y-121187460D01*
X196846200Y-130787460D02*
X196846200Y-123167460D01*
%TO.N,Net-(J1-PadT)*%
X188960000Y-141040000D02*
X188960000Y-130821260D01*
X193513800Y-126267460D02*
X194866200Y-126267460D01*
X188960000Y-130821260D02*
X193513800Y-126267460D01*
%TO.N,Net-(J1-PadS)*%
X185000000Y-141040000D02*
X185000000Y-136761260D01*
X178501199Y-127392461D02*
X179626200Y-126267460D01*
X178501199Y-130262459D02*
X178501199Y-127392461D01*
X185000000Y-136761260D02*
X178501199Y-130262459D01*
%TO.N,Net-(J1-PadR)*%
X175066200Y-120667460D02*
X179626200Y-116107460D01*
X175066200Y-132767460D02*
X175066200Y-120667460D01*
X181040000Y-138741260D02*
X175066200Y-132767460D01*
X181040000Y-141040000D02*
X181040000Y-138741260D01*
%TO.N,Net-(J1-PadJ)*%
X157280000Y-141040000D02*
X157280000Y-136761260D01*
X157280000Y-136761260D02*
X153286200Y-132767460D01*
X153286200Y-115847460D02*
X143386200Y-105947460D01*
X153286200Y-132767460D02*
X153286200Y-115847460D01*
%TO.N,Net-(J1-PadH)*%
X135466200Y-128807460D02*
X135466200Y-108187460D01*
X137446200Y-130787460D02*
X135466200Y-128807460D01*
X147346200Y-130787460D02*
X137446200Y-130787460D01*
X153320000Y-136761260D02*
X147346200Y-130787460D01*
X135466200Y-108187460D02*
X128146200Y-100867460D01*
X153320000Y-141040000D02*
X153320000Y-136761260D01*
%TO.N,Net-(J1-PadF)*%
X149360000Y-141040000D02*
X149360000Y-138741260D01*
X149360000Y-138741260D02*
X143386200Y-132767460D01*
X143386200Y-132767460D02*
X135466200Y-132767460D01*
X135466200Y-132767460D02*
X133486200Y-130787460D01*
X133486200Y-111287460D02*
X128146200Y-105947460D01*
X133486200Y-130787460D02*
X133486200Y-111287460D01*
%TO.N,Net-(J1-PadE)*%
X131506200Y-114387460D02*
X128146200Y-111027460D01*
X131506200Y-132767460D02*
X131506200Y-114387460D01*
X133486200Y-134747460D02*
X131506200Y-132767460D01*
X143386200Y-134747460D02*
X133486200Y-134747460D01*
X145400000Y-136761260D02*
X143386200Y-134747460D01*
X145400000Y-141040000D02*
X145400000Y-136761260D01*
%TO.N,Net-(R1-Pad2)*%
X193486200Y-99707460D02*
X179626200Y-113567460D01*
X204766200Y-99707460D02*
X193486200Y-99707460D01*
%TO.N,Net-(S1-Pad1)*%
X179626200Y-118647460D02*
X177046200Y-121227460D01*
X177046200Y-124847460D02*
X177046200Y-132767460D01*
X177046200Y-121227460D02*
X177046200Y-124847460D01*
%TO.N,Net-(T1-Pad1)*%
X208726200Y-132767460D02*
X208726200Y-99107460D01*
X207801199Y-98182459D02*
X126491201Y-98182459D01*
X208726200Y-99107460D02*
X207801199Y-98182459D01*
X126491201Y-98182459D02*
X117646200Y-107027460D01*
X117646200Y-107027460D02*
X117646200Y-114947460D01*
X117646200Y-114947460D02*
X123586200Y-120887460D01*
%TD*%
M02*
