G04 #@! TF.GenerationSoftware,KiCad,Pcbnew,(5.1.12)-1*
G04 #@! TF.CreationDate,2022-10-28T14:50:11+01:00*
G04 #@! TF.ProjectId,Apple-1 riser,4170706c-652d-4312-9072-697365722e6b,rev?*
G04 #@! TF.SameCoordinates,Original*
G04 #@! TF.FileFunction,Legend,Top*
G04 #@! TF.FilePolarity,Positive*
%FSLAX46Y46*%
G04 Gerber Fmt 4.6, Leading zero omitted, Abs format (unit mm)*
G04 Created by KiCad (PCBNEW (5.1.12)-1) date 2022-10-28 14:50:11*
%MOMM*%
%LPD*%
G01*
G04 APERTURE LIST*
%ADD10C,0.150000*%
%ADD11C,0.200000*%
%ADD12C,1.905000*%
%ADD13R,1.905000X1.905000*%
%ADD14R,2.540000X10.000000*%
G04 APERTURE END LIST*
D10*
X120488095Y-93702380D02*
X120488095Y-92702380D01*
X120964285Y-93702380D02*
X120964285Y-92702380D01*
X121535714Y-93702380D01*
X121535714Y-92702380D01*
X121964285Y-93654761D02*
X122107142Y-93702380D01*
X122345238Y-93702380D01*
X122440476Y-93654761D01*
X122488095Y-93607142D01*
X122535714Y-93511904D01*
X122535714Y-93416666D01*
X122488095Y-93321428D01*
X122440476Y-93273809D01*
X122345238Y-93226190D01*
X122154761Y-93178571D01*
X122059523Y-93130952D01*
X122011904Y-93083333D01*
X121964285Y-92988095D01*
X121964285Y-92892857D01*
X122011904Y-92797619D01*
X122059523Y-92750000D01*
X122154761Y-92702380D01*
X122392857Y-92702380D01*
X122535714Y-92750000D01*
X122821428Y-92702380D02*
X123392857Y-92702380D01*
X123107142Y-93702380D02*
X123107142Y-92702380D01*
X123678571Y-93416666D02*
X124154761Y-93416666D01*
X123583333Y-93702380D02*
X123916666Y-92702380D01*
X124250000Y-93702380D01*
X125059523Y-93702380D02*
X124583333Y-93702380D01*
X124583333Y-92702380D01*
X125869047Y-93702380D02*
X125392857Y-93702380D01*
X125392857Y-92702380D01*
X126964285Y-93702380D02*
X126964285Y-92702380D01*
X127440476Y-93702380D02*
X127440476Y-92702380D01*
X128011904Y-93702380D01*
X128011904Y-92702380D01*
X129202380Y-93416666D02*
X129678571Y-93416666D01*
X129107142Y-93702380D02*
X129440476Y-92702380D01*
X129773809Y-93702380D01*
X130107142Y-93702380D02*
X130107142Y-92702380D01*
X130488095Y-92702380D01*
X130583333Y-92750000D01*
X130630952Y-92797619D01*
X130678571Y-92892857D01*
X130678571Y-93035714D01*
X130630952Y-93130952D01*
X130583333Y-93178571D01*
X130488095Y-93226190D01*
X130107142Y-93226190D01*
X131107142Y-93702380D02*
X131107142Y-92702380D01*
X131488095Y-92702380D01*
X131583333Y-92750000D01*
X131630952Y-92797619D01*
X131678571Y-92892857D01*
X131678571Y-93035714D01*
X131630952Y-93130952D01*
X131583333Y-93178571D01*
X131488095Y-93226190D01*
X131107142Y-93226190D01*
X132583333Y-93702380D02*
X132107142Y-93702380D01*
X132107142Y-92702380D01*
X132916666Y-93178571D02*
X133250000Y-93178571D01*
X133392857Y-93702380D02*
X132916666Y-93702380D01*
X132916666Y-92702380D01*
X133392857Y-92702380D01*
X133821428Y-93321428D02*
X134583333Y-93321428D01*
X135583333Y-93702380D02*
X135011904Y-93702380D01*
X135297619Y-93702380D02*
X135297619Y-92702380D01*
X135202380Y-92845238D01*
X135107142Y-92940476D01*
X135011904Y-92988095D01*
X136726190Y-93654761D02*
X136869047Y-93702380D01*
X137107142Y-93702380D01*
X137202380Y-93654761D01*
X137250000Y-93607142D01*
X137297619Y-93511904D01*
X137297619Y-93416666D01*
X137250000Y-93321428D01*
X137202380Y-93273809D01*
X137107142Y-93226190D01*
X136916666Y-93178571D01*
X136821428Y-93130952D01*
X136773809Y-93083333D01*
X136726190Y-92988095D01*
X136726190Y-92892857D01*
X136773809Y-92797619D01*
X136821428Y-92750000D01*
X136916666Y-92702380D01*
X137154761Y-92702380D01*
X137297619Y-92750000D01*
X138202380Y-93702380D02*
X137726190Y-93702380D01*
X137726190Y-92702380D01*
X138726190Y-92702380D02*
X138916666Y-92702380D01*
X139011904Y-92750000D01*
X139107142Y-92845238D01*
X139154761Y-93035714D01*
X139154761Y-93369047D01*
X139107142Y-93559523D01*
X139011904Y-93654761D01*
X138916666Y-93702380D01*
X138726190Y-93702380D01*
X138630952Y-93654761D01*
X138535714Y-93559523D01*
X138488095Y-93369047D01*
X138488095Y-93035714D01*
X138535714Y-92845238D01*
X138630952Y-92750000D01*
X138726190Y-92702380D01*
X139440476Y-92702380D02*
X140011904Y-92702380D01*
X139726190Y-93702380D02*
X139726190Y-92702380D01*
X141011904Y-92702380D02*
X141250000Y-93702380D01*
X141440476Y-92988095D01*
X141630952Y-93702380D01*
X141869047Y-92702380D01*
X142250000Y-93702380D02*
X142250000Y-92702380D01*
X142583333Y-92702380D02*
X143154761Y-92702380D01*
X142869047Y-93702380D02*
X142869047Y-92702380D01*
X143488095Y-93702380D02*
X143488095Y-92702380D01*
X143488095Y-93178571D02*
X144059523Y-93178571D01*
X144059523Y-93702380D02*
X144059523Y-92702380D01*
X145154761Y-92702380D02*
X145726190Y-92702380D01*
X145440476Y-93702380D02*
X145440476Y-92702380D01*
X146059523Y-93702380D02*
X146059523Y-92702380D01*
X146059523Y-93178571D02*
X146630952Y-93178571D01*
X146630952Y-93702380D02*
X146630952Y-92702380D01*
X147107142Y-93702380D02*
X147107142Y-92702380D01*
X147535714Y-93654761D02*
X147678571Y-93702380D01*
X147916666Y-93702380D01*
X148011904Y-93654761D01*
X148059523Y-93607142D01*
X148107142Y-93511904D01*
X148107142Y-93416666D01*
X148059523Y-93321428D01*
X148011904Y-93273809D01*
X147916666Y-93226190D01*
X147726190Y-93178571D01*
X147630952Y-93130952D01*
X147583333Y-93083333D01*
X147535714Y-92988095D01*
X147535714Y-92892857D01*
X147583333Y-92797619D01*
X147630952Y-92750000D01*
X147726190Y-92702380D01*
X147964285Y-92702380D01*
X148107142Y-92750000D01*
X149250000Y-93654761D02*
X149392857Y-93702380D01*
X149630952Y-93702380D01*
X149726190Y-93654761D01*
X149773809Y-93607142D01*
X149821428Y-93511904D01*
X149821428Y-93416666D01*
X149773809Y-93321428D01*
X149726190Y-93273809D01*
X149630952Y-93226190D01*
X149440476Y-93178571D01*
X149345238Y-93130952D01*
X149297619Y-93083333D01*
X149250000Y-92988095D01*
X149250000Y-92892857D01*
X149297619Y-92797619D01*
X149345238Y-92750000D01*
X149440476Y-92702380D01*
X149678571Y-92702380D01*
X149821428Y-92750000D01*
X150250000Y-93702380D02*
X150250000Y-92702380D01*
X150726190Y-93702380D02*
X150726190Y-92702380D01*
X150964285Y-92702380D01*
X151107142Y-92750000D01*
X151202380Y-92845238D01*
X151250000Y-92940476D01*
X151297619Y-93130952D01*
X151297619Y-93273809D01*
X151250000Y-93464285D01*
X151202380Y-93559523D01*
X151107142Y-93654761D01*
X150964285Y-93702380D01*
X150726190Y-93702380D01*
X151726190Y-93178571D02*
X152059523Y-93178571D01*
X152202380Y-93702380D02*
X151726190Y-93702380D01*
X151726190Y-92702380D01*
X152202380Y-92702380D01*
X153345238Y-93416666D02*
X153821428Y-93416666D01*
X153250000Y-93702380D02*
X153583333Y-92702380D01*
X153916666Y-93702380D01*
X154154761Y-92702380D02*
X154392857Y-93702380D01*
X154583333Y-92988095D01*
X154773809Y-93702380D01*
X155011904Y-92702380D01*
X155345238Y-93416666D02*
X155821428Y-93416666D01*
X155250000Y-93702380D02*
X155583333Y-92702380D01*
X155916666Y-93702380D01*
X156440476Y-93226190D02*
X156440476Y-93702380D01*
X156107142Y-92702380D02*
X156440476Y-93226190D01*
X156773809Y-92702380D01*
X158202380Y-93178571D02*
X157869047Y-93178571D01*
X157869047Y-93702380D02*
X157869047Y-92702380D01*
X158345238Y-92702380D01*
X159297619Y-93702380D02*
X158964285Y-93226190D01*
X158726190Y-93702380D02*
X158726190Y-92702380D01*
X159107142Y-92702380D01*
X159202380Y-92750000D01*
X159250000Y-92797619D01*
X159297619Y-92892857D01*
X159297619Y-93035714D01*
X159250000Y-93130952D01*
X159202380Y-93178571D01*
X159107142Y-93226190D01*
X158726190Y-93226190D01*
X159916666Y-92702380D02*
X160107142Y-92702380D01*
X160202380Y-92750000D01*
X160297619Y-92845238D01*
X160345238Y-93035714D01*
X160345238Y-93369047D01*
X160297619Y-93559523D01*
X160202380Y-93654761D01*
X160107142Y-93702380D01*
X159916666Y-93702380D01*
X159821428Y-93654761D01*
X159726190Y-93559523D01*
X159678571Y-93369047D01*
X159678571Y-93035714D01*
X159726190Y-92845238D01*
X159821428Y-92750000D01*
X159916666Y-92702380D01*
X160773809Y-93702380D02*
X160773809Y-92702380D01*
X161107142Y-93416666D01*
X161440476Y-92702380D01*
X161440476Y-93702380D01*
X162678571Y-93702380D02*
X162678571Y-92702380D01*
X163011904Y-93416666D01*
X163345238Y-92702380D01*
X163345238Y-93702380D01*
X164011904Y-92702380D02*
X164202380Y-92702380D01*
X164297619Y-92750000D01*
X164392857Y-92845238D01*
X164440476Y-93035714D01*
X164440476Y-93369047D01*
X164392857Y-93559523D01*
X164297619Y-93654761D01*
X164202380Y-93702380D01*
X164011904Y-93702380D01*
X163916666Y-93654761D01*
X163821428Y-93559523D01*
X163773809Y-93369047D01*
X163773809Y-93035714D01*
X163821428Y-92845238D01*
X163916666Y-92750000D01*
X164011904Y-92702380D01*
X164726190Y-92702380D02*
X165297619Y-92702380D01*
X165011904Y-93702380D02*
X165011904Y-92702380D01*
X165630952Y-93702380D02*
X165630952Y-92702380D01*
X165630952Y-93178571D02*
X166202380Y-93178571D01*
X166202380Y-93702380D02*
X166202380Y-92702380D01*
X166678571Y-93178571D02*
X167011904Y-93178571D01*
X167154761Y-93702380D02*
X166678571Y-93702380D01*
X166678571Y-92702380D01*
X167154761Y-92702380D01*
X168154761Y-93702380D02*
X167821428Y-93226190D01*
X167583333Y-93702380D02*
X167583333Y-92702380D01*
X167964285Y-92702380D01*
X168059523Y-92750000D01*
X168107142Y-92797619D01*
X168154761Y-92892857D01*
X168154761Y-93035714D01*
X168107142Y-93130952D01*
X168059523Y-93178571D01*
X167964285Y-93226190D01*
X167583333Y-93226190D01*
X168916666Y-93178571D02*
X169059523Y-93226190D01*
X169107142Y-93273809D01*
X169154761Y-93369047D01*
X169154761Y-93511904D01*
X169107142Y-93607142D01*
X169059523Y-93654761D01*
X168964285Y-93702380D01*
X168583333Y-93702380D01*
X168583333Y-92702380D01*
X168916666Y-92702380D01*
X169011904Y-92750000D01*
X169059523Y-92797619D01*
X169107142Y-92892857D01*
X169107142Y-92988095D01*
X169059523Y-93083333D01*
X169011904Y-93130952D01*
X168916666Y-93178571D01*
X168583333Y-93178571D01*
X169773809Y-92702380D02*
X169964285Y-92702380D01*
X170059523Y-92750000D01*
X170154761Y-92845238D01*
X170202380Y-93035714D01*
X170202380Y-93369047D01*
X170154761Y-93559523D01*
X170059523Y-93654761D01*
X169964285Y-93702380D01*
X169773809Y-93702380D01*
X169678571Y-93654761D01*
X169583333Y-93559523D01*
X169535714Y-93369047D01*
X169535714Y-93035714D01*
X169583333Y-92845238D01*
X169678571Y-92750000D01*
X169773809Y-92702380D01*
X170583333Y-93416666D02*
X171059523Y-93416666D01*
X170488095Y-93702380D02*
X170821428Y-92702380D01*
X171154761Y-93702380D01*
X172059523Y-93702380D02*
X171726190Y-93226190D01*
X171488095Y-93702380D02*
X171488095Y-92702380D01*
X171869047Y-92702380D01*
X171964285Y-92750000D01*
X172011904Y-92797619D01*
X172059523Y-92892857D01*
X172059523Y-93035714D01*
X172011904Y-93130952D01*
X171964285Y-93178571D01*
X171869047Y-93226190D01*
X171488095Y-93226190D01*
X172488095Y-93702380D02*
X172488095Y-92702380D01*
X172726190Y-92702380D01*
X172869047Y-92750000D01*
X172964285Y-92845238D01*
X173011904Y-92940476D01*
X173059523Y-93130952D01*
X173059523Y-93273809D01*
X173011904Y-93464285D01*
X172964285Y-93559523D01*
X172869047Y-93654761D01*
X172726190Y-93702380D01*
X172488095Y-93702380D01*
D11*
X103365000Y-95865000D02*
X189795000Y-95865000D01*
X189795000Y-95865000D02*
X189795000Y-104575000D01*
X189795000Y-104575000D02*
X103365000Y-104575000D01*
X103365000Y-104575000D02*
X103365000Y-95865000D01*
X103365000Y-112115000D02*
X189795000Y-112115000D01*
X189795000Y-112115000D02*
X189795000Y-120825000D01*
X189795000Y-120825000D02*
X103365000Y-120825000D01*
X103365000Y-120825000D02*
X103365000Y-112115000D01*
%LPC*%
D12*
X188160000Y-102000000D03*
X184200000Y-102000000D03*
X180240000Y-102000000D03*
X176280000Y-102000000D03*
X172320000Y-102000000D03*
X168360000Y-102000000D03*
X164400000Y-102000000D03*
X160440000Y-102000000D03*
X156480000Y-102000000D03*
X152520000Y-102000000D03*
X148560000Y-102000000D03*
X144600000Y-102000000D03*
X140640000Y-102000000D03*
X136680000Y-102000000D03*
X132720000Y-102000000D03*
X128760000Y-102000000D03*
X124800000Y-102000000D03*
X120840000Y-102000000D03*
X116880000Y-102000000D03*
X112920000Y-102000000D03*
X108960000Y-102000000D03*
X105000000Y-102000000D03*
X188160000Y-98440000D03*
X184200000Y-98440000D03*
X180240000Y-98440000D03*
X176280000Y-98440000D03*
X172320000Y-98440000D03*
X168360000Y-98440000D03*
X164400000Y-98440000D03*
X160440000Y-98440000D03*
X156480000Y-98440000D03*
X152520000Y-98440000D03*
X148560000Y-98440000D03*
X144600000Y-98440000D03*
X140640000Y-98440000D03*
X136680000Y-98440000D03*
X132720000Y-98440000D03*
X128760000Y-98440000D03*
X124800000Y-98440000D03*
X120840000Y-98440000D03*
X116880000Y-98440000D03*
X112920000Y-98440000D03*
X108960000Y-98440000D03*
D13*
X105000000Y-98440000D03*
D12*
X188160000Y-118250000D03*
X184200000Y-118250000D03*
X180240000Y-118250000D03*
X176280000Y-118250000D03*
X172320000Y-118250000D03*
X168360000Y-118250000D03*
X164400000Y-118250000D03*
X160440000Y-118250000D03*
X156480000Y-118250000D03*
X152520000Y-118250000D03*
X148560000Y-118250000D03*
X144600000Y-118250000D03*
X140640000Y-118250000D03*
X136680000Y-118250000D03*
X132720000Y-118250000D03*
X128760000Y-118250000D03*
X124800000Y-118250000D03*
X120840000Y-118250000D03*
X116880000Y-118250000D03*
X112920000Y-118250000D03*
X108960000Y-118250000D03*
X105000000Y-118250000D03*
X188160000Y-114690000D03*
X184200000Y-114690000D03*
X180240000Y-114690000D03*
X176280000Y-114690000D03*
X172320000Y-114690000D03*
X168360000Y-114690000D03*
X164400000Y-114690000D03*
X160440000Y-114690000D03*
X156480000Y-114690000D03*
X152520000Y-114690000D03*
X148560000Y-114690000D03*
X144600000Y-114690000D03*
X140640000Y-114690000D03*
X136680000Y-114690000D03*
X132720000Y-114690000D03*
X128760000Y-114690000D03*
X124800000Y-114690000D03*
X120840000Y-114690000D03*
X116880000Y-114690000D03*
X112920000Y-114690000D03*
X108960000Y-114690000D03*
D13*
X105000000Y-114690000D03*
D14*
X105000000Y-141540000D03*
X108960000Y-141540000D03*
X112920000Y-141540000D03*
X116880000Y-141540000D03*
X120840000Y-141540000D03*
X124800000Y-141540000D03*
X128760000Y-141540000D03*
X132720000Y-141540000D03*
X136680000Y-141540000D03*
X140640000Y-141540000D03*
X144600000Y-141540000D03*
X148560000Y-141540000D03*
X152520000Y-141540000D03*
X156480000Y-141540000D03*
X160440000Y-141540000D03*
X164400000Y-141540000D03*
X168360000Y-141540000D03*
X172320000Y-141540000D03*
X176280000Y-141540000D03*
X180240000Y-141540000D03*
X184200000Y-141540000D03*
X188160000Y-141540000D03*
M02*
