G04 #@! TF.GenerationSoftware,KiCad,Pcbnew,(5.1.12)-1*
G04 #@! TF.CreationDate,2022-10-28T14:50:11+01:00*
G04 #@! TF.ProjectId,Apple-1 riser,4170706c-652d-4312-9072-697365722e6b,rev?*
G04 #@! TF.SameCoordinates,Original*
G04 #@! TF.FileFunction,Soldermask,Top*
G04 #@! TF.FilePolarity,Negative*
%FSLAX46Y46*%
G04 Gerber Fmt 4.6, Leading zero omitted, Abs format (unit mm)*
G04 Created by KiCad (PCBNEW (5.1.12)-1) date 2022-10-28 14:50:11*
%MOMM*%
%LPD*%
G01*
G04 APERTURE LIST*
%ADD10C,1.905000*%
%ADD11R,1.905000X1.905000*%
%ADD12R,2.540000X10.000000*%
G04 APERTURE END LIST*
D10*
X188160000Y-102000000D03*
X184200000Y-102000000D03*
X180240000Y-102000000D03*
X176280000Y-102000000D03*
X172320000Y-102000000D03*
X168360000Y-102000000D03*
X164400000Y-102000000D03*
X160440000Y-102000000D03*
X156480000Y-102000000D03*
X152520000Y-102000000D03*
X148560000Y-102000000D03*
X144600000Y-102000000D03*
X140640000Y-102000000D03*
X136680000Y-102000000D03*
X132720000Y-102000000D03*
X128760000Y-102000000D03*
X124800000Y-102000000D03*
X120840000Y-102000000D03*
X116880000Y-102000000D03*
X112920000Y-102000000D03*
X108960000Y-102000000D03*
X105000000Y-102000000D03*
X188160000Y-98440000D03*
X184200000Y-98440000D03*
X180240000Y-98440000D03*
X176280000Y-98440000D03*
X172320000Y-98440000D03*
X168360000Y-98440000D03*
X164400000Y-98440000D03*
X160440000Y-98440000D03*
X156480000Y-98440000D03*
X152520000Y-98440000D03*
X148560000Y-98440000D03*
X144600000Y-98440000D03*
X140640000Y-98440000D03*
X136680000Y-98440000D03*
X132720000Y-98440000D03*
X128760000Y-98440000D03*
X124800000Y-98440000D03*
X120840000Y-98440000D03*
X116880000Y-98440000D03*
X112920000Y-98440000D03*
X108960000Y-98440000D03*
D11*
X105000000Y-98440000D03*
D10*
X188160000Y-118250000D03*
X184200000Y-118250000D03*
X180240000Y-118250000D03*
X176280000Y-118250000D03*
X172320000Y-118250000D03*
X168360000Y-118250000D03*
X164400000Y-118250000D03*
X160440000Y-118250000D03*
X156480000Y-118250000D03*
X152520000Y-118250000D03*
X148560000Y-118250000D03*
X144600000Y-118250000D03*
X140640000Y-118250000D03*
X136680000Y-118250000D03*
X132720000Y-118250000D03*
X128760000Y-118250000D03*
X124800000Y-118250000D03*
X120840000Y-118250000D03*
X116880000Y-118250000D03*
X112920000Y-118250000D03*
X108960000Y-118250000D03*
X105000000Y-118250000D03*
X188160000Y-114690000D03*
X184200000Y-114690000D03*
X180240000Y-114690000D03*
X176280000Y-114690000D03*
X172320000Y-114690000D03*
X168360000Y-114690000D03*
X164400000Y-114690000D03*
X160440000Y-114690000D03*
X156480000Y-114690000D03*
X152520000Y-114690000D03*
X148560000Y-114690000D03*
X144600000Y-114690000D03*
X140640000Y-114690000D03*
X136680000Y-114690000D03*
X132720000Y-114690000D03*
X128760000Y-114690000D03*
X124800000Y-114690000D03*
X120840000Y-114690000D03*
X116880000Y-114690000D03*
X112920000Y-114690000D03*
X108960000Y-114690000D03*
D11*
X105000000Y-114690000D03*
D12*
X105000000Y-141540000D03*
X108960000Y-141540000D03*
X112920000Y-141540000D03*
X116880000Y-141540000D03*
X120840000Y-141540000D03*
X124800000Y-141540000D03*
X128760000Y-141540000D03*
X132720000Y-141540000D03*
X136680000Y-141540000D03*
X140640000Y-141540000D03*
X144600000Y-141540000D03*
X148560000Y-141540000D03*
X152520000Y-141540000D03*
X156480000Y-141540000D03*
X160440000Y-141540000D03*
X164400000Y-141540000D03*
X168360000Y-141540000D03*
X172320000Y-141540000D03*
X176280000Y-141540000D03*
X180240000Y-141540000D03*
X184200000Y-141540000D03*
X188160000Y-141540000D03*
M02*
