%FSLAX45Y45*%
G04 Gerber Fmt 4.5, Leading zero omitted, Abs format (unit mm)*
G04 Created by KiCad (PCBNEW (5.1.12)-1) date 2022-10-28 14:50:14*
%MOMM*%
%LPD*%
G01*
G04 APERTURE LIST*
%TA.AperFunction,Profile*%
%ADD10C,0.050000*%
%TD*%
%ADD11C,0.200000*%
%ADD12C,0.300000*%
G04 APERTURE END LIST*
D10*
X20400000Y-13700000D02*
X20400000Y-9125000D01*
X19200000Y-13700000D02*
X20400000Y-13700000D01*
X19200000Y-14700000D02*
X19200000Y-13700000D01*
X9000000Y-9125000D02*
X20400000Y-9125000D01*
X10200000Y-14700000D02*
X10200000Y-13700000D01*
X19200000Y-14700000D02*
X10200000Y-14700000D01*
X9000000Y-13700000D02*
X9000000Y-9125000D01*
X10200000Y-13700000D02*
X9000000Y-13700000D01*
D11*
D12*
X9283928Y-15168214D02*
X9283928Y-14868214D01*
X9355357Y-14868214D01*
X9398214Y-14882500D01*
X9426786Y-14911071D01*
X9441071Y-14939643D01*
X9455357Y-14996786D01*
X9455357Y-15039643D01*
X9441071Y-15096786D01*
X9426786Y-15125357D01*
X9398214Y-15153929D01*
X9355357Y-15168214D01*
X9283928Y-15168214D01*
X9583928Y-15168214D02*
X9583928Y-14968214D01*
X9583928Y-15025357D02*
X9598214Y-14996786D01*
X9612500Y-14982500D01*
X9641071Y-14968214D01*
X9669643Y-14968214D01*
X9769643Y-15168214D02*
X9769643Y-14968214D01*
X9769643Y-14868214D02*
X9755357Y-14882500D01*
X9769643Y-14896786D01*
X9783928Y-14882500D01*
X9769643Y-14868214D01*
X9769643Y-14896786D01*
X9955357Y-15168214D02*
X9926786Y-15153929D01*
X9912500Y-15125357D01*
X9912500Y-14868214D01*
X10112500Y-15168214D02*
X10083928Y-15153929D01*
X10069643Y-15125357D01*
X10069643Y-14868214D01*
X10455357Y-15168214D02*
X10455357Y-14868214D01*
X10555357Y-15082500D01*
X10655357Y-14868214D01*
X10655357Y-15168214D01*
X10926786Y-15168214D02*
X10926786Y-15011071D01*
X10912500Y-14982500D01*
X10883928Y-14968214D01*
X10826786Y-14968214D01*
X10798214Y-14982500D01*
X10926786Y-15153929D02*
X10898214Y-15168214D01*
X10826786Y-15168214D01*
X10798214Y-15153929D01*
X10783928Y-15125357D01*
X10783928Y-15096786D01*
X10798214Y-15068214D01*
X10826786Y-15053929D01*
X10898214Y-15053929D01*
X10926786Y-15039643D01*
X11069643Y-14968214D02*
X11069643Y-15268214D01*
X11069643Y-14982500D02*
X11098214Y-14968214D01*
X11155357Y-14968214D01*
X11183928Y-14982500D01*
X11198214Y-14996786D01*
X11212500Y-15025357D01*
X11212500Y-15111071D01*
X11198214Y-15139643D01*
X11183928Y-15153929D01*
X11155357Y-15168214D01*
X11098214Y-15168214D01*
X11069643Y-15153929D01*
X11341071Y-15139643D02*
X11355357Y-15153929D01*
X11341071Y-15168214D01*
X11326786Y-15153929D01*
X11341071Y-15139643D01*
X11341071Y-15168214D01*
X11341071Y-14982500D02*
X11355357Y-14996786D01*
X11341071Y-15011071D01*
X11326786Y-14996786D01*
X11341071Y-14982500D01*
X11341071Y-15011071D01*
M02*
