%FSLAX45Y45*%
G04 Gerber Fmt 4.5, Leading zero omitted, Abs format (unit mm)*
G04 Created by KiCad (PCBNEW (5.1.12)-1) date 2022-10-05 19:49:48*
%MOMM*%
%LPD*%
G01*
G04 APERTURE LIST*
%TA.AperFunction,Profile*%
%ADD10C,0.050000*%
%TD*%
%ADD11C,0.200000*%
%ADD12C,0.300000*%
G04 APERTURE END LIST*
D10*
X20400000Y-13700000D02*
X20400000Y-9125000D01*
X19200000Y-13700000D02*
X20400000Y-13700000D01*
X19200000Y-14700000D02*
X19200000Y-13700000D01*
X9000000Y-9125000D02*
X20400000Y-9125000D01*
X10200000Y-14700000D02*
X10200000Y-13700000D01*
X19200000Y-14700000D02*
X10200000Y-14700000D01*
X9000000Y-13700000D02*
X9000000Y-9125000D01*
X10200000Y-13700000D02*
X9000000Y-13700000D01*
D11*
X10436500Y-9780500D02*
X10563500Y-9907500D01*
X10563500Y-9780500D02*
X10436500Y-9907500D01*
X10436500Y-10136500D02*
X10563500Y-10263500D01*
X10563500Y-10136500D02*
X10436500Y-10263500D01*
X10436500Y-11405500D02*
X10563500Y-11532500D01*
X10563500Y-11405500D02*
X10436500Y-11532500D01*
X10436500Y-11761500D02*
X10563500Y-11888500D01*
X10563500Y-11761500D02*
X10436500Y-11888500D01*
X10832500Y-9780500D02*
X10959500Y-9907500D01*
X10959500Y-9780500D02*
X10832500Y-9907500D01*
X10832500Y-10136500D02*
X10959500Y-10263500D01*
X10959500Y-10136500D02*
X10832500Y-10263500D01*
X10832500Y-11405500D02*
X10959500Y-11532500D01*
X10959500Y-11405500D02*
X10832500Y-11532500D01*
X10832500Y-11761500D02*
X10959500Y-11888500D01*
X10959500Y-11761500D02*
X10832500Y-11888500D01*
X11228500Y-9780500D02*
X11355500Y-9907500D01*
X11355500Y-9780500D02*
X11228500Y-9907500D01*
X11228500Y-10136500D02*
X11355500Y-10263500D01*
X11355500Y-10136500D02*
X11228500Y-10263500D01*
X11228500Y-11405500D02*
X11355500Y-11532500D01*
X11355500Y-11405500D02*
X11228500Y-11532500D01*
X11228500Y-11761500D02*
X11355500Y-11888500D01*
X11355500Y-11761500D02*
X11228500Y-11888500D01*
X11624500Y-9780500D02*
X11751500Y-9907500D01*
X11751500Y-9780500D02*
X11624500Y-9907500D01*
X11624500Y-10136500D02*
X11751500Y-10263500D01*
X11751500Y-10136500D02*
X11624500Y-10263500D01*
X11624500Y-11405500D02*
X11751500Y-11532500D01*
X11751500Y-11405500D02*
X11624500Y-11532500D01*
X11624500Y-11761500D02*
X11751500Y-11888500D01*
X11751500Y-11761500D02*
X11624500Y-11888500D01*
X12020500Y-9780500D02*
X12147500Y-9907500D01*
X12147500Y-9780500D02*
X12020500Y-9907500D01*
X12020500Y-10136500D02*
X12147500Y-10263500D01*
X12147500Y-10136500D02*
X12020500Y-10263500D01*
X12020500Y-11405500D02*
X12147500Y-11532500D01*
X12147500Y-11405500D02*
X12020500Y-11532500D01*
X12020500Y-11761500D02*
X12147500Y-11888500D01*
X12147500Y-11761500D02*
X12020500Y-11888500D01*
X12416500Y-9780500D02*
X12543500Y-9907500D01*
X12543500Y-9780500D02*
X12416500Y-9907500D01*
X12416500Y-10136500D02*
X12543500Y-10263500D01*
X12543500Y-10136500D02*
X12416500Y-10263500D01*
X12416500Y-11405500D02*
X12543500Y-11532500D01*
X12543500Y-11405500D02*
X12416500Y-11532500D01*
X12416500Y-11761500D02*
X12543500Y-11888500D01*
X12543500Y-11761500D02*
X12416500Y-11888500D01*
X12812500Y-9780500D02*
X12939500Y-9907500D01*
X12939500Y-9780500D02*
X12812500Y-9907500D01*
X12812500Y-10136500D02*
X12939500Y-10263500D01*
X12939500Y-10136500D02*
X12812500Y-10263500D01*
X12812500Y-11405500D02*
X12939500Y-11532500D01*
X12939500Y-11405500D02*
X12812500Y-11532500D01*
X12812500Y-11761500D02*
X12939500Y-11888500D01*
X12939500Y-11761500D02*
X12812500Y-11888500D01*
X13208500Y-9780500D02*
X13335500Y-9907500D01*
X13335500Y-9780500D02*
X13208500Y-9907500D01*
X13208500Y-10136500D02*
X13335500Y-10263500D01*
X13335500Y-10136500D02*
X13208500Y-10263500D01*
X13208500Y-11405500D02*
X13335500Y-11532500D01*
X13335500Y-11405500D02*
X13208500Y-11532500D01*
X13208500Y-11761500D02*
X13335500Y-11888500D01*
X13335500Y-11761500D02*
X13208500Y-11888500D01*
X13604500Y-9780500D02*
X13731500Y-9907500D01*
X13731500Y-9780500D02*
X13604500Y-9907500D01*
X13604500Y-10136500D02*
X13731500Y-10263500D01*
X13731500Y-10136500D02*
X13604500Y-10263500D01*
X13604500Y-11405500D02*
X13731500Y-11532500D01*
X13731500Y-11405500D02*
X13604500Y-11532500D01*
X13604500Y-11761500D02*
X13731500Y-11888500D01*
X13731500Y-11761500D02*
X13604500Y-11888500D01*
X14000500Y-9780500D02*
X14127500Y-9907500D01*
X14127500Y-9780500D02*
X14000500Y-9907500D01*
X14000500Y-10136500D02*
X14127500Y-10263500D01*
X14127500Y-10136500D02*
X14000500Y-10263500D01*
X14000500Y-11405500D02*
X14127500Y-11532500D01*
X14127500Y-11405500D02*
X14000500Y-11532500D01*
X14000500Y-11761500D02*
X14127500Y-11888500D01*
X14127500Y-11761500D02*
X14000500Y-11888500D01*
X14396500Y-9780500D02*
X14523500Y-9907500D01*
X14523500Y-9780500D02*
X14396500Y-9907500D01*
X14396500Y-10136500D02*
X14523500Y-10263500D01*
X14523500Y-10136500D02*
X14396500Y-10263500D01*
X14396500Y-11405500D02*
X14523500Y-11532500D01*
X14523500Y-11405500D02*
X14396500Y-11532500D01*
X14396500Y-11761500D02*
X14523500Y-11888500D01*
X14523500Y-11761500D02*
X14396500Y-11888500D01*
X14792500Y-9780500D02*
X14919500Y-9907500D01*
X14919500Y-9780500D02*
X14792500Y-9907500D01*
X14792500Y-10136500D02*
X14919500Y-10263500D01*
X14919500Y-10136500D02*
X14792500Y-10263500D01*
X14792500Y-11405500D02*
X14919500Y-11532500D01*
X14919500Y-11405500D02*
X14792500Y-11532500D01*
X14792500Y-11761500D02*
X14919500Y-11888500D01*
X14919500Y-11761500D02*
X14792500Y-11888500D01*
X15188500Y-9780500D02*
X15315500Y-9907500D01*
X15315500Y-9780500D02*
X15188500Y-9907500D01*
X15188500Y-10136500D02*
X15315500Y-10263500D01*
X15315500Y-10136500D02*
X15188500Y-10263500D01*
X15188500Y-11405500D02*
X15315500Y-11532500D01*
X15315500Y-11405500D02*
X15188500Y-11532500D01*
X15188500Y-11761500D02*
X15315500Y-11888500D01*
X15315500Y-11761500D02*
X15188500Y-11888500D01*
X15584500Y-9780500D02*
X15711500Y-9907500D01*
X15711500Y-9780500D02*
X15584500Y-9907500D01*
X15584500Y-10136500D02*
X15711500Y-10263500D01*
X15711500Y-10136500D02*
X15584500Y-10263500D01*
X15584500Y-11405500D02*
X15711500Y-11532500D01*
X15711500Y-11405500D02*
X15584500Y-11532500D01*
X15584500Y-11761500D02*
X15711500Y-11888500D01*
X15711500Y-11761500D02*
X15584500Y-11888500D01*
X15980500Y-9780500D02*
X16107500Y-9907500D01*
X16107500Y-9780500D02*
X15980500Y-9907500D01*
X15980500Y-10136500D02*
X16107500Y-10263500D01*
X16107500Y-10136500D02*
X15980500Y-10263500D01*
X15980500Y-11405500D02*
X16107500Y-11532500D01*
X16107500Y-11405500D02*
X15980500Y-11532500D01*
X15980500Y-11761500D02*
X16107500Y-11888500D01*
X16107500Y-11761500D02*
X15980500Y-11888500D01*
X16376500Y-9780500D02*
X16503500Y-9907500D01*
X16503500Y-9780500D02*
X16376500Y-9907500D01*
X16376500Y-10136500D02*
X16503500Y-10263500D01*
X16503500Y-10136500D02*
X16376500Y-10263500D01*
X16376500Y-11405500D02*
X16503500Y-11532500D01*
X16503500Y-11405500D02*
X16376500Y-11532500D01*
X16376500Y-11761500D02*
X16503500Y-11888500D01*
X16503500Y-11761500D02*
X16376500Y-11888500D01*
X16772500Y-9780500D02*
X16899500Y-9907500D01*
X16899500Y-9780500D02*
X16772500Y-9907500D01*
X16772500Y-10136500D02*
X16899500Y-10263500D01*
X16899500Y-10136500D02*
X16772500Y-10263500D01*
X16772500Y-11405500D02*
X16899500Y-11532500D01*
X16899500Y-11405500D02*
X16772500Y-11532500D01*
X16772500Y-11761500D02*
X16899500Y-11888500D01*
X16899500Y-11761500D02*
X16772500Y-11888500D01*
X17168500Y-9780500D02*
X17295500Y-9907500D01*
X17295500Y-9780500D02*
X17168500Y-9907500D01*
X17168500Y-10136500D02*
X17295500Y-10263500D01*
X17295500Y-10136500D02*
X17168500Y-10263500D01*
X17168500Y-11405500D02*
X17295500Y-11532500D01*
X17295500Y-11405500D02*
X17168500Y-11532500D01*
X17168500Y-11761500D02*
X17295500Y-11888500D01*
X17295500Y-11761500D02*
X17168500Y-11888500D01*
X17564500Y-9780500D02*
X17691500Y-9907500D01*
X17691500Y-9780500D02*
X17564500Y-9907500D01*
X17564500Y-10136500D02*
X17691500Y-10263500D01*
X17691500Y-10136500D02*
X17564500Y-10263500D01*
X17564500Y-11405500D02*
X17691500Y-11532500D01*
X17691500Y-11405500D02*
X17564500Y-11532500D01*
X17564500Y-11761500D02*
X17691500Y-11888500D01*
X17691500Y-11761500D02*
X17564500Y-11888500D01*
X17960500Y-9780500D02*
X18087500Y-9907500D01*
X18087500Y-9780500D02*
X17960500Y-9907500D01*
X17960500Y-10136500D02*
X18087500Y-10263500D01*
X18087500Y-10136500D02*
X17960500Y-10263500D01*
X17960500Y-11405500D02*
X18087500Y-11532500D01*
X18087500Y-11405500D02*
X17960500Y-11532500D01*
X17960500Y-11761500D02*
X18087500Y-11888500D01*
X18087500Y-11761500D02*
X17960500Y-11888500D01*
X18356500Y-9780500D02*
X18483500Y-9907500D01*
X18483500Y-9780500D02*
X18356500Y-9907500D01*
X18356500Y-10136500D02*
X18483500Y-10263500D01*
X18483500Y-10136500D02*
X18356500Y-10263500D01*
X18356500Y-11405500D02*
X18483500Y-11532500D01*
X18483500Y-11405500D02*
X18356500Y-11532500D01*
X18356500Y-11761500D02*
X18483500Y-11888500D01*
X18483500Y-11761500D02*
X18356500Y-11888500D01*
X18752500Y-9780500D02*
X18879500Y-9907500D01*
X18879500Y-9780500D02*
X18752500Y-9907500D01*
X18752500Y-10136500D02*
X18879500Y-10263500D01*
X18879500Y-10136500D02*
X18752500Y-10263500D01*
X18752500Y-11405500D02*
X18879500Y-11532500D01*
X18879500Y-11405500D02*
X18752500Y-11532500D01*
X18752500Y-11761500D02*
X18879500Y-11888500D01*
X18879500Y-11761500D02*
X18752500Y-11888500D01*
D12*
X9283928Y-15168214D02*
X9283928Y-14868214D01*
X9355357Y-14868214D01*
X9398214Y-14882500D01*
X9426786Y-14911071D01*
X9441071Y-14939643D01*
X9455357Y-14996786D01*
X9455357Y-15039643D01*
X9441071Y-15096786D01*
X9426786Y-15125357D01*
X9398214Y-15153929D01*
X9355357Y-15168214D01*
X9283928Y-15168214D01*
X9583928Y-15168214D02*
X9583928Y-14968214D01*
X9583928Y-15025357D02*
X9598214Y-14996786D01*
X9612500Y-14982500D01*
X9641071Y-14968214D01*
X9669643Y-14968214D01*
X9769643Y-15168214D02*
X9769643Y-14968214D01*
X9769643Y-14868214D02*
X9755357Y-14882500D01*
X9769643Y-14896786D01*
X9783928Y-14882500D01*
X9769643Y-14868214D01*
X9769643Y-14896786D01*
X9955357Y-15168214D02*
X9926786Y-15153929D01*
X9912500Y-15125357D01*
X9912500Y-14868214D01*
X10112500Y-15168214D02*
X10083928Y-15153929D01*
X10069643Y-15125357D01*
X10069643Y-14868214D01*
X10455357Y-15168214D02*
X10455357Y-14868214D01*
X10555357Y-15082500D01*
X10655357Y-14868214D01*
X10655357Y-15168214D01*
X10926786Y-15168214D02*
X10926786Y-15011071D01*
X10912500Y-14982500D01*
X10883928Y-14968214D01*
X10826786Y-14968214D01*
X10798214Y-14982500D01*
X10926786Y-15153929D02*
X10898214Y-15168214D01*
X10826786Y-15168214D01*
X10798214Y-15153929D01*
X10783928Y-15125357D01*
X10783928Y-15096786D01*
X10798214Y-15068214D01*
X10826786Y-15053929D01*
X10898214Y-15053929D01*
X10926786Y-15039643D01*
X11069643Y-14968214D02*
X11069643Y-15268214D01*
X11069643Y-14982500D02*
X11098214Y-14968214D01*
X11155357Y-14968214D01*
X11183928Y-14982500D01*
X11198214Y-14996786D01*
X11212500Y-15025357D01*
X11212500Y-15111071D01*
X11198214Y-15139643D01*
X11183928Y-15153929D01*
X11155357Y-15168214D01*
X11098214Y-15168214D01*
X11069643Y-15153929D01*
X11341071Y-15139643D02*
X11355357Y-15153929D01*
X11341071Y-15168214D01*
X11326786Y-15153929D01*
X11341071Y-15139643D01*
X11341071Y-15168214D01*
X11341071Y-14982500D02*
X11355357Y-14996786D01*
X11341071Y-15011071D01*
X11326786Y-14996786D01*
X11341071Y-14982500D01*
X11341071Y-15011071D01*
X8870500Y-15599000D02*
X8997500Y-15726000D01*
X8997500Y-15599000D02*
X8870500Y-15726000D01*
X9441071Y-15798214D02*
X9269643Y-15798214D01*
X9355357Y-15798214D02*
X9355357Y-15498214D01*
X9326786Y-15541071D01*
X9298214Y-15569643D01*
X9269643Y-15583929D01*
X9569643Y-15769643D02*
X9583928Y-15783929D01*
X9569643Y-15798214D01*
X9555357Y-15783929D01*
X9569643Y-15769643D01*
X9569643Y-15798214D01*
X9698214Y-15526786D02*
X9712500Y-15512500D01*
X9741071Y-15498214D01*
X9812500Y-15498214D01*
X9841071Y-15512500D01*
X9855357Y-15526786D01*
X9869643Y-15555357D01*
X9869643Y-15583929D01*
X9855357Y-15626786D01*
X9683928Y-15798214D01*
X9869643Y-15798214D01*
X9969643Y-15498214D02*
X10169643Y-15498214D01*
X10041071Y-15798214D01*
X10341071Y-15498214D02*
X10369643Y-15498214D01*
X10398214Y-15512500D01*
X10412500Y-15526786D01*
X10426786Y-15555357D01*
X10441071Y-15612500D01*
X10441071Y-15683929D01*
X10426786Y-15741071D01*
X10412500Y-15769643D01*
X10398214Y-15783929D01*
X10369643Y-15798214D01*
X10341071Y-15798214D01*
X10312500Y-15783929D01*
X10298214Y-15769643D01*
X10283928Y-15741071D01*
X10269643Y-15683929D01*
X10269643Y-15612500D01*
X10283928Y-15555357D01*
X10298214Y-15526786D01*
X10312500Y-15512500D01*
X10341071Y-15498214D01*
X10569643Y-15798214D02*
X10569643Y-15598214D01*
X10569643Y-15626786D02*
X10583928Y-15612500D01*
X10612500Y-15598214D01*
X10655357Y-15598214D01*
X10683928Y-15612500D01*
X10698214Y-15641071D01*
X10698214Y-15798214D01*
X10698214Y-15641071D02*
X10712500Y-15612500D01*
X10741071Y-15598214D01*
X10783928Y-15598214D01*
X10812500Y-15612500D01*
X10826786Y-15641071D01*
X10826786Y-15798214D01*
X10969643Y-15798214D02*
X10969643Y-15598214D01*
X10969643Y-15626786D02*
X10983928Y-15612500D01*
X11012500Y-15598214D01*
X11055357Y-15598214D01*
X11083928Y-15612500D01*
X11098214Y-15641071D01*
X11098214Y-15798214D01*
X11098214Y-15641071D02*
X11112500Y-15612500D01*
X11141071Y-15598214D01*
X11183928Y-15598214D01*
X11212500Y-15612500D01*
X11226786Y-15641071D01*
X11226786Y-15798214D01*
X11812500Y-15483929D02*
X11555357Y-15869643D01*
X12198214Y-15498214D02*
X12226786Y-15498214D01*
X12255357Y-15512500D01*
X12269643Y-15526786D01*
X12283928Y-15555357D01*
X12298214Y-15612500D01*
X12298214Y-15683929D01*
X12283928Y-15741071D01*
X12269643Y-15769643D01*
X12255357Y-15783929D01*
X12226786Y-15798214D01*
X12198214Y-15798214D01*
X12169643Y-15783929D01*
X12155357Y-15769643D01*
X12141071Y-15741071D01*
X12126786Y-15683929D01*
X12126786Y-15612500D01*
X12141071Y-15555357D01*
X12155357Y-15526786D01*
X12169643Y-15512500D01*
X12198214Y-15498214D01*
X12426786Y-15769643D02*
X12441071Y-15783929D01*
X12426786Y-15798214D01*
X12412500Y-15783929D01*
X12426786Y-15769643D01*
X12426786Y-15798214D01*
X12626786Y-15498214D02*
X12655357Y-15498214D01*
X12683928Y-15512500D01*
X12698214Y-15526786D01*
X12712500Y-15555357D01*
X12726786Y-15612500D01*
X12726786Y-15683929D01*
X12712500Y-15741071D01*
X12698214Y-15769643D01*
X12683928Y-15783929D01*
X12655357Y-15798214D01*
X12626786Y-15798214D01*
X12598214Y-15783929D01*
X12583928Y-15769643D01*
X12569643Y-15741071D01*
X12555357Y-15683929D01*
X12555357Y-15612500D01*
X12569643Y-15555357D01*
X12583928Y-15526786D01*
X12598214Y-15512500D01*
X12626786Y-15498214D01*
X12998214Y-15498214D02*
X12855357Y-15498214D01*
X12841071Y-15641071D01*
X12855357Y-15626786D01*
X12883928Y-15612500D01*
X12955357Y-15612500D01*
X12983928Y-15626786D01*
X12998214Y-15641071D01*
X13012500Y-15669643D01*
X13012500Y-15741071D01*
X12998214Y-15769643D01*
X12983928Y-15783929D01*
X12955357Y-15798214D01*
X12883928Y-15798214D01*
X12855357Y-15783929D01*
X12841071Y-15769643D01*
X13198214Y-15498214D02*
X13226786Y-15498214D01*
X13255357Y-15512500D01*
X13269643Y-15526786D01*
X13283928Y-15555357D01*
X13298214Y-15612500D01*
X13298214Y-15683929D01*
X13283928Y-15741071D01*
X13269643Y-15769643D01*
X13255357Y-15783929D01*
X13226786Y-15798214D01*
X13198214Y-15798214D01*
X13169643Y-15783929D01*
X13155357Y-15769643D01*
X13141071Y-15741071D01*
X13126786Y-15683929D01*
X13126786Y-15612500D01*
X13141071Y-15555357D01*
X13155357Y-15526786D01*
X13169643Y-15512500D01*
X13198214Y-15498214D01*
X13483928Y-15498214D02*
X13512500Y-15498214D01*
X13541071Y-15512500D01*
X13555357Y-15526786D01*
X13569643Y-15555357D01*
X13583928Y-15612500D01*
X13583928Y-15683929D01*
X13569643Y-15741071D01*
X13555357Y-15769643D01*
X13541071Y-15783929D01*
X13512500Y-15798214D01*
X13483928Y-15798214D01*
X13455357Y-15783929D01*
X13441071Y-15769643D01*
X13426786Y-15741071D01*
X13412500Y-15683929D01*
X13412500Y-15612500D01*
X13426786Y-15555357D01*
X13441071Y-15526786D01*
X13455357Y-15512500D01*
X13483928Y-15498214D01*
X13698214Y-15498214D02*
X13698214Y-15555357D01*
X13812500Y-15498214D02*
X13812500Y-15555357D01*
X14255357Y-15912500D02*
X14241071Y-15898214D01*
X14212500Y-15855357D01*
X14198214Y-15826786D01*
X14183928Y-15783929D01*
X14169643Y-15712500D01*
X14169643Y-15655357D01*
X14183928Y-15583929D01*
X14198214Y-15541071D01*
X14212500Y-15512500D01*
X14241071Y-15469643D01*
X14255357Y-15455357D01*
X14412500Y-15626786D02*
X14383928Y-15612500D01*
X14369643Y-15598214D01*
X14355357Y-15569643D01*
X14355357Y-15555357D01*
X14369643Y-15526786D01*
X14383928Y-15512500D01*
X14412500Y-15498214D01*
X14469643Y-15498214D01*
X14498214Y-15512500D01*
X14512500Y-15526786D01*
X14526786Y-15555357D01*
X14526786Y-15569643D01*
X14512500Y-15598214D01*
X14498214Y-15612500D01*
X14469643Y-15626786D01*
X14412500Y-15626786D01*
X14383928Y-15641071D01*
X14369643Y-15655357D01*
X14355357Y-15683929D01*
X14355357Y-15741071D01*
X14369643Y-15769643D01*
X14383928Y-15783929D01*
X14412500Y-15798214D01*
X14469643Y-15798214D01*
X14498214Y-15783929D01*
X14512500Y-15769643D01*
X14526786Y-15741071D01*
X14526786Y-15683929D01*
X14512500Y-15655357D01*
X14498214Y-15641071D01*
X14469643Y-15626786D01*
X14698214Y-15626786D02*
X14669643Y-15612500D01*
X14655357Y-15598214D01*
X14641071Y-15569643D01*
X14641071Y-15555357D01*
X14655357Y-15526786D01*
X14669643Y-15512500D01*
X14698214Y-15498214D01*
X14755357Y-15498214D01*
X14783928Y-15512500D01*
X14798214Y-15526786D01*
X14812500Y-15555357D01*
X14812500Y-15569643D01*
X14798214Y-15598214D01*
X14783928Y-15612500D01*
X14755357Y-15626786D01*
X14698214Y-15626786D01*
X14669643Y-15641071D01*
X14655357Y-15655357D01*
X14641071Y-15683929D01*
X14641071Y-15741071D01*
X14655357Y-15769643D01*
X14669643Y-15783929D01*
X14698214Y-15798214D01*
X14755357Y-15798214D01*
X14783928Y-15783929D01*
X14798214Y-15769643D01*
X14812500Y-15741071D01*
X14812500Y-15683929D01*
X14798214Y-15655357D01*
X14783928Y-15641071D01*
X14755357Y-15626786D01*
X15169643Y-15798214D02*
X15169643Y-15498214D01*
X15298214Y-15798214D02*
X15298214Y-15641071D01*
X15283928Y-15612500D01*
X15255357Y-15598214D01*
X15212500Y-15598214D01*
X15183928Y-15612500D01*
X15169643Y-15626786D01*
X15483928Y-15798214D02*
X15455357Y-15783929D01*
X15441071Y-15769643D01*
X15426786Y-15741071D01*
X15426786Y-15655357D01*
X15441071Y-15626786D01*
X15455357Y-15612500D01*
X15483928Y-15598214D01*
X15526786Y-15598214D01*
X15555357Y-15612500D01*
X15569643Y-15626786D01*
X15583928Y-15655357D01*
X15583928Y-15741071D01*
X15569643Y-15769643D01*
X15555357Y-15783929D01*
X15526786Y-15798214D01*
X15483928Y-15798214D01*
X15755357Y-15798214D02*
X15726786Y-15783929D01*
X15712500Y-15755357D01*
X15712500Y-15498214D01*
X15983928Y-15783929D02*
X15955357Y-15798214D01*
X15898214Y-15798214D01*
X15869643Y-15783929D01*
X15855357Y-15755357D01*
X15855357Y-15641071D01*
X15869643Y-15612500D01*
X15898214Y-15598214D01*
X15955357Y-15598214D01*
X15983928Y-15612500D01*
X15998214Y-15641071D01*
X15998214Y-15669643D01*
X15855357Y-15698214D01*
X16112500Y-15783929D02*
X16141071Y-15798214D01*
X16198214Y-15798214D01*
X16226786Y-15783929D01*
X16241071Y-15755357D01*
X16241071Y-15741071D01*
X16226786Y-15712500D01*
X16198214Y-15698214D01*
X16155357Y-15698214D01*
X16126786Y-15683929D01*
X16112500Y-15655357D01*
X16112500Y-15641071D01*
X16126786Y-15612500D01*
X16155357Y-15598214D01*
X16198214Y-15598214D01*
X16226786Y-15612500D01*
X16341071Y-15912500D02*
X16355357Y-15898214D01*
X16383928Y-15855357D01*
X16398214Y-15826786D01*
X16412500Y-15783929D01*
X16426786Y-15712500D01*
X16426786Y-15655357D01*
X16412500Y-15583929D01*
X16398214Y-15541071D01*
X16383928Y-15512500D01*
X16355357Y-15469643D01*
X16341071Y-15455357D01*
M02*
