G04 #@! TF.GenerationSoftware,KiCad,Pcbnew,(5.1.12)-1*
G04 #@! TF.CreationDate,2022-10-28T14:50:11+01:00*
G04 #@! TF.ProjectId,Apple-1 riser,4170706c-652d-4312-9072-697365722e6b,rev?*
G04 #@! TF.SameCoordinates,Original*
G04 #@! TF.FileFunction,Legend,Bot*
G04 #@! TF.FilePolarity,Positive*
%FSLAX46Y46*%
G04 Gerber Fmt 4.6, Leading zero omitted, Abs format (unit mm)*
G04 Created by KiCad (PCBNEW (5.1.12)-1) date 2022-10-28 14:50:11*
%MOMM*%
%LPD*%
G01*
G04 APERTURE LIST*
%ADD10C,0.150000*%
%ADD11C,0.254000*%
%ADD12C,1.905000*%
%ADD13R,1.905000X1.905000*%
%ADD14R,2.540000X10.000000*%
G04 APERTURE END LIST*
D10*
X154607142Y-100178571D02*
X154940476Y-100178571D01*
X154940476Y-100702380D02*
X154940476Y-99702380D01*
X154464285Y-99702380D01*
X154083333Y-100702380D02*
X154083333Y-100035714D01*
X154083333Y-99702380D02*
X154130952Y-99750000D01*
X154083333Y-99797619D01*
X154035714Y-99750000D01*
X154083333Y-99702380D01*
X154083333Y-99797619D01*
X153750000Y-100035714D02*
X153369047Y-100035714D01*
X153607142Y-99702380D02*
X153607142Y-100559523D01*
X153559523Y-100654761D01*
X153464285Y-100702380D01*
X153369047Y-100702380D01*
X152321428Y-100654761D02*
X152226190Y-100702380D01*
X152035714Y-100702380D01*
X151940476Y-100654761D01*
X151892857Y-100559523D01*
X151892857Y-100511904D01*
X151940476Y-100416666D01*
X152035714Y-100369047D01*
X152178571Y-100369047D01*
X152273809Y-100321428D01*
X152321428Y-100226190D01*
X152321428Y-100178571D01*
X152273809Y-100083333D01*
X152178571Y-100035714D01*
X152035714Y-100035714D01*
X151940476Y-100083333D01*
X151321428Y-100702380D02*
X151416666Y-100654761D01*
X151464285Y-100607142D01*
X151511904Y-100511904D01*
X151511904Y-100226190D01*
X151464285Y-100130952D01*
X151416666Y-100083333D01*
X151321428Y-100035714D01*
X151178571Y-100035714D01*
X151083333Y-100083333D01*
X151035714Y-100130952D01*
X150988095Y-100226190D01*
X150988095Y-100511904D01*
X151035714Y-100607142D01*
X151083333Y-100654761D01*
X151178571Y-100702380D01*
X151321428Y-100702380D01*
X150130952Y-100654761D02*
X150226190Y-100702380D01*
X150416666Y-100702380D01*
X150511904Y-100654761D01*
X150559523Y-100607142D01*
X150607142Y-100511904D01*
X150607142Y-100226190D01*
X150559523Y-100130952D01*
X150511904Y-100083333D01*
X150416666Y-100035714D01*
X150226190Y-100035714D01*
X150130952Y-100083333D01*
X149702380Y-100702380D02*
X149702380Y-99702380D01*
X149607142Y-100321428D02*
X149321428Y-100702380D01*
X149321428Y-100035714D02*
X149702380Y-100416666D01*
X148511904Y-100654761D02*
X148607142Y-100702380D01*
X148797619Y-100702380D01*
X148892857Y-100654761D01*
X148940476Y-100559523D01*
X148940476Y-100178571D01*
X148892857Y-100083333D01*
X148797619Y-100035714D01*
X148607142Y-100035714D01*
X148511904Y-100083333D01*
X148464285Y-100178571D01*
X148464285Y-100273809D01*
X148940476Y-100369047D01*
X148178571Y-100035714D02*
X147797619Y-100035714D01*
X148035714Y-99702380D02*
X148035714Y-100559523D01*
X147988095Y-100654761D01*
X147892857Y-100702380D01*
X147797619Y-100702380D01*
X147511904Y-100654761D02*
X147416666Y-100702380D01*
X147226190Y-100702380D01*
X147130952Y-100654761D01*
X147083333Y-100559523D01*
X147083333Y-100511904D01*
X147130952Y-100416666D01*
X147226190Y-100369047D01*
X147369047Y-100369047D01*
X147464285Y-100321428D01*
X147511904Y-100226190D01*
X147511904Y-100178571D01*
X147464285Y-100083333D01*
X147369047Y-100035714D01*
X147226190Y-100035714D01*
X147130952Y-100083333D01*
X146035714Y-100035714D02*
X145654761Y-100035714D01*
X145892857Y-99702380D02*
X145892857Y-100559523D01*
X145845238Y-100654761D01*
X145750000Y-100702380D01*
X145654761Y-100702380D01*
X145178571Y-100702380D02*
X145273809Y-100654761D01*
X145321428Y-100607142D01*
X145369047Y-100511904D01*
X145369047Y-100226190D01*
X145321428Y-100130952D01*
X145273809Y-100083333D01*
X145178571Y-100035714D01*
X145035714Y-100035714D01*
X144940476Y-100083333D01*
X144892857Y-100130952D01*
X144845238Y-100226190D01*
X144845238Y-100511904D01*
X144892857Y-100607142D01*
X144940476Y-100654761D01*
X145035714Y-100702380D01*
X145178571Y-100702380D01*
X143797619Y-100035714D02*
X143416666Y-100035714D01*
X143654761Y-99702380D02*
X143654761Y-100559523D01*
X143607142Y-100654761D01*
X143511904Y-100702380D01*
X143416666Y-100702380D01*
X143083333Y-100702380D02*
X143083333Y-99702380D01*
X142654761Y-100702380D02*
X142654761Y-100178571D01*
X142702380Y-100083333D01*
X142797619Y-100035714D01*
X142940476Y-100035714D01*
X143035714Y-100083333D01*
X143083333Y-100130952D01*
X142178571Y-100702380D02*
X142178571Y-100035714D01*
X142178571Y-99702380D02*
X142226190Y-99750000D01*
X142178571Y-99797619D01*
X142130952Y-99750000D01*
X142178571Y-99702380D01*
X142178571Y-99797619D01*
X141750000Y-100654761D02*
X141654761Y-100702380D01*
X141464285Y-100702380D01*
X141369047Y-100654761D01*
X141321428Y-100559523D01*
X141321428Y-100511904D01*
X141369047Y-100416666D01*
X141464285Y-100369047D01*
X141607142Y-100369047D01*
X141702380Y-100321428D01*
X141750000Y-100226190D01*
X141750000Y-100178571D01*
X141702380Y-100083333D01*
X141607142Y-100035714D01*
X141464285Y-100035714D01*
X141369047Y-100083333D01*
X140178571Y-100654761D02*
X140083333Y-100702380D01*
X139892857Y-100702380D01*
X139797619Y-100654761D01*
X139750000Y-100559523D01*
X139750000Y-100511904D01*
X139797619Y-100416666D01*
X139892857Y-100369047D01*
X140035714Y-100369047D01*
X140130952Y-100321428D01*
X140178571Y-100226190D01*
X140178571Y-100178571D01*
X140130952Y-100083333D01*
X140035714Y-100035714D01*
X139892857Y-100035714D01*
X139797619Y-100083333D01*
X139321428Y-100702380D02*
X139321428Y-100035714D01*
X139321428Y-99702380D02*
X139369047Y-99750000D01*
X139321428Y-99797619D01*
X139273809Y-99750000D01*
X139321428Y-99702380D01*
X139321428Y-99797619D01*
X138416666Y-100702380D02*
X138416666Y-99702380D01*
X138416666Y-100654761D02*
X138511904Y-100702380D01*
X138702380Y-100702380D01*
X138797619Y-100654761D01*
X138845238Y-100607142D01*
X138892857Y-100511904D01*
X138892857Y-100226190D01*
X138845238Y-100130952D01*
X138797619Y-100083333D01*
X138702380Y-100035714D01*
X138511904Y-100035714D01*
X138416666Y-100083333D01*
X137559523Y-100654761D02*
X137654761Y-100702380D01*
X137845238Y-100702380D01*
X137940476Y-100654761D01*
X137988095Y-100559523D01*
X137988095Y-100178571D01*
X137940476Y-100083333D01*
X137845238Y-100035714D01*
X137654761Y-100035714D01*
X137559523Y-100083333D01*
X137511904Y-100178571D01*
X137511904Y-100273809D01*
X137988095Y-100369047D01*
D11*
X146673333Y-105304523D02*
X146673333Y-106211666D01*
X146733809Y-106393095D01*
X146854761Y-106514047D01*
X147036190Y-106574523D01*
X147157142Y-106574523D01*
X146189523Y-105304523D02*
X145403333Y-105304523D01*
X145826666Y-105788333D01*
X145645238Y-105788333D01*
X145524285Y-105848809D01*
X145463809Y-105909285D01*
X145403333Y-106030238D01*
X145403333Y-106332619D01*
X145463809Y-106453571D01*
X145524285Y-106514047D01*
X145645238Y-106574523D01*
X146008095Y-106574523D01*
X146129047Y-106514047D01*
X146189523Y-106453571D01*
X146673333Y-121304523D02*
X146673333Y-122211666D01*
X146733809Y-122393095D01*
X146854761Y-122514047D01*
X147036190Y-122574523D01*
X147157142Y-122574523D01*
X146129047Y-121425476D02*
X146068571Y-121365000D01*
X145947619Y-121304523D01*
X145645238Y-121304523D01*
X145524285Y-121365000D01*
X145463809Y-121425476D01*
X145403333Y-121546428D01*
X145403333Y-121667380D01*
X145463809Y-121848809D01*
X146189523Y-122574523D01*
X145403333Y-122574523D01*
%LPC*%
D12*
X188160000Y-102000000D03*
X184200000Y-102000000D03*
X180240000Y-102000000D03*
X176280000Y-102000000D03*
X172320000Y-102000000D03*
X168360000Y-102000000D03*
X164400000Y-102000000D03*
X160440000Y-102000000D03*
X156480000Y-102000000D03*
X152520000Y-102000000D03*
X148560000Y-102000000D03*
X144600000Y-102000000D03*
X140640000Y-102000000D03*
X136680000Y-102000000D03*
X132720000Y-102000000D03*
X128760000Y-102000000D03*
X124800000Y-102000000D03*
X120840000Y-102000000D03*
X116880000Y-102000000D03*
X112920000Y-102000000D03*
X108960000Y-102000000D03*
X105000000Y-102000000D03*
X188160000Y-98440000D03*
X184200000Y-98440000D03*
X180240000Y-98440000D03*
X176280000Y-98440000D03*
X172320000Y-98440000D03*
X168360000Y-98440000D03*
X164400000Y-98440000D03*
X160440000Y-98440000D03*
X156480000Y-98440000D03*
X152520000Y-98440000D03*
X148560000Y-98440000D03*
X144600000Y-98440000D03*
X140640000Y-98440000D03*
X136680000Y-98440000D03*
X132720000Y-98440000D03*
X128760000Y-98440000D03*
X124800000Y-98440000D03*
X120840000Y-98440000D03*
X116880000Y-98440000D03*
X112920000Y-98440000D03*
X108960000Y-98440000D03*
D13*
X105000000Y-98440000D03*
D12*
X188160000Y-118250000D03*
X184200000Y-118250000D03*
X180240000Y-118250000D03*
X176280000Y-118250000D03*
X172320000Y-118250000D03*
X168360000Y-118250000D03*
X164400000Y-118250000D03*
X160440000Y-118250000D03*
X156480000Y-118250000D03*
X152520000Y-118250000D03*
X148560000Y-118250000D03*
X144600000Y-118250000D03*
X140640000Y-118250000D03*
X136680000Y-118250000D03*
X132720000Y-118250000D03*
X128760000Y-118250000D03*
X124800000Y-118250000D03*
X120840000Y-118250000D03*
X116880000Y-118250000D03*
X112920000Y-118250000D03*
X108960000Y-118250000D03*
X105000000Y-118250000D03*
X188160000Y-114690000D03*
X184200000Y-114690000D03*
X180240000Y-114690000D03*
X176280000Y-114690000D03*
X172320000Y-114690000D03*
X168360000Y-114690000D03*
X164400000Y-114690000D03*
X160440000Y-114690000D03*
X156480000Y-114690000D03*
X152520000Y-114690000D03*
X148560000Y-114690000D03*
X144600000Y-114690000D03*
X140640000Y-114690000D03*
X136680000Y-114690000D03*
X132720000Y-114690000D03*
X128760000Y-114690000D03*
X124800000Y-114690000D03*
X120840000Y-114690000D03*
X116880000Y-114690000D03*
X112920000Y-114690000D03*
X108960000Y-114690000D03*
D13*
X105000000Y-114690000D03*
D14*
X105000000Y-141540000D03*
X108960000Y-141540000D03*
X112920000Y-141540000D03*
X116880000Y-141540000D03*
X120840000Y-141540000D03*
X124800000Y-141540000D03*
X128760000Y-141540000D03*
X132720000Y-141540000D03*
X136680000Y-141540000D03*
X140640000Y-141540000D03*
X144600000Y-141540000D03*
X148560000Y-141540000D03*
X152520000Y-141540000D03*
X156480000Y-141540000D03*
X160440000Y-141540000D03*
X164400000Y-141540000D03*
X168360000Y-141540000D03*
X172320000Y-141540000D03*
X176280000Y-141540000D03*
X180240000Y-141540000D03*
X184200000Y-141540000D03*
X188160000Y-141540000D03*
M02*
