%TF.GenerationSoftware,KiCad,Pcbnew,(5.1.12)-1*%
%TF.CreationDate,2022-10-05T19:49:44+01:00*%
%TF.ProjectId,Apple-1 riser,4170706c-652d-4312-9072-697365722e6b,rev?*%
%TF.SameCoordinates,Original*%
%TF.FileFunction,Legend,Bot*%
%TF.FilePolarity,Positive*%
%FSLAX46Y46*%
G04 Gerber Fmt 4.6, Leading zero omitted, Abs format (unit mm)*
G04 Created by KiCad (PCBNEW (5.1.12)-1) date 2022-10-05 19:49:44*
%MOMM*%
%LPD*%
G01*
G04 APERTURE LIST*
%ADD10C,0.150000*%
%ADD11C,0.254000*%
G04 APERTURE END LIST*
D10*
X154607142Y-100178571D02*
X154940476Y-100178571D01*
X154940476Y-100702380D02*
X154940476Y-99702380D01*
X154464285Y-99702380D01*
X154083333Y-100702380D02*
X154083333Y-100035714D01*
X154083333Y-99702380D02*
X154130952Y-99750000D01*
X154083333Y-99797619D01*
X154035714Y-99750000D01*
X154083333Y-99702380D01*
X154083333Y-99797619D01*
X153750000Y-100035714D02*
X153369047Y-100035714D01*
X153607142Y-99702380D02*
X153607142Y-100559523D01*
X153559523Y-100654761D01*
X153464285Y-100702380D01*
X153369047Y-100702380D01*
X152321428Y-100654761D02*
X152226190Y-100702380D01*
X152035714Y-100702380D01*
X151940476Y-100654761D01*
X151892857Y-100559523D01*
X151892857Y-100511904D01*
X151940476Y-100416666D01*
X152035714Y-100369047D01*
X152178571Y-100369047D01*
X152273809Y-100321428D01*
X152321428Y-100226190D01*
X152321428Y-100178571D01*
X152273809Y-100083333D01*
X152178571Y-100035714D01*
X152035714Y-100035714D01*
X151940476Y-100083333D01*
X151321428Y-100702380D02*
X151416666Y-100654761D01*
X151464285Y-100607142D01*
X151511904Y-100511904D01*
X151511904Y-100226190D01*
X151464285Y-100130952D01*
X151416666Y-100083333D01*
X151321428Y-100035714D01*
X151178571Y-100035714D01*
X151083333Y-100083333D01*
X151035714Y-100130952D01*
X150988095Y-100226190D01*
X150988095Y-100511904D01*
X151035714Y-100607142D01*
X151083333Y-100654761D01*
X151178571Y-100702380D01*
X151321428Y-100702380D01*
X150130952Y-100654761D02*
X150226190Y-100702380D01*
X150416666Y-100702380D01*
X150511904Y-100654761D01*
X150559523Y-100607142D01*
X150607142Y-100511904D01*
X150607142Y-100226190D01*
X150559523Y-100130952D01*
X150511904Y-100083333D01*
X150416666Y-100035714D01*
X150226190Y-100035714D01*
X150130952Y-100083333D01*
X149702380Y-100702380D02*
X149702380Y-99702380D01*
X149607142Y-100321428D02*
X149321428Y-100702380D01*
X149321428Y-100035714D02*
X149702380Y-100416666D01*
X148511904Y-100654761D02*
X148607142Y-100702380D01*
X148797619Y-100702380D01*
X148892857Y-100654761D01*
X148940476Y-100559523D01*
X148940476Y-100178571D01*
X148892857Y-100083333D01*
X148797619Y-100035714D01*
X148607142Y-100035714D01*
X148511904Y-100083333D01*
X148464285Y-100178571D01*
X148464285Y-100273809D01*
X148940476Y-100369047D01*
X148178571Y-100035714D02*
X147797619Y-100035714D01*
X148035714Y-99702380D02*
X148035714Y-100559523D01*
X147988095Y-100654761D01*
X147892857Y-100702380D01*
X147797619Y-100702380D01*
X147511904Y-100654761D02*
X147416666Y-100702380D01*
X147226190Y-100702380D01*
X147130952Y-100654761D01*
X147083333Y-100559523D01*
X147083333Y-100511904D01*
X147130952Y-100416666D01*
X147226190Y-100369047D01*
X147369047Y-100369047D01*
X147464285Y-100321428D01*
X147511904Y-100226190D01*
X147511904Y-100178571D01*
X147464285Y-100083333D01*
X147369047Y-100035714D01*
X147226190Y-100035714D01*
X147130952Y-100083333D01*
X146035714Y-100035714D02*
X145654761Y-100035714D01*
X145892857Y-99702380D02*
X145892857Y-100559523D01*
X145845238Y-100654761D01*
X145750000Y-100702380D01*
X145654761Y-100702380D01*
X145178571Y-100702380D02*
X145273809Y-100654761D01*
X145321428Y-100607142D01*
X145369047Y-100511904D01*
X145369047Y-100226190D01*
X145321428Y-100130952D01*
X145273809Y-100083333D01*
X145178571Y-100035714D01*
X145035714Y-100035714D01*
X144940476Y-100083333D01*
X144892857Y-100130952D01*
X144845238Y-100226190D01*
X144845238Y-100511904D01*
X144892857Y-100607142D01*
X144940476Y-100654761D01*
X145035714Y-100702380D01*
X145178571Y-100702380D01*
X143797619Y-100035714D02*
X143416666Y-100035714D01*
X143654761Y-99702380D02*
X143654761Y-100559523D01*
X143607142Y-100654761D01*
X143511904Y-100702380D01*
X143416666Y-100702380D01*
X143083333Y-100702380D02*
X143083333Y-99702380D01*
X142654761Y-100702380D02*
X142654761Y-100178571D01*
X142702380Y-100083333D01*
X142797619Y-100035714D01*
X142940476Y-100035714D01*
X143035714Y-100083333D01*
X143083333Y-100130952D01*
X142178571Y-100702380D02*
X142178571Y-100035714D01*
X142178571Y-99702380D02*
X142226190Y-99750000D01*
X142178571Y-99797619D01*
X142130952Y-99750000D01*
X142178571Y-99702380D01*
X142178571Y-99797619D01*
X141750000Y-100654761D02*
X141654761Y-100702380D01*
X141464285Y-100702380D01*
X141369047Y-100654761D01*
X141321428Y-100559523D01*
X141321428Y-100511904D01*
X141369047Y-100416666D01*
X141464285Y-100369047D01*
X141607142Y-100369047D01*
X141702380Y-100321428D01*
X141750000Y-100226190D01*
X141750000Y-100178571D01*
X141702380Y-100083333D01*
X141607142Y-100035714D01*
X141464285Y-100035714D01*
X141369047Y-100083333D01*
X140178571Y-100654761D02*
X140083333Y-100702380D01*
X139892857Y-100702380D01*
X139797619Y-100654761D01*
X139750000Y-100559523D01*
X139750000Y-100511904D01*
X139797619Y-100416666D01*
X139892857Y-100369047D01*
X140035714Y-100369047D01*
X140130952Y-100321428D01*
X140178571Y-100226190D01*
X140178571Y-100178571D01*
X140130952Y-100083333D01*
X140035714Y-100035714D01*
X139892857Y-100035714D01*
X139797619Y-100083333D01*
X139321428Y-100702380D02*
X139321428Y-100035714D01*
X139321428Y-99702380D02*
X139369047Y-99750000D01*
X139321428Y-99797619D01*
X139273809Y-99750000D01*
X139321428Y-99702380D01*
X139321428Y-99797619D01*
X138416666Y-100702380D02*
X138416666Y-99702380D01*
X138416666Y-100654761D02*
X138511904Y-100702380D01*
X138702380Y-100702380D01*
X138797619Y-100654761D01*
X138845238Y-100607142D01*
X138892857Y-100511904D01*
X138892857Y-100226190D01*
X138845238Y-100130952D01*
X138797619Y-100083333D01*
X138702380Y-100035714D01*
X138511904Y-100035714D01*
X138416666Y-100083333D01*
X137559523Y-100654761D02*
X137654761Y-100702380D01*
X137845238Y-100702380D01*
X137940476Y-100654761D01*
X137988095Y-100559523D01*
X137988095Y-100178571D01*
X137940476Y-100083333D01*
X137845238Y-100035714D01*
X137654761Y-100035714D01*
X137559523Y-100083333D01*
X137511904Y-100178571D01*
X137511904Y-100273809D01*
X137988095Y-100369047D01*
%TO.C,J3*%
D11*
X146673333Y-105304523D02*
X146673333Y-106211666D01*
X146733809Y-106393095D01*
X146854761Y-106514047D01*
X147036190Y-106574523D01*
X147157142Y-106574523D01*
X146189523Y-105304523D02*
X145403333Y-105304523D01*
X145826666Y-105788333D01*
X145645238Y-105788333D01*
X145524285Y-105848809D01*
X145463809Y-105909285D01*
X145403333Y-106030238D01*
X145403333Y-106332619D01*
X145463809Y-106453571D01*
X145524285Y-106514047D01*
X145645238Y-106574523D01*
X146008095Y-106574523D01*
X146129047Y-106514047D01*
X146189523Y-106453571D01*
X97251666Y-101264047D02*
X97070238Y-101324523D01*
X96767857Y-101324523D01*
X96646904Y-101264047D01*
X96586428Y-101203571D01*
X96525952Y-101082619D01*
X96525952Y-100961666D01*
X96586428Y-100840714D01*
X96646904Y-100780238D01*
X96767857Y-100719761D01*
X97009761Y-100659285D01*
X97130714Y-100598809D01*
X97191190Y-100538333D01*
X97251666Y-100417380D01*
X97251666Y-100296428D01*
X97191190Y-100175476D01*
X97130714Y-100115000D01*
X97009761Y-100054523D01*
X96707380Y-100054523D01*
X96525952Y-100115000D01*
X95800238Y-101324523D02*
X95921190Y-101264047D01*
X95981666Y-101143095D01*
X95981666Y-100054523D01*
X95135000Y-101324523D02*
X95255952Y-101264047D01*
X95316428Y-101203571D01*
X95376904Y-101082619D01*
X95376904Y-100719761D01*
X95316428Y-100598809D01*
X95255952Y-100538333D01*
X95135000Y-100477857D01*
X94953571Y-100477857D01*
X94832619Y-100538333D01*
X94772142Y-100598809D01*
X94711666Y-100719761D01*
X94711666Y-101082619D01*
X94772142Y-101203571D01*
X94832619Y-101264047D01*
X94953571Y-101324523D01*
X95135000Y-101324523D01*
X94348809Y-100477857D02*
X93865000Y-100477857D01*
X94167380Y-100054523D02*
X94167380Y-101143095D01*
X94106904Y-101264047D01*
X93985952Y-101324523D01*
X93865000Y-101324523D01*
X92050714Y-100659285D02*
X91869285Y-100719761D01*
X91808809Y-100780238D01*
X91748333Y-100901190D01*
X91748333Y-101082619D01*
X91808809Y-101203571D01*
X91869285Y-101264047D01*
X91990238Y-101324523D01*
X92474047Y-101324523D01*
X92474047Y-100054523D01*
X92050714Y-100054523D01*
X91929761Y-100115000D01*
X91869285Y-100175476D01*
X91808809Y-100296428D01*
X91808809Y-100417380D01*
X91869285Y-100538333D01*
X91929761Y-100598809D01*
X92050714Y-100659285D01*
X92474047Y-100659285D01*
%TO.C,J2*%
X146673333Y-121304523D02*
X146673333Y-122211666D01*
X146733809Y-122393095D01*
X146854761Y-122514047D01*
X147036190Y-122574523D01*
X147157142Y-122574523D01*
X146129047Y-121425476D02*
X146068571Y-121365000D01*
X145947619Y-121304523D01*
X145645238Y-121304523D01*
X145524285Y-121365000D01*
X145463809Y-121425476D01*
X145403333Y-121546428D01*
X145403333Y-121667380D01*
X145463809Y-121848809D01*
X146189523Y-122574523D01*
X145403333Y-122574523D01*
X97410952Y-116764047D02*
X97229523Y-116824523D01*
X96927142Y-116824523D01*
X96806190Y-116764047D01*
X96745714Y-116703571D01*
X96685238Y-116582619D01*
X96685238Y-116461666D01*
X96745714Y-116340714D01*
X96806190Y-116280238D01*
X96927142Y-116219761D01*
X97169047Y-116159285D01*
X97290000Y-116098809D01*
X97350476Y-116038333D01*
X97410952Y-115917380D01*
X97410952Y-115796428D01*
X97350476Y-115675476D01*
X97290000Y-115615000D01*
X97169047Y-115554523D01*
X96866666Y-115554523D01*
X96685238Y-115615000D01*
X95959523Y-116824523D02*
X96080476Y-116764047D01*
X96140952Y-116643095D01*
X96140952Y-115554523D01*
X95294285Y-116824523D02*
X95415238Y-116764047D01*
X95475714Y-116703571D01*
X95536190Y-116582619D01*
X95536190Y-116219761D01*
X95475714Y-116098809D01*
X95415238Y-116038333D01*
X95294285Y-115977857D01*
X95112857Y-115977857D01*
X94991904Y-116038333D01*
X94931428Y-116098809D01*
X94870952Y-116219761D01*
X94870952Y-116582619D01*
X94931428Y-116703571D01*
X94991904Y-116764047D01*
X95112857Y-116824523D01*
X95294285Y-116824523D01*
X94508095Y-115977857D02*
X94024285Y-115977857D01*
X94326666Y-115554523D02*
X94326666Y-116643095D01*
X94266190Y-116764047D01*
X94145238Y-116824523D01*
X94024285Y-116824523D01*
X92693809Y-116461666D02*
X92089047Y-116461666D01*
X92814761Y-116824523D02*
X92391428Y-115554523D01*
X91968095Y-116824523D01*
%TD*%
M02*
