M48
; DRILL file {KiCad (5.1.12)-1} date 10/28/22 14:50:13
; FORMAT={-:-/ absolute / metric / decimal}
; #@! TF.CreationDate,2022-10-28T14:50:13+01:00
; #@! TF.GenerationSoftware,Kicad,Pcbnew,(5.1.12)-1
; #@! TF.FileFunction,Plated,1,2,PTH
FMAT,2
METRIC
T1C1.270
%
G90
G05
T1
X105.0Y-98.44
X105.0Y-102.0
X105.0Y-114.69
X105.0Y-118.25
X108.96Y-98.44
X108.96Y-102.0
X108.96Y-114.69
X108.96Y-118.25
X112.92Y-98.44
X112.92Y-102.0
X112.92Y-114.69
X112.92Y-118.25
X116.88Y-98.44
X116.88Y-102.0
X116.88Y-114.69
X116.88Y-118.25
X120.84Y-98.44
X120.84Y-102.0
X120.84Y-114.69
X120.84Y-118.25
X124.8Y-98.44
X124.8Y-102.0
X124.8Y-114.69
X124.8Y-118.25
X128.76Y-98.44
X128.76Y-102.0
X128.76Y-114.69
X128.76Y-118.25
X132.72Y-98.44
X132.72Y-102.0
X132.72Y-114.69
X132.72Y-118.25
X136.68Y-98.44
X136.68Y-102.0
X136.68Y-114.69
X136.68Y-118.25
X140.64Y-98.44
X140.64Y-102.0
X140.64Y-114.69
X140.64Y-118.25
X144.6Y-98.44
X144.6Y-102.0
X144.6Y-114.69
X144.6Y-118.25
X148.56Y-98.44
X148.56Y-102.0
X148.56Y-114.69
X148.56Y-118.25
X152.52Y-98.44
X152.52Y-102.0
X152.52Y-114.69
X152.52Y-118.25
X156.48Y-98.44
X156.48Y-102.0
X156.48Y-114.69
X156.48Y-118.25
X160.44Y-98.44
X160.44Y-102.0
X160.44Y-114.69
X160.44Y-118.25
X164.4Y-98.44
X164.4Y-102.0
X164.4Y-114.69
X164.4Y-118.25
X168.36Y-98.44
X168.36Y-102.0
X168.36Y-114.69
X168.36Y-118.25
X172.32Y-98.44
X172.32Y-102.0
X172.32Y-114.69
X172.32Y-118.25
X176.28Y-98.44
X176.28Y-102.0
X176.28Y-114.69
X176.28Y-118.25
X180.24Y-98.44
X180.24Y-102.0
X180.24Y-114.69
X180.24Y-118.25
X184.2Y-98.44
X184.2Y-102.0
X184.2Y-114.69
X184.2Y-118.25
X188.16Y-98.44
X188.16Y-102.0
X188.16Y-114.69
X188.16Y-118.25
T0
M30
