M48
; DRILL file {KiCad (5.1.12)-1} date 08/04/22 09:57:34
; FORMAT={-:-/ absolute / metric / decimal}
; #@! TF.CreationDate,2022-08-04T09:57:34+01:00
; #@! TF.GenerationSoftware,Kicad,Pcbnew,(5.1.12)-1
; #@! TF.FileFunction,Plated,1,2,PTH
FMAT,2
METRIC
T1C0.400
T2C0.800
T3C1.000
T4C1.200
%
G90
G05
T1
X121.606Y-116.927
X123.586Y-120.887
X125.566Y-109.007
X157.246Y-132.767
X161.206Y-134.747
X177.046Y-132.767
X182.986Y-132.767
X184.966Y-130.787
T2
X128.146Y-100.867
X128.146Y-103.407
X128.146Y-105.947
X128.146Y-108.487
X128.146Y-111.027
X128.146Y-113.567
X128.146Y-116.107
X128.146Y-118.647
X128.146Y-121.187
X128.146Y-123.727
X128.146Y-126.267
X128.146Y-128.807
X143.386Y-100.867
X143.386Y-103.407
X143.386Y-105.947
X143.386Y-108.487
X143.386Y-111.027
X143.386Y-113.567
X143.386Y-116.107
X143.386Y-118.647
X143.386Y-121.187
X143.386Y-123.727
X143.386Y-126.267
X143.386Y-128.807
X179.626Y-100.867
X179.626Y-103.407
X179.626Y-105.947
X179.626Y-108.487
X179.626Y-111.027
X179.626Y-113.567
X179.626Y-116.107
X179.626Y-118.647
X179.626Y-121.187
X179.626Y-123.727
X179.626Y-126.267
X179.626Y-128.807
X194.866Y-100.867
X194.866Y-103.407
X194.866Y-105.947
X194.866Y-108.487
X194.866Y-111.027
X194.866Y-113.567
X194.866Y-116.107
X194.866Y-118.647
X194.866Y-121.187
X194.866Y-123.727
X194.866Y-126.267
X194.866Y-128.807
T3
X169.126Y-132.767
X169.126Y-135.307
X208.726Y-132.767
X208.726Y-135.307
T4
X204.766Y-99.707
X204.766Y-114.947
T0
M30
